<mxfile host="app.diagrams.net" agent="Mozilla/5.0 (Windows NT 10.0; Win64; x64) AppleWebKit/537.36 (KHTML, like Gecko) Chrome/128.0.0.0 Safari/537.36" version="24.7.16">
  <diagram name="PÃ¡gina-1" id="rEXXYLPEBKtFvNtW98wz">
    <mxGraphModel grid="0" page="0" gridSize="10" guides="1" tooltips="1" connect="1" arrows="1" fold="1" pageScale="1" pageWidth="827" pageHeight="1169" math="0" shadow="0">
      <root>
        <mxCell id="0" />
        <mxCell id="1" parent="0" />
        <mxCell id="k1NWHWB7fnP7Gy-s8BHT-51" value="" style="rounded=0;whiteSpace=wrap;html=1;dashed=1;dashPattern=8 8;" vertex="1" parent="1">
          <mxGeometry x="1035" y="105" width="214" height="371" as="geometry" />
        </mxCell>
        <mxCell id="k1NWHWB7fnP7Gy-s8BHT-56" style="edgeStyle=orthogonalEdgeStyle;rounded=0;orthogonalLoop=1;jettySize=auto;html=1;entryX=0;entryY=0.5;entryDx=0;entryDy=0;" edge="1" parent="1" source="k1NWHWB7fnP7Gy-s8BHT-39" target="k1NWHWB7fnP7Gy-s8BHT-51">
          <mxGeometry relative="1" as="geometry" />
        </mxCell>
        <mxCell id="k1NWHWB7fnP7Gy-s8BHT-39" value="" style="rounded=0;whiteSpace=wrap;html=1;dashed=1;dashPattern=12 12;" vertex="1" parent="1">
          <mxGeometry x="10" y="110" width="970" height="360" as="geometry" />
        </mxCell>
        <mxCell id="k1NWHWB7fnP7Gy-s8BHT-2" value="&lt;font style=&quot;font-size: 19px;&quot;&gt;Data Analysis - Training and Validation&lt;/font&gt;" style="text;html=1;align=center;verticalAlign=middle;resizable=0;points=[];autosize=1;strokeColor=none;fillColor=none;" vertex="1" parent="1">
          <mxGeometry x="20" y="60" width="350" height="40" as="geometry" />
        </mxCell>
        <mxCell id="k1NWHWB7fnP7Gy-s8BHT-20" style="edgeStyle=orthogonalEdgeStyle;rounded=0;orthogonalLoop=1;jettySize=auto;html=1;" edge="1" parent="1" source="k1NWHWB7fnP7Gy-s8BHT-3" target="k1NWHWB7fnP7Gy-s8BHT-5">
          <mxGeometry relative="1" as="geometry" />
        </mxCell>
        <mxCell id="k1NWHWB7fnP7Gy-s8BHT-3" value="" style="sketch=0;outlineConnect=0;fontColor=#232F3E;gradientColor=none;fillColor=#232F3D;strokeColor=none;dashed=0;verticalLabelPosition=bottom;verticalAlign=top;align=center;html=1;fontSize=12;fontStyle=0;aspect=fixed;pointerEvents=1;shape=mxgraph.aws4.data_table;" vertex="1" parent="1">
          <mxGeometry x="40" y="240" width="105.76" height="80" as="geometry" />
        </mxCell>
        <mxCell id="k1NWHWB7fnP7Gy-s8BHT-4" value="Training&amp;nbsp;&lt;div&gt;Dataset&lt;/div&gt;" style="text;html=1;align=center;verticalAlign=middle;resizable=0;points=[];autosize=1;strokeColor=none;fillColor=none;" vertex="1" parent="1">
          <mxGeometry x="60.88" y="316" width="64" height="41" as="geometry" />
        </mxCell>
        <mxCell id="k1NWHWB7fnP7Gy-s8BHT-5" value="" style="sketch=0;outlineConnect=0;fontColor=#232F3E;gradientColor=none;fillColor=#000000;strokeColor=none;dashed=0;verticalLabelPosition=bottom;verticalAlign=top;align=center;html=1;fontSize=12;fontStyle=0;aspect=fixed;pointerEvents=1;shape=mxgraph.aws4.global_secondary_index;" vertex="1" parent="1">
          <mxGeometry x="190" y="241" width="78" height="78" as="geometry" />
        </mxCell>
        <mxCell id="k1NWHWB7fnP7Gy-s8BHT-21" style="edgeStyle=orthogonalEdgeStyle;rounded=0;orthogonalLoop=1;jettySize=auto;html=1;" edge="1" parent="1" source="k1NWHWB7fnP7Gy-s8BHT-6">
          <mxGeometry relative="1" as="geometry">
            <mxPoint x="390" y="280" as="targetPoint" />
          </mxGeometry>
        </mxCell>
        <mxCell id="k1NWHWB7fnP7Gy-s8BHT-6" value="" style="sketch=0;outlineConnect=0;fontColor=#232F3E;gradientColor=none;fillColor=#000000;strokeColor=none;dashed=0;verticalLabelPosition=bottom;verticalAlign=top;align=center;html=1;fontSize=12;fontStyle=0;aspect=fixed;pointerEvents=1;shape=mxgraph.aws4.global_secondary_index;direction=west;" vertex="1" parent="1">
          <mxGeometry x="273" y="241" width="78" height="78" as="geometry" />
        </mxCell>
        <mxCell id="k1NWHWB7fnP7Gy-s8BHT-7" value="EDA - Feature Engineering" style="text;html=1;align=center;verticalAlign=middle;resizable=0;points=[];autosize=1;strokeColor=none;fillColor=none;" vertex="1" parent="1">
          <mxGeometry x="181" y="320" width="170" height="30" as="geometry" />
        </mxCell>
        <mxCell id="k1NWHWB7fnP7Gy-s8BHT-11" value="" style="shape=image;verticalLabelPosition=bottom;labelBackgroundColor=default;verticalAlign=top;aspect=fixed;imageAspect=0;image=data:image/png,iVBORw0KGgoAAAANSUhEUgAAAEMAAABlCAYAAAAWP15YAAAAAXNSR0IArs4c6QAAAARnQU1BAACxjwv8YQUAAAAJcEhZcwAADsMAAA7DAcdvqGQAAAxBSURBVHhe7Zx3aFTLF8fH2Nuzd+wdG4iRiGLDEhUsiKIiRkVUFBUr6h9i1z9UFBEVxYoFRHx2xR4VRKwvduy911iTOG8+kzv7bu5vN9mS7F5/7BeGu7ft3vnOOWfOmXPu5pIKIgqNGGsbhUKUDBuiZNgQJcOGKBk2RMmwIUqGDVEybIiSYUOUDBuiZNgQJcOGKBk2/F9Erd66kCtXLuuT//jjyeDxv3//rtu3b980CWXLlhX58uWzrvAffwwZv3//Fqmpqbq9f/9ePH/+XLx69Up8/PhRPH36VDx79kzvx8TEiJEjR4pWrVqJvHnzWnf7B9eTweOlpKSIly9fiocPH4pHjx6JO3fuiKtXr4qbN2+Kt2/fip8/f2qS0tLS9PVTpkwR06dPF3/99Zf1Lf7BVWTYH+XXr1+6o4z6/fv3xbVr18Tly5c1EZ8+fRI/fvzQDYlBNWjcT5s6dapuRYsWtb7NP0ScDH6eEUXc3717p9vr16/FkydPxPXr1zUBSAM2AYJowBBAM4AYsHLlSjFkyBCRJ08eve8vXEEGo08Hjh49Kl68eKHJQDVMR7EDwOyz9fbYkFG4cGGxc+dO0aFDB+uo/4i4n0GnGPn9+/drKcA20KncuXNrEmhOCQDOfYMyZcqIEiVKWHuBwRVOF1MiamLE3HTeGwl2eDtXrly5P5cMOtSsWTMxYsQI7R/4o7Vc40tNGjVqJKpWrWodCQyuIKN48eKiW7duomXLltro+UMI4Dq7dHAvamJsTKBwhZrw8HXr1hX9+vUT1atX96iLP7ATgvFEuoKFK8gABQoUEJ07dxYLFy4UTZo00YT4KyGAayECUoOFa8gAOEmdOnVSPsJQpffV9DF/COEaGoazcuXK1tHA4SoyQP78+UV8fCcRF9fc72ALIlA1JAMX3Nss4w9cRwbqQdCFB5qammYdzRqoWa1atUTBggWtI4HDdWR8+PBBbN++XfzzT5Ia8fS4IysgGUhUxYoVgwrdDVxDBh36+vWr2LNnj/j7790iOTnZOvMfuMYXkIxKlSppUoKFa8ggQl2wYIEYP368/uz0FSDCNDvMfrFixbTxDHQNww5XkEEkmpiYKHbv3q1dc29OE7bAlz1AlUqWLKn9jFAQcTIwmKxRbNu2Tdy7d886+h8YeUa7TZs2okuXLlodnNJBUFe+fPmAF3P+B+qLIwZFhDx79qxUbrhUnZTKndZNdV43PhcqVEhOmjRJ3r17V6rwXs6ePVsqlZCKAM/1SiLkjBkz5JcvX6xvDg4RIwMinj59KhMSEnSH6JwhwRDBtm3btvLWrVvWXVI+ePBA9u7dWypD6SFEqYhcsWKFTE1Nta4KDhFTE2YLbAQLOqiK3U6o59KtQoUKYujQoTpeMcBIDho0SLvd2AquK1KkiChVqlTQzpYHMBJOIBFqtpDLli2TDRo0kMov8EiBkQiaCsXlmjVr5Lt376w708H9nz59ksoXka1bt5bKTkgV08irV6/qc6Eg7GT8+PFDbt26VRNhCLA3RF9JhFy0aJEmwlcHsQ979+6VEyZMkErCQrYXIKxkQMTJkyelmhkySAPSwZZjpUuX1h1U7rh1l2+oaVhfl5KSYh0JDWEjgweGiIYNG3oMn50M9lXUKidPniw/fvxo3RVehM2APn78WGzcuFGoKVIbOruxw4CCuLg4MXDgwIDzHdmFsJDBzHHkyBFx7NixDCkAoAZEN+KKAQMGiDp16nj1QMMCLR85iFevXslx48ZJNf159SVo+BJnzpwJ2U8IFTk6BEjBwYMHhbL6OiPm9APU7+sFXCSCpT5FlnUmMshRMog5Nm3aqBdqvNkJ1CE+Pl507dpVO04RR7qAZC+YOU6dOiVVYKVjC7tq0FCX4sWLy7Fjx0oVnMm0tDTrzsgi28mgY0oiZL9+/TzBl/EjDBEc79Gjh7xx44ZriADZriaoxqpVqzLMHOp3PFtC8Pbt24vRo0eLGjVqRG7m8IIMWXj0mKU3Cj+8wXapAp8z2gE6P2vWLGUnNmmD6S34io2NFcrV1j5FpA2mEx4yqJGgKIQRpUTIEGLvbDoBTqSf5zoVH+hyADLp7Nvv5fvJa8yfP187VsqWWGfcg1wEQpQBXbhwQaxfv16o+V4XjBiv0BvSO8poZ5QWJMNMoYYIc55VqN69e4t58+YJFX9kIMo1+PXrlzx8+LBs2rSpVGKdIWbIqtkNo6+GwSxfvrycM2eOfP/+PYLoWsRQF4VUUDyGjgcyYur+LK/HLpBd79WrV+hrlDmMGAwmC7FsgxVdX/dhJ2rXrq2z68QcbjOYTsRgH0jnZWYjMgPS4Q0QQbpvyZIlonv37iHlM8KFGOeoBiMdRl2c92JMvcUkbkUMiReyUcCMcrCE2IH9YYolb8qU7UuC3IQYMlHUVFFKxAOHSoi5jy37aqYSc+fOFZcuXfLpzLkFWjLatWsnGjdurDuA7aAZUgxBgTQ7IZ8/f9Yh/ObNm3Vtd7C2KRzQHij5TeowN2zYIB48eODRc9M5A9NJX2DkSRpjPJ33U5I4atQonQchFehGZIhN6AglytRmc9g5inTQFyEcp5YTd5t1TuOzmK+HIKSQmu4xY8ZEbJ0zU0CGgeq8XotQ7nlQLTk5Wc6cOVMv9+N52j1UPFs8XJJD+/btk3i+bkMGMrID5EX79u0rCxYsmMEtN4SQI2Wtw6xlMABuQbaTAVgEJnOuolTP4o6REvZpLVq00KthkV4EtiNHVlaISvv37y9Uh7XNoAG7zbly5YpYt26dfoPALcgRMjCe9evX16vezCIYTyeUjdE+CLOYa/wPLR85BJLBZMtJMqMaTvvBtmrVqnLx4sXyw4cP1l2RQ25l/WdavGQ7lJ3QtRWoBu+UkVkzamK2TOO462TUCOwUSZ5z4UaOkgHoHEUnqAIv2eCRokZ2cOzNmze64KRKlSoh1XKGBEtCchzMMNOmTdP1V6iIc4bBL4mNjZWJiYnWHeFH2NbpzQxDDKR+1zPDAKMWvKHIyjqecCSQ42piQIfJqxIdK8dMv6jrdPdRJUoXcNVr1qypcyxOlTLgXlbnKK/ms5Kw0G2Nlo8wAjf8yJEjslWrVp6ZxaiLURmcNZw2qgG9eagcoy5s+fLlMj4+Pttmo7CpiQEGlfWTPn36aB9EPYM+bh9V8i8HDhwQJ06c0P6IE6Qkzp07p5cFjh8/Lg4dOqQlKlSEnQw6zSo5mXfSjCwSG0KAIYXplqphtnZwLUmuHTt26AjbqBbNqXYBA/GIBAjSEHUzwzCb2FWFxmfyOcwwRNOox8WLF2WHDh10wGeuI6O/dOnSkCPhsEuGAYYRvyIhIUG0bt3aIyFIhmmMNDPMmjVr9KITvgizzenTp7VEGCniM4bUm0oFgoiRYYCHSsUv3ieAEAMII645efKk2LVrl64ophIIm2GfZbiGJUVsTUjQ8hFBIPqUOiobIOPi4rTYO2cXVEJ5plIR51EP+3mu79ixo0xKSrK+NThEXDIQdVIVvD6BhKA6xhDa1QWjiZFECox6GHCM86iK6pN1NHBEnAwD1kfJ0g8fPtzzGri9YxCAajiJMPuoCHka7EewcA0ZABImTpwohg0bpms5DBlOAryBiJiqIVb2g4WryAC44mTsmzdv7neiGrKYScgZ84pXsHAdGXQMz7RevXqeNxGRkKykAzKwG2yDtRuuI4Pci4o59PooyS07MiMEI8s/tISypuoqMpgVeIsRV9vpM2Q22pCEcWWRCCMaLFxFBithW7Zs0VOoN9XISl0gEOcrWEScDDqIRBCF8oIvHiYi76vTmRFC4c3t27czlaLM4ArJ4B+Y1q5dq1/DoMaMzmYmAcB5DZ8hle9iGwxcIRmox/nz5/2eCbjG13WoWLBG1BWSoeIL7V+wzGdGGFWhZUWOUzoo1sPfCAYRJ4MOELlSNcy/qlSrVk2TAkGcM1KQFSkGLCYTowQDV/yDG2AmYFQxgGwRd9SHd1VwtU2xHOG7Icfca6TDHFu9erUYPHhwwKWWESfDG3gkAi46DxEQQ0aOZtQAQ4lfgSqZAI772J80aZL+10dTuOcvXEmGHTweNoSOG6cqKSlJ//UdFUIYS4jBczVSQ/YDQoiEA4HryXACiUFa8CmwD+RgTp06pQnC4cLW8ApHz549M6yG+YM/jgz74/IZtUByaMZH4X23vEFUJP9xZOQkXOFnuANC/AuoHVZkOzD9qgAAAABJRU5ErkJggg==;" vertex="1" parent="1">
          <mxGeometry x="391.5" y="224.5" width="67" height="101" as="geometry" />
        </mxCell>
        <mxCell id="k1NWHWB7fnP7Gy-s8BHT-12" value="Split" style="text;html=1;align=center;verticalAlign=middle;resizable=0;points=[];autosize=1;strokeColor=none;fillColor=none;" vertex="1" parent="1">
          <mxGeometry x="398.5" y="330.5" width="50" height="30" as="geometry" />
        </mxCell>
        <mxCell id="k1NWHWB7fnP7Gy-s8BHT-13" value="" style="sketch=0;points=[[0,0,0],[0.25,0,0],[0.5,0,0],[0.75,0,0],[1,0,0],[0,1,0],[0.25,1,0],[0.5,1,0],[0.75,1,0],[1,1,0],[0,0.25,0],[0,0.5,0],[0,0.75,0],[1,0.25,0],[1,0.5,0],[1,0.75,0]];outlineConnect=0;dashed=0;verticalLabelPosition=bottom;verticalAlign=top;align=center;html=1;fontSize=12;fontStyle=0;aspect=fixed;shape=mxgraph.aws4.resourceIcon;resIcon=mxgraph.aws4.database;" vertex="1" parent="1">
          <mxGeometry x="476" y="150" width="78" height="78" as="geometry" />
        </mxCell>
        <mxCell id="k1NWHWB7fnP7Gy-s8BHT-14" value="80% Training" style="text;html=1;align=center;verticalAlign=middle;resizable=0;points=[];autosize=1;strokeColor=none;fillColor=none;" vertex="1" parent="1">
          <mxGeometry x="470" y="228" width="90" height="30" as="geometry" />
        </mxCell>
        <mxCell id="k1NWHWB7fnP7Gy-s8BHT-37" style="edgeStyle=orthogonalEdgeStyle;rounded=0;orthogonalLoop=1;jettySize=auto;html=1;" edge="1" parent="1" source="k1NWHWB7fnP7Gy-s8BHT-15">
          <mxGeometry relative="1" as="geometry">
            <mxPoint x="770" y="369.5" as="targetPoint" />
          </mxGeometry>
        </mxCell>
        <mxCell id="k1NWHWB7fnP7Gy-s8BHT-15" value="" style="sketch=0;points=[[0,0,0],[0.25,0,0],[0.5,0,0],[0.75,0,0],[1,0,0],[0,1,0],[0.25,1,0],[0.5,1,0],[0.75,1,0],[1,1,0],[0,0.25,0],[0,0.5,0],[0,0.75,0],[1,0.25,0],[1,0.5,0],[1,0.75,0]];outlineConnect=0;dashed=0;verticalLabelPosition=bottom;verticalAlign=top;align=center;html=1;fontSize=12;fontStyle=0;aspect=fixed;shape=mxgraph.aws4.resourceIcon;resIcon=mxgraph.aws4.database;" vertex="1" parent="1">
          <mxGeometry x="476" y="330.5" width="78" height="78" as="geometry" />
        </mxCell>
        <mxCell id="k1NWHWB7fnP7Gy-s8BHT-16" value="20% Validation" style="text;html=1;align=center;verticalAlign=middle;resizable=0;points=[];autosize=1;strokeColor=none;fillColor=none;" vertex="1" parent="1">
          <mxGeometry x="465" y="408.5" width="100" height="30" as="geometry" />
        </mxCell>
        <mxCell id="k1NWHWB7fnP7Gy-s8BHT-32" style="edgeStyle=orthogonalEdgeStyle;rounded=0;orthogonalLoop=1;jettySize=auto;html=1;" edge="1" parent="1" source="k1NWHWB7fnP7Gy-s8BHT-22" target="k1NWHWB7fnP7Gy-s8BHT-24">
          <mxGeometry relative="1" as="geometry" />
        </mxCell>
        <mxCell id="k1NWHWB7fnP7Gy-s8BHT-22" value="" style="sketch=0;points=[[0,0,0],[0.25,0,0],[0.5,0,0],[0.75,0,0],[1,0,0],[0,1,0],[0.25,1,0],[0.5,1,0],[0.75,1,0],[1,1,0],[0,0.25,0],[0,0.5,0],[0,0.75,0],[1,0.25,0],[1,0.5,0],[1,0.75,0]];outlineConnect=0;dashed=0;verticalLabelPosition=bottom;verticalAlign=top;align=center;html=1;fontSize=12;fontStyle=0;aspect=fixed;shape=mxgraph.aws4.resourceIcon;resIcon=mxgraph.aws4.developer_tools;" vertex="1" parent="1">
          <mxGeometry x="591" y="150" width="78" height="78" as="geometry" />
        </mxCell>
        <mxCell id="k1NWHWB7fnP7Gy-s8BHT-23" value="Hyperparameter&amp;nbsp;&lt;div&gt;Definition / Tunning&lt;/div&gt;" style="text;html=1;align=center;verticalAlign=middle;resizable=0;points=[];autosize=1;strokeColor=none;fillColor=none;" vertex="1" parent="1">
          <mxGeometry x="565" y="230" width="130" height="40" as="geometry" />
        </mxCell>
        <mxCell id="k1NWHWB7fnP7Gy-s8BHT-24" value="" style="shape=image;verticalLabelPosition=bottom;labelBackgroundColor=default;verticalAlign=top;aspect=fixed;imageAspect=0;image=data:image/png,iVBORw0KGgoAAAANSUhEUgAAB+cAAAeACAYAAAAcmVXPAAAAAXNSR0IArs4c6QAAAARnQU1BAACxjwv8YQUAAAAJcEhZcwAACxEAAAsRAX9kX5EAAAB4ZVhJZk1NACoAAAAIAAUBEgADAAAAAQABAAABGgAFAAAAAQAAAEoBGwAFAAAAAQAAAFIBKAADAAAAAQACAACHaQAEAAAAAQAAAFoAAAAAAAAASAAAAAEAAABIAAAAAQACoAIABAAAAAEAAB9AoAMABAAAAAEAAAu4AAAAADD8tC4AAP8hSURBVHhe7N0LnFxXYR/+e2dmd/W4c+/uSqtdGWHhIMegYiFZBptALEpCAgl50EbQpIT+05A0TdvQJoSQpEVN2tIk9EnTEBPoPyX8mz/8aZMmUKAJhCQQbPBTpgaCiXkj2ZYfkqzX7sz9n7tzJK20r9FqdzW7+/32c3oec/ck8RyvZ+5vz7kJAAAAAAAAAAAAAAAAAAAAAAAAAAAAAAAAAAAAAAAAAAAAAAAAAAAAAAAAAAAAAAAAAAAAAAAAAAAAAAAAAAAAAAAAAAAAAAAAAAAAAAAAAAAAAAAAAAAAAAAAAAAAAAAAAAAAAAAAAAAAAAAAAAAAAAAAAAAAAAAAAAAAAAAAAAAAAAAAAAAAAAAAAAAAAAAAAAAAAAAAAAAAAAAAAAAAAAAAAAAAAAAAAAAAAAAAAAAAAAAAAAAAAAAAAAAAAAAAAAAAAAAAAAAAAAAAAAAAAAAAAAAAAAAAAAAAAAAAAAAAAAAAAAAAAAAAAAAAAAAAAAAAAAAAAAAAAAAAAAAAAAAAAAAAAAAAAAAAAAAAAAAAAAAAAAAAAAAAAAAAAAAAAAAAAAAAAAAAAAAAAAAAAAAAAAAAAAAAAAAAAAAAAAAAAAAAAAAAAAAAAAAAAAAAAAAAAAAAAAAAAAAAAAAAAAAAAAAAAAAAAAAAAAAAAAAAAAAAAAAAAAAAAAAAAAAAAAAAAAAAAAAAAAAAAAAAAAAAAAAAAAAAAAAAAAAAAAAAAAAAAAAAAAAAAAAAAAAAAAAAAAAAAAAAAAAAAAAAAAAAAAAAAAAAAAAAAAAAAAAAAAAAAAAAAAAAAAAAAAAAAAAAAAAAAAAAAAAAAAAAAAAAAAAAAAAAAAAAAAAAAAAAAAAAAAAAAAAAAAAAAAAAAAAAAAAAAAAAAAAAAAAAAAAAAAAAAAAAAAAAAAAAAAAAAAAAAAAAAAAAAAAAAAAAAAAAAAAAAAAAAAAAAAAAAAAAAAAAAAAAAAAAAAAAAAAAAAAAAAAAAAAAAAAAAAAAAAAAAAAAAAAAAAAAAAAAAAAAAAAAAAAAAAAAAAAAAAAAAAAAAAAAAAAAAAAAAAAAAAAAAAAAAAAAAAAAAAAAAAAAAAAAAAAAAAAAAAAAAAAAAAAAAAAAAAAAAAAAAAAAAAAAAAAAAAAAAAAAAAAAAAAAAAAAAAAAAAAAAAAAAAAAAAAAAAAAAAAAAAAAAAAAAAAAAAAAAAAAAAAAAAAAAAAAAAAAAAAAAAAAAAAAAAAAAAAAAAAAAAAAAAAAAAAAAAAAAAAAAAAAAAAAAAAAAAAAAAAAAAAAAAAAAAAAAAAAAAAAAAAAAAAAAAAAAAAAAAAAAAAAAAAAAAAAAAAAAAAAAAAAAAAAAAAAAAAAAAAAAAAAAAAAAAAAAAAAAAAAAAAAAAAAAAAAAAAAAAAAAAAAAAAAAAAAAAAAAAAAAAAAAAAAAAAAAAAAAAAAAAAAAAAAAAAAAAAAAAAAAAAAAAAAAAAAAAAAAAAAAAAAAAAAAAAAAAAAAAAAAAAAAAAAAAAAAAAAAAAAAAAAAAAAAAAAAAAAAAAAAAAAAAAAAAAAAAAAAAAAAAAAAAAAAAAAAAAAAAAAAAAAAAAAAAAAAAAAAAAAAAAAAAAAAAAAAAAAAAAAAAAAAAAAAAAAAAAAAAAAAAAAAAAAAAAAAAAAAAAAAAAAAAAAAAAAAAAAAAAAAAAAAAAAAAAAAAAAAAAAAAAAAAAAAAAAAAAAAAAAAAAAAAAAAAAAAAAAAAAAAAAAAAAAAAAAAAAAAAAAAAAAAAAAAAAAAAAAAAAAAAAAAAAAAAAAAAAAAAAAAAAAAAAAAAAAAAAAAAAAAAAAAAAAAAAAAAAAAAAAAAAAAAAAAAAAAAAAAAAAAAAAAAAAAAAAAAAAAAAAAAAAAAAAAAAAAAAAAAAAAAAAAAAAAAAAAAAAAAAAAAAAAAAAAAAAAAAAAAAAAAAAAAAAAAAAAAAAAAAAAAAAAAAAAAAAAAAAAAAAAAAAAAAAAAAAAAAAAAAAAAAAAAAAAAAAAAAAAAAAAAAAAAAAAAAAAAAAAAAAAAAAAAAAAAAAAAAAAAAAAAAAAAAAAAAAAAAAAAAAAAAAAAAAAAAAAAAAAAAAAAAAAAAAAAAAAAAAAAAAAAAAAAAAAAAAAAAAAAAAAAAAAAAAAAAAAAAAAAAAAAAAAAAAAAAAAAAAAAAAAAAAAAAAAAAAAAAAAAAAAAAAAAAAAAAAAAAAAAAAAAAAAAAAAAAAAAAAAAAAAAAAAAAAAAAAAAAAAAAAAAAAAAAAAAAAAAAAAAAAAAAAAAAAAAAAAAAAAAAAAAAAAAAAAAAAAAAAAAAAAAAAAAAAAAAAAAAAAAAAAAAAAAAAAAAAAAAAAAAAAAAAAAAAAAAAAAAAAAAAAAAAAAAAAAAAAAAAAAAAAAAAAAAAAAAAAAAAAAAAAAAAAAAAAAAAAAAAAAAAAAAAAAAAAAAAAAAAAAAAAAAAAAAAAAAAAAAAAAAAAAAAAAAAAAAAAAAAAAAAAAAAAAAAAAAAAAAAAAAAAAAAAAAAAAAAAAAAAAAAAAAAAAAAAAAAAAAAAAAAAAAAAAAAAAAAAAAAAAAAAAAAAAAAAAAAAAAAAAAAAAAAAAAAAAAAAAAAAAAAAAAAAAAAAAAAAAAAAAAAAAAAAAAAAAAAAAAAAAAAAAAAAAAAAAAAAAAAAAAAAAAAAAAAAAAAAAAAAAAAAAAAAAAAAAAAAAAAAAAAAAAAAAAAAAAAAAAAAAAAAAAAAAAAAAAAAAAAAAAAAAAAAAAAAAAAAAAAAAAAAAAAAAAAAAAAAAAAAAAAAAAAAAAAAAAAAAAAAAAAAAAAAAAAAAAAAAAAAAAAAAAAAAAAAAAAAAAAAAAAAAAAAAAAAAAAAAAAAAAAAAAAAAAAAAAAAAAAAAAAAAAAAAAAAAAAAAAAAAAAAAAAAAAAAAAAAAAAAAAAAAAAAAAAAAAAAAAAAAAAAAAAAAAAAAAAAAAAAAAAAAAAAAAAAAAAAAAAAAAAAAAAAAAAAAAAAAAAAAAAAAAAAAAAAAAAAAAAAAAAAAAAAAAAAAAAAAAAAAAAAAAAAAAAAAAAAAAAAAAAAAAAAAAAAAAAAAAAAAAAAAAAAAAAAAAAAAAAAAAAAAAAAAAAAAAAAAAAAAAAAAAAAAAAAAAAAAAAAAAAAAAAAAAAAAAAAAAAAAAAAAAAAAAAAAAAAAAAAAAAAAAAAAAAAAAAAAAAAAAAAAAAAAAAAAAAAAAAAAAAAAAAAAAAAAAAAAAAAAAAAAAAAAAAAAAAAAAAAAAAAAAAAAAAAAAAAAAAAAAAAAAAAAAAAAAAAAAAAAAAAAAAAAAAAAAAAAAAAAAAAAAAAAAAAAAAAAAAAAAAAAAAAAAAAAAAAAAAAAAAAAAAAAAAAAAAAMBqkcYaAAAA6EF79+7dPDExcV1ZlteFblWPpGnaDHUz9JtT27FUjlUlvHYsvHZBO9QPh/7nQv25RqPxuTvvvPOR6gcAAACApSWcBwAAgB6wa9eujWmaPr8syxtC91wYH8pw9foSejSUybA+1neF/9kfP3jw4JOTrwIAAACLQjgPAAAAV8BLXvKSgUOHDt3carVeFLpVuSmUvuq1HjAeyu2hfKRer39kbGzstg9+8IOnJ18BAAAAFkQ4DwAAAMtk9+7d17bb7R8IzW8ry/JbQr1+8oXedzJN078I9Ydrtdp777nnns93hgEAAIBuCecBAABgCd18883DJ06ceGVZlj8cus/rjK54n0jT9Hc2bNjw7ttuu606Fh8AAACYh3AeAAAAFtnevXv7JiYmvrvdbleB/MtC6Z98YSEa9SQdzpLapmZS25wn6eDGMFsjSasy0HeunYR2OhDqoDw9kSSnx5PyTKhDKae2H38yaT9yNGkfOZaUjx5PkonW5M8s0JlQ3ler1X6n0Wi8/84776yOwwcAAABmIJwHAACARXLTTTeNnjx58qfLsvzR0N3UGe1emm9I6tdsSWpjg0m6KZ8M5NNiQ3x1aZRPnOgE9UeOJu1DjyetBx9KyqMn4quX5Eiapu9Yv379v7v99tsPxzEAAAAgEs4DAADAZbrxxhufevr06deH5mtCWTc52IV047qk/rQtSS2Uqk6HNsZXrqzysSeT1hcfStqhVHX55Kn4Sleqi98+MDDwa3fcccdXOkMAAACAcB4AAAAWaM+ePTsmJibeEJqvDqVvcnAetdHBpLFre1J7+tjkMfUrweQx+A8cSibu+1LSPvx4HJ1XdcT9OxuNxq/cfffdD3SGAAAAYO0SzgMAAMAl2r1797XtdvuXyrJ8RejWO6OzS5vrk8azrk7q129PaluKOLoytR96Imnd96Vk4tNfTspjJ+PonFppmr6nVqsduOeeez4fxwAAAGDNEc4DAABAl26++eb1J06c+IWyLH82dAc6ozNL+xpJ7bqrksaup00+Rz5JV9lX8LKcfD79xMEvJq3Pfi1JJlrxhVmdTtP0zRs2bHjTbbfd1lWqDwAAAKuJcB4AAAC6sGvXrpeVZfmW0LymMzKzdKAvadz49KRx0zcn6YY58/tVozxxOpm4/S+TiTu+kJSnq9Ps5/RgmqY/dfDgwffFPgAAAKwJwnkAAACYw549e7a3Wq3/WJbl98WhGaXr+5PGc69NGs/ZkaTr+uPo2lKeOpNMfOqBZOKTn0/Kk2fi6MzSNP2f9Xr9tXffffeX4hAAAACsavM+Fw8AAADWov3799cbjcbPtdvt94Tu9Z3R6dJsXdJ/y19L+r//pqT+TaNJ2li7X7Wr/9vr20eSxo07ktr6gcnn0ydnJuKr0zwj/LP98bGxsfYtt9zyifvvv7+M4wAAALAq2TkPAAAAF7nhhhu2jo+P/7fQfGFnZAb1WtJ43nVJ/wuemSRrOJCf00QrOfOxzyQTn/hckrTacXBGH+3r6/uhu+666xuxDwAAAKuOcB4AAACm2L1794tbrda7QnNLZ2S6+tPHkv7v3JOkw1kcYS7lo8eTMx+8K2n91eE4MqOH6vX6q+65554/in0AAABYVfxpPwAAAATxGPt/0W63bw3dGVP3Wr4h6XvZjUn/X79+8hnzdGfyefzXb0/SkSIpv/ZoUp4ej69cYGNZln97bGys/5ZbbvlTx9wDAACw2tg5DwAAwJq3Z8+eq1qt1u+WZXlLHLpQmiZ9N31z0rdvZ5L0NeIgCzI+kYz/6f3J+O1/mSTlzPl7mqZ/Vq/Xf/Duu+/+ehwCAACAFU84DwAAwJq2a9eum8qy/MPQHOmMXChtrk8GXn5TUrt6xpdZoPaXH05O/97tSXnsZByZ5uE0Tb/n4MGDt8c+AAAArGjCeQAAANas66+//qWhem8oGyYHLjL5bPnve26SbhiIIyym8sTp5Mz//GTS+sKhODLNiVB+4L777vtApwsAAAArl2fOAwAAsCY9+9nPflVZlu8OzenJe3WM/V9/VtL/XXuT1DH2S6b6Z1s9iz6p15L2lx6OoxfoC+WVW7duffDw4cMHO0MAAACwMgnnAQAAWHN27dr102VZvjU0p30vnjzG/pXP74TGLIv61SNJ7WkjSfuvDifJmYk4ek4tvFcvHxsbO3b48OFPxDEAAABYcRxrDwAAwJpRlmX67Gc/+1dD/bNx6AK1saFk4AdfkKQb18URllP55Knk9O9+LGkfeiyOXChN0zffe++9PxfqMg4BAADAiiGcBwAAYE2ogvldu3b9Vmj+aGfkQrVrtiTrXvH8JHGM/ZU1PpGces/Hk/aDD8WBC6Vp+vZ77733xwX0AAAArDTCeQAAANaEXbt2/dpsO+brO5+aDHz/c5OkVosjXFHtdnL69z+ZtO7/Shy4ULWD/uDBg6+PXQAAAFgRPHMeAACAVS8+Y/6XYvcCjefsSAZedqNgvpekadJ4xlOS8tSZpP31R+PgBZ7vGfQAAACsNMJ5AAAAVrVnP/vZryrL8q2hOe30uL4XPivpf9H1k2EwPSa8J/UdWyf/aKL9xRmPuP+OrVu3fuHw4cMHYx8AAAB6mnAeAACAVev6669/aVmW7w7Nad9/q2C+7wXPjD16Vf3qkdkC+jS8t987Ojp6x0MPPfRAHAMAAICeJZwHAABgVdq1a9dNoXp/KAOTA1NUR9lP7phnRagC+vLkjEfcV88iePnY2NiHDx8+/LXOEAAAAPQmD9QDAABg1dmzZ89VZVn+YWhu6IycV9/51KT/O3bHHitF9Z5V790MNlTvdfWexz4AAAD0JOE8AAAAq8r+/fvrrVbrd0NzpDNyXu2aLcnA9z/XM+ZXovCeVe9d9R7OYKR6z6v3PvYBAACg5/jSCgAAwKrSaDT+RVmWPxy759TGhpJ1f/uWcIGvwitWmiaNZ25LWl84nJTHT8XBc7YfOXKkfvjw4Y/EPgAAAPQUdyQAAABYNXbv3v3idrt9a2hesDU+ba5P1v2dFybpuv44wopVryX1665KWv/nK0lyZiIOnvOCq6666hOHDh36q9gHAACAnuFYewAAAFaFG264YWur1XpXaF74XTdNk/6X35SkG9fFAVa66r2s3tMZHk9Qq9ZAtRZiHwAAAHqGcB4AAIAVr3rW+Pj4+H8LzWkPJO974bOS+tXTHj/PCle9p9V7O4Mt1Vrw/HkAAAB6jS+qAAAArHiNRuPnQvWaTu+8+tPHkv7v2ht7rDb1qzcn7a89mpSPHY8j5zztyJEjJw8fPvyx2AcAAIArbtr5bwAAALCS7NmzZ/vExMT9obmhM9Ix+Zz5H3txkm4YiCOsRuWJ08mp3/qjpDx2Mo6cc6LRaOy8++67vxT7AAAAcEU51h4AAIAVrdVqvSVUFwTzk8+Z//6bBPNrQPUeV+/1DM+f3xDXBgAAAPQEx9oDAACwYu3atetlZVn+Uuye03fzdUnjhm+KPVa72uDGJDkzkbS/eiSOnHPd2NjYnYcPH/7L2AcAAIArxs55AAAAVqSbb755fVmW03ZG1/INSd++nbHHWlG959V7f7FqjVRrJXYBAADgihHOAwAAsCKdOHHiF0J1Tad3XuPFz06SvkbssWaE93zyvZ/umrhWAAAA4IoSzgMAALDi7N69+9qyLF8fu+fUnz6WNJ65LfZYa6r3vloDFwtr5WerNRO7AAAAcEUI5wEAAFhx2u129Zz5/k4vqteS/u/cEzusVZNrIKyFiwzENQMAAABXjHAeAACAFWXPnj07yrJ8Reye03jedUk6nMUea1W1Bqq1cLFqzVRrJ3YBAABg2QnnAQAAWFEmJibeEKp6p9eRZuuS/hc8M/ZY66q1UK2Ji9Tj2gEAAIArQjgPAADAinHjjTc+NVSv7vTO67v5uiRpXJDXs5aFtTC5JqZ7dVxDAAAAsOyE8wAAAKwYp0+ffn2o+jq9jnR9f1K/4ZtiDzqqNVGtjYv0xTUEAAAAy044DwAAwIpw0003jYbqNZ3eeY3nXpuk/Y3Yg45qTVRrYwaviWsJAAAAlpVwHgAAgBXh5MmTPx2qCx4kng70JY3n7Ig9uFC1Nqo1cpF1cS0BAADAshLOAwAA0PP27t3bV5blj8buOY0bdyTpumlHl8Okam1Ua+Ri1Vqq1lTsAgAAwLIQzgMAANDzJiYmvjtUmzq9jrSvkTRumvHYcjhnco006rF3zqa4pgAAAGDZCOcBAADoee12+4dj85zadVcl6YaB2IOZVWuk/oynxN55M60pAAAAWErCeQAAAHrazTffPByql3V65zV2PS22YG6zrJWXxbUFAAAAy0I4DwAAQE87ceLEK0N1wYPl0+b6pH7NltiDuVVrpVozF+mPawsAAACWhXAeAACAXvfqWJ/TeNbVSZKmsQfzCGtlcs1cpCxLR9sDAACwbITzAAAA9Kzdu3dfW5blzbF7Tv367bEF3ZllzTyvWmOxDQAAAEtKOA8AAEDParfbPxCb59RGB5PaliL2oDvVmqnWzsVmWmMAAACwFITzAAAA9LJvi/U5jV12zbMwjZl3z09bYwAAALAUhPMAAAD0pJe85CUDZVl+S+yeU3v6WGzBpantmL52qjVWrbXYBQAAgCUjnAcAAKAnHTp0qHrW/PpOryPduC6pbc5jDy5NtXaqNXSR9XGtAQAAwJISzgMAANCTWq3Wi2LznPrTtsQWLMxMa2imtQYAAACLTTgPAABAr5oWmNaE81ymWdaQcB4AAIAlJ5wHAACg5+zatWtjqG7q9M6rPW0ktmBhZjl94aa45gAAAGDJCOcBAADoOWmaPj9UfZ1eR5pvSGpDWezBwqRDGyfX0kX64poDAACAJSOcBwAAoOeUZXlDbJ5Tv8aR9iyOmdbSTGsOAAAAFpNwHgAAgF50XazPqY0NxRZcntrYYGxdYNqaAwAAgMUknAcAAKDnlGU5LShNNzVjCy5PuimPrfNmWnMAAACwmITzAAAA9KLpO+eF8yySWdaScB4AAIAlJZwHAACgp+zdu3dzqIY7vahRT9JiQ+zA5ZlcS2FNXWQ4rj0AAABYEsJ5AAAAesrExMT0I+2Hs9iCxTHTmppp7QEAAMBiEc4DAADQU2Z69rcj7VlsM60pz50HAABgKQnnAQAA6DXTw/nNeWzB4phlTQnnAQAAWDLCeQAAAHrNllifkw5ujC1YHLOsqWlrDwAAABaLcB4AAICeUpbltPPG0/5GbMHimGlNzbT2AAAAYLEI5wEAAOg10wPSgb7YgEUy85oSzgMAALBkhPMAAAD0muk75wfsnGdxzbKmhPMAAAAsGeE8AAAAPSVN0yw2z+sTzrPIZlhTM649AAAAWCTCeQAAAHqKZ86zHDxzHgAAgOUmnAcAAKDXTA9IPXOexeaZ8wAAACwz4TwAAAC9ZvrOec+cZ5F55jwAAADLTTgPAAAAAAAAAEtMOA8AAECvORbrc8rTE7EFi2OWNTVt7QEAAMBiEc4DAADQa6YHpKfHYwMWycxrSjgPAADAkhHOAwAA0FPSNJ2+c/6MnfMsrpnW1ExrDwAAABaLcB4AAICeUpbl9IBUOM9im2FNzbj2AAAAYJEI5wEAAOg103fOO9aeRTbLmhLOAwAAsGSE8wAAAPQUx9qzHBxrDwAAwHITzgMAANBrjsf6POE8i82x9gAAACwz4TwAAAC95qFYn1M+/mRsweKYaU2lafpwbAIAAMCiE84DAADQaz4X63PajxyNLVgcs6ypaWsPAAAAFotwHgAAgJ6Spun0cP6I08ZZXDOtqZnWHgAAACwW4TwAAAA9pdFoTAtIy0enP4YeLsdMa2qmtQcAAACLRTgPAABAT7nzzjsfCdWjnV400UrKJ07EDlyeybUU1tRFHo1rDwAAAJaEcB4AAIBe5Gh7lswsa8mueQAAAJaUcB4AAICeM9Ozv0vhPIukPHI0ts7zvHkAAACWmnAeAACAXjR95/yhx2ILLk/70OOxdQHhPAAAAEtKOA8AAEDPSdP0rtg8p/XgQ7EFl2emtTTTmgMAAIDFJJwHAACg55Rl+fFQjXd6HeXRE0n52JOxBwtTraFqLV1kPK45AAAAWDLCeQAAAHrOwYMHqxT+9k7vvNYX7Z7n8syyhm6Paw4AAACWjHAeAACAXvWRWJ/TFs5zmWZZQ9PWGgAAACw24TwAAAA9qV6vTwtM7Zzncs20hmZaawAAALDYhPMAAAD0pLGxsdtCdbLT6yifPJW0Hzkae3BpqrVTraGLnIxrDQAAAJaUcB4AAICe9MEPfvB0mqZ/EbvntL9wKLbg0rQfmL52qjVWrbXYBQAAgCUjnAcAAKCXfTjW50wc/FJswaWZuG/GtTNtjQEAAMBSEM4DAADQs2q12ntj85z24ceT9kNPxB50p1oz1dq52ExrDAAAAJaCcB4AAICedc8993w+VJ/o9M5rzbwDGmY1y5r5RFxjAAAAsOSE8wAAAPS0NE1/JzbPmfj0l5OkLGMP5hHWyuSauchMawsAAACWinAeAACAnrZhw4Z3h+pMp9dRHjuZtB58KPZgbtVaqdbMRc7EtQUAAADLQjgPAABAT7vtttseDdX7Or3zJg5+MbZgbrOslffFtQUAAADLQjgPAABAz6vVatOOH29/7utJeeJ07MHMqjXS+uzXYu+8mdYUAAAALCXhPAAAAD2v0Wi8P1RHOr2Ocnwimbj987EHM5u4/S/D/9eKvXOOxDUFAAAAy0Y4DwAAQM+78847x9M0fUfsnjNxxwNJeeqCx9HDOdXamLjjC7F3XrWWqjUVuwAAALAshPMAAACsCOvXr/93oTrV6XWUp8eTiU89EHtwoWptVGvkIqfiWgIAAIBlJZwHAABgRbj99tsPh+rtnd55E5/8fFKemYg96KjWRLU2ZvD2uJYAAABgWQnnAQAAWDEGBgZ+LVQXbIUuT55JWnf9VexBR7UmqrVxkfG4hgAAAGDZCecBAABYMe64446vhOqdnd5547d9LkkmWrHHmhfWwuSamO6dcQ0BAADAshPOAwAAsKI0Go1fCdUFSXx5/FRy5mOfiT3WumotVGviIq24dgAAAOCKEM4DAACwotx9990PpGn6ntg9Z+ITn0vKR4/HHmtVtQaqtXCxas1Uayd2AQAAYNkJ5wEAAFhxarXagVCd7vSiVjs586G7Y4e1anINhLVwkdNxzQAAAMAVU481AAAArBiHDh16dGxsbCA0b+mMdJSPHU/SkSKpjeRxhLVk4jNfTSY+/tnYOy9N01+599573xu7AAAAcEXYOQ8AAMCKtGHDhjeF6sFO77yJP7o3ScYnYo81I7znk+/9dA/GtQIAAABXlJ3zAAAArEhf/epXJ8bGxr4Qmj/UGekoT48nSatM6t80GkdYC8b/5NNJ6wuHYu+8NE1ffeedd94fuwAAAHDF2DkPAADAinXw4MH3pWn6P2P3nPHb/zJpf/nh2GO1q97r6j2/WLU2qjUSuwAAAHBFCecBAABY0er1+mtDdaLTi8oyOf17tyflidNxgNWqeo+r97p6zy9yIq4NAAAA6AmOtQcAAGBFO3To0BNjY2Pt0Pz2zkh0ZiIpH3oiaVy/PQ6wGp157yeS9qHHY++8NE3feO+9974/dgEAAOCKs3MeAACAFe+66657c6g+2umdVz2DfPzjn4k9VpvqvZ3pOfPBR+OaAAAAgJ6RxhoAAABWtBtuuGHr+Pj4PaG5pTMSpWky8MP7kvrVI3GA1aD15YeT07/zpzMdZ/9QX1/f7rvuuusbsQ8AAAA9wc55AAAAVoUqjK3X668KzeqI+/PKMjlTPX/+yVNxgJWuei+r93SGYL5drQHBPAAAAL3IM+cBAABYNQ4dOvRXY2Nj/aF5S2ckOjORtL/4cNK4/urwTdjfqa9o4xPJ6Xf9WVI+eiwOnJem6Zvuvffet8cuAAAA9BR3JAAAAFhVrrvuugNpmv5Z7J7TPvRYcuo9Hw+NCzfWs4KE9656D6v38mLVe16997ELAAAAPccz5wEAAFh19uzZc9XExET1/PlpD5qv73xqMvDymyafRc8KUpbJ6d+7PWnd/5U4cIGHG43G7rvvvvvrsQ8AAAA9x7H2AAAArDqHDh06NjY2Vu2e/6FQ+iYHo/Lho0l56kxS37E1jrASnPnf9ySte78Yexc4kabpS+69997Pxj4AAAD0JOE8AAAAq9Lhw4e/Njo6endovjKUCx7r1v76o2GkltSvnraxnh40/rHPJBN/MWP2PhHKy++7776PdroAAADQu4TzAAAArFoPPfTQA1u3bn2wLMuXh+4F59i3v/iQgH4FqIL58Y9+OvYuUNZqtf/r4MGD/yP2AQAAoKcJ5wEAAFjVDh8+fHBsbOxYaH5nZ+S8KqAvTzrivieV5eRR9rPsmE/SNH3dwYMHb41dAAAA6HnCeQAAAFa9w4cPf2JsbGxjaD6/M3JedcR9+5FjSeO6q6rEN45yRbXbyenf/+Rsz5ivgvk3Hzx48JdjFwAAAFYEdx0AAABYE8qyTJ/97Ge/LdSviUMXqF2zJVn3iucnSV8jjnBFjE8kp97z8aT94ENx4EJpmr793nvv/fFQl3EIAAAAVgThPAAAAGtGDOh/NdQ/G4cuUBsbSgZ+8AVJunFdHGE5lU+eSk7/7seS9qHH4siFqh3z9957788J5gEAAFiJhPMAAACsObt27frpsiz/TWhO+16cNtcn/S+/KalfPRJHWA6tLz+cnPm925Py2Mk4coEy7Txj/t/FPgAAAKw4njkPAADAmlM9g37r1q1fKMvye0O31hmNzkwkrYNfCt+Ya0n96s1xkKU0/vHPJmf+4FNJcno8jlxgolar/V8HDx68NfYBAABgRbJzHgAAgDXr+uuvf2mo3hvKhsmBi9SfPpb0f99zk3TDQBxhMZUnTidn/ucnk9YXDsWRaU6E8gP33XffBzpdAAAAWLmE8wAAAKxpu3btuqksyz8MzRnPsZ885v77b0rq2x1zv5haX3o4OfP7sx5jX3k4TdPvOXjw4O2xDwAAACuaY+0BAABY0w4fPvy1pzzlKf9PWZbPCd3tndEpqmPu7/vSZF1/6qbJ4+65DOMTyfiffDo584G7ZjvGPknT9M8ajcaL77333s/GIQAAAFjxhPMAAACseYcOHTp2yy23/M6RI0eq78kvCGXaSXPtrx5JWvd9OUnyDUltJI+jXIqJz3w1OfPuj891jH07TdM3XXfddT/y4Q9/+GgcAwAAgFXBsfYAAAAwxe7du1/carXeFZpbOiPTTT6L/jv3JOlwFkeYS/no8eTMh+6eK5SvPFSv1191zz33/FHsAwAAwKoinAcAAICL3HDDDVvHx8f/W2i+sDMyg3otaTzvuqT/Bc9MkoaD6WY00UrOfOwzycQnPpckrXYcnNFH+/r6fuiuu+76RuwDAADAquPuAQAAAFzkG9/4xvF9+/a968iRIydD91tC6Zt8YaqyTNpffiSZuOfBJK3+35YiST2PflJZPaf/Uw8kp//HbUn7gUOT/6xmcSJN0zc+4xnP+AnH2AMAALDa2TkPAAAAc9izZ8/2Vqv1lrIsvzcOzShd3580nntt0njOjiRd1x9H15by1Jlk4lMPJBOf/HxSnjwTR2eWpukf1Ov1n7r77ru/FIcAAABgVRPOAwAAQBd27dr1srIs3xKa13RGZpYO9CWNG3ckjZuuTdINA3F0dStPnE4mbv98MnHHA0l5ejyOzurBNE1/6uDBg++LfQAAAFgThPMAAADQpZtvvnn9iRMnfqEsy9eH7pzb49O+RlK77qqksetpSf2aLdVW8fjKKlGWSevBh5KJg19MWp/92uTz5edxOk3TN2/YsOFNt912W/W4AAAAAFhThPMAAABwiXbv3n1tu93+pbIsXxG69c7o7NLm+qTxrKuT+vXbk9qWIo6uTO2Hnkha930pmfj0l5PyWFcZeytN0/fUarUD99xzz+fjGAAAAKw5wnkAAABYoD179uyYmJh4Q2i+OpS+ycF51EYHk8au7Unt6WNJbXMeR3tb+5GjSfsLh5KJg19K2ocfj6Pzqs63f2ej0fiVu++++4HOEAAAAKxdwnkAAAC4TDfeeONTT58+XR11/5pQ1k0OdiHduC6pP21LUpssI0ltKIuvLJ3bXvHPYitJbn7Pv4itC7UfO560v/hwKA8lrVDKJ0/FV7pSXfz2gYGBX7vjjju+0hkCAAAAhPMAAACwSG666abRkydP/nRZlj8aups6o91L8w2Tz6evjQ0l6aZmUgslLTbEVy/f1GB+quf8yj9MyiPHkvahxyafI18ePRFfuSRH0jR9x/r16//d7bfffjiOAQAAAJFwHgAAABbZ3r17+yYmJr673W7/cOi+LJT+yRcWolFP0uFsMqivjsFPBzcmaX8jSQb6knQg1H2NC/tBeXoiSU6PJ+WZUI9PnOt/6sCtk6/PZNeuXbF1Sc6E8r5arfY7jUbj/XfeeWd1lD0AAAAwA+E8AAAALKGbb755+MSJE68MzVeXZXlzZ/TKOHjwYGzNrpuQPk3T20L1zg0bNrz7tttue7QzCgAAAMxFOA8AAADLZPfu3de22+0fCM1vK8vyW0K9fvKFJTI1jD8bui8woD+ZpulfhPrDtVrtvffcc8/nO8MAAABAt4TzAAAAcAW85CUvGTh06NDNrVbrRaFblZtC6ateu1yzBfBTQ/cuQ/pfrtfrHxkbG7vtgx/84Ok4DAAAACyAcB4AAAB6wK5duzamafr8sixvCN3rxifGb0qT9JvrQeeK7swVul+8I76bgD787+TeAQAAACwCX7ABAACgh2zevGHr6TMn31ImSXX8fVKv1ZO+voFzpV5vJGlaS2qhpLXa5OtV//77PzP583M5m7NvvWo4GR8/PVla7VZy7In25PhchPQAAABweXyxBgAAgB5QlmWaD9V/uGyX/yl0887o/LoJ1isXZ+tZfmFfQA8AAABLy5dqAAAAuMKKom93K5l4W1Imz4lDXekyUI+tmQnpAQAAYHnUYg0AAAAss9HR0Y3NIv3nrXLijksJ5qsAvZsQ/alPfeqG2JzV8aPlZDmrWcx/q6CMYhcAAADogr90BwAAgCugKOp/vVW2/2toPrUzMr9uAvnKxTvbh4b6nvXYY+P3xe6s7KIHAACApeMLNAAAACyj4eH128YnTv16mSTfF4e6crlBeVmW1ctdpftTQ/qF/kEAAAAAcCHH2gMAAMAyOHDgQC0raj96ZuLUZy4lmK/C8cXYwR5ero6hT0dHN452RmZ38TH33R51H5sAAADADPxVOwAAACyxPG/c2E5abwvNPZ2R+S3DjvWuwnRH3QMAAMDisHMeAAAAlsimTZuazSL9V+2kdXvoLmowXwXgldhdiHT79u3rY3tW1S76i3fSz8cuegAAAJjOX7IDAADAEsjz+ne2k/Z/Cc2rOiPzW4bd8jPKhvufefzRM/fH7qzsogcAAICF8wUZAAAAFtHg4LrtE+3TvxGa39UZmd+VCuVncMlH3QvoAQAAoDuOtQcAAIBFsG/fvkaW1/7+RPt0tQN9UYP5KtyuxO5SSrOt2Uhsz+riY+7nO+q+Oua+ErsAAACwJvnLdQAAALhMzeHGzeVE622heX1nZH49tFt+Nkuyi75yBf9vAgAAgCvGznkAAABYoKIoBrM8fXM50fqL0O0qmK8C7B7bLT+bdMeOHetie1bVLvqzO+m72UVfsYseAACAtchfqgMAAMACNAfrLyvb7beH5mhnZH7dhvKx2TOam/qvO3bkzGdjd1Z20QMAAMDsfAEGAACAS5DnA09vp2fempTJi+PQvFZRUL0kR90L6AEAAFgLHGsPAAAAXdi7d29fc7D2U+3kzKe7DearYLrbcLoSu70sbV7V3Bzbszp7zH2lm6Puq2PuK7ELAAAAq5K/TAcAAIB5ZIONb03brVvLJHlmHJrXat8xHv6Z7Dv++MRHY3dWdtEDAABAhy+8AAAAMIs8z4fbybE3huZrOyPz6yaArqyGEHrnzp39999//+nYnZOQHgAAgLXOF10AAACYQVbU/0Zatqvd8vMe415ZS6H8xZqb+6899siZv4zdWQnoAQAAWMt8yQUAAIApmpv7v7k8M35raL6wMzI/QfM5XT03XkgPAADAWlSLNQAAAKxpO3bsGGgWtdeVZ8bvC92ugvkqWBYuXyAtimI4tmd1/Oj5DD/8M4+t2ZVR7AIAAMCK5C/PAQAAWPOKov6iVtn+zdC8tjMyt24C+cpa3vGdDTVecPyxiT+P3VnZRQ8AAMBaYec8AAAAa1Y2lo00i/Q3WmX7w6G7aMF8FSBXYndNOv7YxMf27t3bH7uzqnbRn91Jbxc9AAAAq5m/NgcAAGBNyvPaK9tJ+dbQHOqMzM1u+YUrioFveuKJ01+I3VnZRQ8AAMBq5kssAAAAa0o23L8znRi/tUySF8ShOQnlF1VXO96F9AAAAKxGjrUHAABgTdi+ffu6LK/9fDIxfs9iBvNVMFyJXeaWFkUx70kFCznqPjYBAACgZ7l5AAAAwKqXDTWen7Ra7wzNb+qMzM1u+aXXHGo879hjE38Ru7Oyix4AAIDVws55AAAAVq0tWzaOZkX6/yat1sdCd95gvgp/7ZZfHscem/jEvn37+mJ3VnbRAwAAsFq4kQAAAMCqU5Zlmg/VX1W2y/8UukVndG52ZV85RTHwtCeeOP1g7M7KLnoAAABWMl9SAQAAWFUGB/t2TbQn3haaN3VG5tZNyFsR9C6Lrna9nw3pvXcAAACsJL6cAgAAsCps3bp1w7EnD/9skpT/LHTrndHZCXZ70/DwcP7oo48+EbtzupSQ3vsIAADAleaLKQAAACteUdRf2Crb/zU0r+6MzE2Y2/vyvPHco0cnbo/dWTnqHgAAgJWiFmsAAABYcTZtWn9VM0//e6ts/0nozhvMV+GtAHdlOHp04pP79+9vxO6sjh8tJ0ulWcx/m6MMYhMAAAAAAACAuRw4cKDWLGp/N8vTo6GU85VuxenpMUND66o/vKjenznLpb7n4WcAAABg2dgJAAAAwIpSFH03tJKJtyVlsjcOzclO+VWlq0A98yx6AAAAepAvoAAAAKwIIyMj2akzj7yhLJOfD915zy/vJpitCGdXlk2bNjWPHDlyNHbnJKQHAACgl/jiCQAAQM/L8/p3tJP2fwnNp3RGZieUXxvyvHHj0aMTn4rdWV1KQF+xLgAAAFgq8+40AAAAgCuletZ4lqd/0E7aHwrdRQnmq/C1ErusUEePTtyxf//+RuzO6vjRcrI0i9pkmY9n0QMAAAAAAABrxv79++tZXvuJLE+Ph1LOV7oVp2eVGR5evy1U1fs7Z7FeAAAAuJLsFAAAAKCn5Hnjue2k9bbQfHZnZHaOKmeqbLD+fccfb/1+7M4q8yx6AAAArgBfMAEAAOgJw8PD+ZmJx/5paL4ulHm/rwpWmcnIyEj28MMPH4vdOQnpAQAAWE6+WAIAAHDFNQfr3122228PzbHOyOzslqcbRdG354knxu+K3VkJ6AEAAFgutVgDAADAsiuKgWuyIv1A2W6/L3TnDOar8LTbALUSu6xRTzwxfveBAwfqsTur40fLydIsapNlLvFR9J5FDwAAwIK4WQEAAMCy27dvX+Puu//877eT8ldDd31ndHZ2NXM5Nm1af9WRIye/FruzsoseAACApeSLJAAAAMsqG2o8P2m1bg3Nv9YZmV03IWlFUEo3moP1lx17vPWHsTsrIT0AAABLwRdIAAAAlkVRFEOt8ugbQ/O1ocz5fVQoz1LZunXrhm984xtPxu6cqpDeWgQAAGCx+OIIAADAksuK+svTsn1rmSQjcWhWdiuzHAYH+579+OPj98TurOyiBwAAYLH40ggAAMCSyfOBHe3kzG+G5rd1RmZnhzLLrSzLajl1tfDsogcAAOBy1WINAAAAi2bnzp39zaL2M+3kzKdDd85gvgo8u92VXIlduGxhOZVVtXnzhqs6I7M7frSsrk/Cuo4jsyuD2AQAAIBz3NQAAABgUWWDjX1Ju3VraF7XGZmdo8LpJc2h+kuPPdb6X7E7K0fdAwAAsBC+IAIAALAomlc1NyVPHv/lskx+Mg7NyvHg9Kpt27at/+pXv3oidufU7VH31jEAAAAVXw4BAAC4bHlee0U7KX8jNDd1RmYmlGelGBrqe9Zjj43fF7uzsoseAACAbvlSCAAAwIJlm/qfkY6P31omyS1xaFbCS1aasiyrJdnVX5TYRQ8AAMB8arEGAACArm3fvn1dltfekIyP3ztfMF8FlkJLVqKwJMPyTtItWzaOdUZmd/xoWV2fNIu5b7WUUewCAACwhrjxAQAAwCUpivq3t5L2W5My2RGHZtRNIF8RyrNS5Hn9O44ebX0odmfV7S76ivUPAACwdtg5DwAAQFdGRzduaebp21pl+48WI5ivQslK7ELPO3q09b+3b9++PnZn1e0u+opd9AAAAGuHmyAAAADMqSzLNB+q/+2yXf6n0B3sjM7MbmHWimy4f+fxR8/8n9idlV30AAAAnOVLHwAAALMaGup71nhr4tbQ/JbOyMyEj6xhXe187zak9+8IAADA6uVYewAAAKbZtm3b+iyvvXG8NXF36F52MF8FjpXYhdUkzcayLbE9q26Puq+Oua/ELgAAAKuIGyMAAABcIBts7Evard8Ozad1RmZmtzxcqCjq3/bEE60/jt1Z2UUPAACwNvmSBwAAwKTNmzdsPTV+8j8mZbI/Ds1IKA+z27Fjx8ADDzxwKnbnJKQHAABYWxxrDwAAsMYdOHCg1ixqP3LqzMnPLkYwXwWJldiFNeWBBx44Hao029T/zM7I7Kqj7uc75r7imHsAAIDVwc0SAACANawo+na3kom3JWXynDg0I7vlYWGyvPaTx4+2/3PszsouegAAgNXPFzoAAIA1aHR0dOOJUw+9oSyTnw/demd0OqE8XL7mVc1Nx75+7JHYnVO3m+T9OwcAALDy+CIHAACwxuR5/cXtpP2O0HxqZ2RmdvHC4iqK+gufeKL1J7E7K7voAQAAVidf4gAAANaI4eH128YnTv16mSTfF4dmZLc8LJ2dO3f233///dVz6edlFz0AAAAAAACsIPv3769nee3vZXl6LJRyttKtOC1wGZqb+68NVfXv07ylG+E6AAAAepy/rAYAAFjF8rxxYztpvS0093RGZuYIbbgysqL248efaN8au7PKHHUPAACw4vnCBgAAsApt2rSpeWb80X9aJsnrQrfWGZ3OEfZw5eV5Pnz06NEjsTunbjbJ+/cVAACgN/myBgAAsMo0h+rfVbbavxWaV3VGphPKQ+/JBhvfevzxiT+L3VnZRQ8AALAyzbp7AgAAgJVlcHDd9ixP31+22u8P3csK5qtQrxK7wDI4/vjEn+/du7c/dmd1/GhZ/Tsae7PzLHoAAAAAAABYRPv27Wvkee0fZnn6ZCjlbKVbcVrgCsrzgaeHqvr3cd7SjXAdAAAAV5hdEAAAACtYc6jxvLLVujU0r++MTOcIe1i5sqL2o8efaL89dmfVbf7u33MAAIArxxcyAACAFagoisFWefSNofmPQ5n1u53nUsPKV/37/sQTTzwWu3PqJqT37zwAAMCV4csYAADACpMV9e9PyvZvhuZoZ2Q6u+Vh9WkONb7l2GMTH4/dWWV56g9zAAAAAAAAYKGqZ1BnRfq/L36W/NTSrTglsMLs27evEarJZ83PV7oRrgMAAAAAAAAqe/fu7WsWtZ/O8vTkxWH81NKNOCWwwhXFwDWhuiCMn610I1wHAADAEnN8GQAAQA/LBhvfmrZbt5ZJ8sw4NI0j7GHtyvPaK44ebb87dmfVTf7udwQAAMDS8qULAACgB+V5PtxOj/1yUib/IA5NI5QHKkNDQ8Vjjz32eOzOSUgPAABw5fiyBQAA0GOyor4/Ldu/USbJ5jg0TTfBvIAN1pbmcOOmY49O3Ba7s+r2FHu/QwAAABZXLdYAAABcYc3N/d+c5elHkrL9ntmC+SqUF8wDMzn26MTt+/bt68vy2hvj0IyqXw/d/IrwLHoAAAAAAABWlR07dgxkee3nsjw9HUo5U+lWnBJY4wYH120PVfU7Yc7SrXAtAAAAl8lOCgAAgCuoKOovapXt3wzNazsj09kpDyxUVtT/5vEnWu+N3Vl1k7/7PQMAAHB5fKkCAAC4ArKxbCQ98eS/LJPkx+PQNN2E8hWBGTCXTZs2NY8cOXI0duckpAcAAFg6vkwBAAAso7Is06Ko/1A7Ld+SlMlwHL6AUB5YCnneeM7RoxOfjN1ZCegBAACWRi3WAAAALLFsuH9nXtT+rJ2U77qcYL4KxSqxC9CVo0cnPrV///5Gltd+IQ7NqPr1Mt+vmDKKXQAAALrgZg4AAMAS2759+7ojj33lZ5Ok/Geh29cZvZDd8sByGhpa99THHjv15didVTf5u99LAAAA3fHlCQAAYAllg41bknbr/w7Nb+qMXEgoD1xJWVH//uNPtH4vdmclpAcAALh8vjQBAAAsgZGRDWMnz5z890mZ/K04NE23R9jHJsCSGBkZyR5++OFjsTurbk+x93sLAABgZr4sAQAALKKyLNN8sP53Qv0fQrfojF7IbnmgFxVF3w1PPDF+Z+zOyi56AAAAAAAArqjBwb5dWZ7eFko5U+lWnA5g2R04cKCWFbXXh2b1u2jW0q1wLQAAAJG/YgYAALhMW7du3XD8xKE3lGXy86Hb6IxeyBH2wEoyPLz+KY8+evKrsTurbvJ3v9sAAAA6fDkCAAC4DEVR//ZW2X57aG7vjFzIEfbAStYcrH/PscdbfxC7sxLSAwAAzM+XIgAAgAWodpWOT5x6S5kkfyMOXUAoD6wWo6OjGw8fPnw8dmcloAcAAJhbLdYAAAB0IT6P+cfPTJz6zOUE81VAVYldgJ51+PDhJ0OVDg727e6MzKz6lTbfr7XqOfSV2AUAAAAAAIDpiqLvhqxI78jytJypdCtOB7DiVH+g1CxqPx2a1e+yWUs3wnUAAABril0aAAAA8xgZGclOnXnkn5Zl8rrQrXdGz3OEPbDWbN68Yesjj5z4euzOqpsM3u9GAABgrfDlBwAAYA7NofpLy1b7t0LzKZ2RC3V7hH1sAqwq1e/IY4+1/lfszqjbTfJ+VwIAAKudLz0AAAAzGBpad/V46/Svh+b3dEYuZLc8QMfWrVs3fOMb36ieSz8nu+gBAAAAAAA4Z//+/fU8r/2DLE+PX/xM+ap0K04HsGYMDvZdH6rq99+spVvhWgAAAAAAAFarPG88N8vTey4O5M+WbsSpANak8GswbQ7WXls15yrdCNcBAACsKo4KAwAA1ryhoaFivPX4G0PzH4dSmxycwhH2AJdmy5aNow899OSh2J1VNxm8360AAMBq4csNAACwpmWD9e9L2u3fDM2xzsh5QnmAy5Pn9e84erT1odidkYAeAAAAAABgFSuKgWuyIv3ATMfXV6UbcSoA5rBt27b14ffqvw3NySPtZyvdCNcBAAAAAACwEuzdu7evWdT+SZanJ6aG8WdLt+J0AHQpG+7fGaoLAvmLSzfCdQAAAAAAAPSybKjx/CxPP31xIF+VbsWpAFiA8Gs0zfPaP6iac5VuhOsAAAAAAADoJUVRDGVF+p+yPG1fHMpXpRvVjvs4HQCXaXR045ZQTQvlp5ZuhWsBAAAAAAC40rKi/gNZnh6+OJCvSrfiVAAssqKof1uoLgjlLy7dCNcBAAAAAABwJTQ391+b5ekfXxzIV6VbcSoAltCOHTsGmnn6q6F5QSg/tXQrXAsAAAAAAMBy2LlzZ39W1F6f5empi0P5qnSjKIrBOB0AyyTb1P+MUE0L5qeWboTrAAAAAAAAWEpFUX9hlqefvTiQr0q34lQAXCFZXvuJUF0Qyl9cuhGuAwAAAAAAYDFlW7PNzSL9zcsJ5fft29eI0wFwhVW/10M1LZSfWroRrgMAAAAAAGAx5Hnth7I8feTiUL4q3RgcXLc9TgVAj6lORAnVtGB+aulGuA4AAAAAAICFqJ5N3MzTP11oKF+JUwHQw3bu3NnfLNI3heYFofzU0o1wHQAAAAAAAN3avn37uiyv/dMsT08vNJTftGlTM04HwArR3Nz/zaGaFsxPLd0I1wEAAAAAADCXoqh/e1akn784lO82mM/zxo1xKgBWqKyovSZU04L5s6Vb4VoAAAAAAACmGh3duCXL0/9ycSBflW7t37+/HqcDYIXL83w4VNOC+amlG+E6AAAAAAAAyrJMm4O1v5Pl6WMLDeWHh9dvi9MBsMpkg41vDdW0YP5s6Va4FgAAAAAAYG0aGup7VpanH784lK9KN5qD9e+NUwGwiu3cubO/WaS/HJrTwvmzpRvhOgAAAAAAgLVj27Zt65tF+ktZno4vJJSvjI6ObozTAbBG5PnAjlBNC+anlm6E6wAAAAAAAFa3oqh/W5anDy40lC+Kvt1xKgDWqGZR+5FQTQvmz5ZuhOsAAAAAAABWn82bN2zNivQ9F4fy3QbzzaL20wcOHKjF6QBY44qiGArVtGB+aulGuA4AAAAAAGDlqwL1rKj9WJanTywklK9UwX6cDgAukA01nh+qacH82dKNcB0AAAAAAMDKVR1BnxXpJxcayjeH6i+NUwHArPbu3duX5bUDoTktnD9buhGuAwAAAAAAWDlGR0c3Nov0X2d5OrGQYD5c9++3bdu2Pk4HAF0pioFrQjUtmD9buhWuBQAAAAAA6G15Xn9JlqdfnhrIV6VbQ0N9z4pTAcCCNAdrPxyqaeH82dKNcB0AAAAAAEDvGR5ev62Zp7+30FA+z2v/KFRpnA4ALsvQ0FAR/jv0jtCcFs6fLd0I1wEAAAAAAFx5+/fvr2d57SezPD02NZSvSjeaefr/jY5u3BKnA4BF1Rxu3ByqacH82dKNcB0AAAAAAMCVk+eNG7M8vWshoXylKOrfHqcCgCWzb9++RpbXfjE0p4XzZ0s3wnUAAAAAAADLZ3h4OM/y9N+E0lpIKN/M01/dvn37ujgdACyLwcF120M1LZg/W7oRrgMAAAAAAFh6zcH692Z5+rWpoXy3wXwzT/8029T/jDgVAFwRWVH/gVBNC+fPlm6E6wAAAAAAABZfUQw8LcvT9y0klK9kee3vxakA4IqrToFp5umtoTktnK9Kt8K1AAAAAAAAl696Tm+zqP3jLE+fXFAoX6T/LduabY7TAUBPyfPGc0I1LZw/W7oRrgMAAAAAAFi45lDjeVmeHpwayncbzIfrPpsNNvbFqQCgZ+3fv7+e5bU3hOa0cL4q3QrXAgAAAAAAdK8oisGsSN+S5Wn7UkP5SrNI/+XOnTv743QAsCIMDa17aqimhfNnSzfCdQAAAAAAAPPLivrfzPL00EJC+XDtHzc3918bpwKAFSn8t/DloZoWzp8t3QjXAQAAAAAATJfnA0/PivRDU0P5boP5cN3hZlH7u3EqAFjxRkZGsmaR/kZoTgvnq9KN7du3rwvXAgAAAAAAJMnevXv7mkXtZ7M8PXmpoXwlXPvbRVEMxekAYFUpir69oZoxoK9KN8J1AAAAAADAWpYNNr61maf3LzCU/3Q21Hh+nAoAVq0DBw7UmkXtdaE5LZyvSjdGRzduCdcCAAAAAABrSZ7nw80ifWuWp+1LDebDdSeyvPbGasd9nA4A1oTh4fVPCdWMAX1VupSGawEAAAAAgNUuz2s/2MzThy81lK9kRfqBohi4Jk4FAGtSc7D+PaG6nIC+uhYAAAAAAFiNmpv6r8vy9CMLCuXz9OvNwdqr4lQAsOaNjo5uzIr0LaE5LaCvSje2bdu2PlwLAAAAAACsBjt27BjI8tovZnl66lKD+XBdq5mnvzU0NFTE6QCAKYqib3eoFhzQV8K1AAAAAADASlYU9Rdlefq5Sw3lK+Hae/K88dw4FQAwiwMHDtSaRe2fhOa0gL4q3RgZ2TAWrgUAAAAAAFaSbCwbyfL0HQsM5Y9nee3n9+/fX4/TAQBd2LRp/VWhmjGgr0qX0nAtAAAAAADQy6ob+s3B2quzIj1yqcH85LVF+oGhoXVXx+kAgAVoDtW/K1QLDugHB/uuD9cCAAAAAAC9KBvu39nM0z+/1FC+Eq79SlbUXx6nAgAu09atWzeE/77++9BccEhfzRGuBQAAAAAAesG2bdvWN4v0n2d5emYBofxE+Nn/PDIyksXpAIBFNDjYtytUCw7o4y58AAAAAADgSsrz+ndmefqFs6F8t8H85LVFekdR9N0QpwIAlkj4T2+a57V/VDVnKt3YvHnD1nAtAAAAAACwnEZGNoxlefrOSw3lK+Hao82i9jMHDhyoxekAgGVQ/fe7mafvDc0FBfQV//0GAAAAAIBlUJZlmhW112R5+vgCQvmq/MHw8PqnxOkAgCugOvkmVNMC+qp0oyj6dodrAQAAAACApVA9szbL00+cDeWr0o147Rebg/WXxakAgCts27Zt68N/n98cmgsK6Cujo6Mbw/UAAAAAAMBi2Lp164Zmkb4py9PxGLTHW/Lziz/zH6o54nQAQA8ZGur7a6GaFtBXpRvNofpLw7UAAAAAAMDlqI69zfL0iwsI5avyiWq3fZwKAOhR4T/daZbXfrJqzlS64bE1AAAAAACwANUN9mae/vezoXy3wXy89vHmYO2nQjeN0wEAK8Do6MYtWZG+OzQXFNBXAf+BAwdq4XoAAAAAAGAu1Q31LK/9/SxPj15KKF+prm3m6XtHRjaMxekAgBWoKOrfHqppAX1VulEUfTeEawEAAAAAgJlUN9KzIr1jIaF8KF+ojsCPUwEAK9z27dvXNYv0V0JzQQF9+Gzw5pGRkSxcDwAAAAAAVDZt2tSsbqCHMhGD9nhbfW7x2jOh/Nq2bdvWx+kAgFUkG+5/ZqimBfRV6UZzsP6ycC0AAAAAAKxt1Q3zLE+/EoP2eBt9ftW1zTz982y4f2ecCgBYxbKi9uOhWlBAXxkaWvfUcD0AAAAAAKwtQ0Prrs7y9A8WEspnRXoky2s/EbppnA4AWAOyrdnm8Dng/wnNBYX0eV77R/v376+H6wEAAAAAYHWrbog3B2uvzfL0+KUE82evzYr0d7OxbCROBwCsQUVR/+uhWlBAX8nzxnPC9QAAAAAAsDo1hxs3ZXl6z6WE8pV4/eeKov6iOBUAsMbt2LFjoFmk/zI0FxTSh88W/354eDgP1wMAAAAAwOowNDRUZHn6H0NpVUF7t6prQznVLNJ/Vd2Aj9MBAJzT3Nz/zaGaFtBXpRtZUf/+cC0AAAAAAKxsWVH/G1mefj0G7fE2+NzOXhvKR+INdwCAOWVF7UdDtbCAPk/fNzi4bnu4HgAAAAAAVpaiGLgmK9IPnA3au1Vd28zTh+MNdgCArjWvam4KnyXeGZoLCumbRe2f7Nu3rxGuBwAAAACA3rZ3796+ZlF7XZanJy41lA+lHcp/zfN8OE4HAHDJssHGLaFaUEAfPovc2xxu3ByuBwAAAACA3pQNNZ6f5emnY9Aeb3HP7ey1zTy9PxtsfGucCgDgsuzcubO/WaS/FJoLC+mL9C1DQ0NFuB4AAAAAAHpDURRDzSL9jayz8z3e0p5fDOZPZnntQLXjPk4HALBo8nxgR/i88UeheckBfSUr6n8zXA8AAAAAAFdWntdemeXp4QWE8tWOtA/l+cDT41QAAEumOVj7O6G6IKCvSjfCZ5YPFMXANeF6AAAAAABYXs3N/ddmefrHZ4P2bpwL5fP0UHOw9sNxKgCAZVGd9hM+h/yX0FxQSN8saq9z2g8AAAAAAMuien5rltd+IcvTU1XQ3q0Yyrebefr2oigG43QAAMsuG2o8P1QLCujD55n7mkONbwnXAwAAAADA0iiK+gubefqZBYTyVTnYHGo8L04FAHBFVTvgs7z2z0JzQSF9s0h/o9qJH64HAAAAAIDFkW3NNlc73s8G7d2YEso/We2037dvXyNOBwDQM4pi4JuyIv1gaF5yQB8+5xzO89orw/UAAAAAAHB5qmfDZ3n6SBW0dyuG8lV5X1EMPC1OBQDQs8JnnleF6oKAvirdyIr0f+f5wNPD9QAAAAAAcGmyTf3PaObpny4wlP9antf+VpwKAGBFKIpiMHz++a3QvOSAvpLltTfs3LmzP/wMAAAAAADMbfv27euyvHYgy9PT3QbzU0L5VvX81eHh4TxOBwCw4jSHGs8L1QUBfVW60czT+7PBxreG6wEAAAAAYGZFUf/2rEg/320oX5kSzN+V540b41QAACvavn37Glle+4XQvOSAvtLM01vzPB8OPwMAAAAAAB2joxu3ZHn6XxcYyh9rFrXX7d+/vx6nAwBYNYpi4Gnh8877Q/OSQ/pmnj6U57UfCtcDAAAAALCWlWWZNova383y9NEqaO9GDOTPlj8cHl6/LU4HALBq5Xntb4XqgoC+Kt0In5k+3Nzc/83hegAAAAAA1pqhob5nZXn68Spk71YM5Kvy5eZg/XvjVAAAa8Lw8HDeLNK3huZCAvpTWV77xZ07d/aHnwEAAAAAYLXbunXrhmaR/qssT8fjveJ5TQnlJ0L5j6OjoxvjdAAAa06eN54bqgsC+qp0I3yW+mxR1F8YrgcAAAAAYLVqDtVfmuXpg1XQ3o3qunOlSG8vir7dcSoAgDVt//799ayovT40FxLQV+Ud2dZsc/gZAAAAAABWi82bN2zNivR3qxvB3ToXyufpE83B2msPHDhQi9MBABANDa27Onxeen9oLiSkfyR8znp1uB4AAAAAgJWsCtSzvPYTVcAe7wHPKwbyk6WZp/+9CvbjdAAAzCIr6i8P1SUH9JXwmeuj2ab+Z4SfAQAAAABgpamOoK+Ooq9C9m5MDeVDebA6Aj9OBQBAFzZt2tQMn79+PTQvOaQPn79OZ3ntwI4dOwbCzwAAAAAA0OtGRkayLE9/LZSJeK93XjGQr8p4KG/eunXrhjgdAACXqCj69obqkgP6Svgs9pdFUf+28DMAAAAAAPSq5mD9u7M8/XK8tzuvGMifLR8fGup7VpwKAIDLsH///nqzqP1MaF5ySB8/m/12NpaNhJ8BAAAAAKBXDA+v39bM09+rbuR2I97wPVsezfLa3w/DaZwOAIBFUn1OC5+3/iA0Lz2kL9IjzaL2I6HpcxoAAAAAwJVU7cjK89o/yvL0WOcW7vymhPLVDd//d3R045Y4HQAAS6Q5WP/eUF16QB8+szXz9M+z4f6d4WcAAAAAAFhued64McvTu+J923ldFMp/vijq3x6nAgBgGYyMjGThs9h/CM2FhPRnmkX6y9u2bVsffgYAAAAAgKU2PDycVzd1Q2nFe7Vzmgzjz5fTzSJ90/bt29fF6QAAWGZF0bcnK9JPhuYl76IPP/dAnte/o5oHAAAAAIAlkhX1l2d5+rV4f3ZeU0L56jjUj2ab+p8RpwIA4Ao6cOBArTlYe21oLmQXfRXSv2vLlo2j4WcAAAAAAFgsRTHwtCxP3xfvx85raigfyiNZUXtNnAoAgB6yadP6q5p5+j9C85IC+kr4nPdY+Jz3Y6GZVnMBAAAAALBA+/btazSL2s9kefpk5xbs3KYE8mfLO7Ot2eY4HQAAPao5WP/uUC1sF32e/sXgYN/14WcAAAAAALhUzaHG87I8PRjvu84r3pidLM08/UxR1F8YpwIAYAXYunXrhvBZ7t+G5kJ20Y83i/RN1RzVXAAAAAAAzKMoisFmkf7neJ91XlND+VBOhZ/95zt37uyP0wEAsMIMDvbtCp/rPhGaC9lF/2BzqP7Sah4AAAAAAGaR57VXZHl6KN5fnVO8+Tq1/HFzc/+1cSoAAFawAwcO1MJnw38YmucC+qp0Y/KzYZH+7ubNG7aGnwEAAAAA4Kw8H3h6VqQfivdT53VRKH+4OVh7dZwKAIBVZGRkw1gzT/+/0FzILvrHs7z2E1XQX80FAAAAALBm7d27ty/La2+I91DnNSWQr0o7lHcURTEUpwMAYJXK8/pLQrWwXfR5etvgYN+zw88AAAAAAKw92WDjW5t5en+8bzqneFN1avl0NtR4fpwKAIA1YNu2bevD58dfDc2FBPTj1c+Ojo5urOYCAAAAAFj18jwfbubpb8V7pfOaEshX5USW136x2nEfpwMAYI0ZGup7Vvhc+PHQXEhI/6XmYP1l1TwAAAAAAKtWc7D2qnhvdF7x5un5UqQfKIqBa+JUAACsYeHjYlo9T75qni3dqj5bVs+xHx5e/5RqLgAAAACAVaO5qf+6LE8/Eu+HzumCQL5Tvp7ntR+MUwEAwDmjoxu3ZEX6u6G5kF30R8PnzH944MCBWjUXAAAAAMCKtWPHjoEsr70x3gOd15RAviqtZpG+dWhoqIjTAQDAjPK8/uJQLWgXfVaknyqKvhuqeQAAAAAAVpyiqL8o3vOc10WhfFXuaQ43bopTAQDAvLZv376uWaRvCs2F7KKfCOXfjoyMZNVcAAAAAAA9LxvLRrI8/e14r3NO8Ubo1HK8WdR+dt++fY04HQAAXJJsuP+ZzTz9s9BcSEj/leZg/XureQAAAAAAelJZlmmzqP1I59bm/KYE8mfL+4aG1l0dpwMAgAULHzfTrKj9WNU8W7px9rNpM09/P3w2fWo1FwAAAABAz8iG+3fG+5nzmhLGny1fyYr6y+NUAACwaCZPdSrSd4XmQkL6Y83B2mv3799fr+YCAAAAALhitm3btr5ZpP8i3sOc05Qw/myZyIr0LZs2bWrG6QAAYEkURf1FoVrQLvpQ7srzxo3VPAAAAAAAyy7P698Z71vOa8qNzU4p0juKou+GOBUAACy5HTt2DDSL9JdDcyEhfSuU/+APSwEAAACAZTMysmEs3qec17kw/nw52ixq//jAgQO1OB0AACyr5qb+68Ln0j8Jza4D+kr8PPs1j2QCAAAAAJZUFahnee3vxXuTc4o3Li8ozTz9veHh9U+J0wEAwBXVLGo/EqqFHnX/h4OD67ZX8wAAAAAALJrBwb5d8X7kvKbcsDxbvtgcrL8sTgUAAD2jeVVzU/i8+tuhuZBd9MebRe1n9u3b15icDAAAAABgoUZHRzfG+4/zijcop5bxUP5NNUecDgAAelI22NjXzNPPhOZCdtHf0xxu3DQ5EQAAAADApap2u8f7jnOaclNyavlEtds+TgUAAD1v586d/VleOxCaCznqvpUV6a8PDQ0V1VwAAAAAAPOqngsf7zPOa0oYf7Y8nuW1n6yeTx+nAwCAFaW5uf/a8Ln2j0NzIbvov54V9f2TEwEAAAAAzKQK1OO9xXlNufl4vhTpu0dGNozF6QAAYEVrDtZeHaqF7KKvyv8qioFrqnkAAAAAAM4pir4b4v3EOU252Ti1fCHP698ZpwIAgFUjz/Ph8Hn3HaG5kID+RFbUXr93796+yckAAAAAgLVr06ZNzXgPcV5TbjKeLWeaRfqvt23btj5OBwAAq1I21HhBM0//T2guJKS/rznU+JbJiQAAAACAtSfeM5zXlJuK50ozT/88G+7fGacCAIBVr9oBn+W1XwzNrgP6SvwM3W4W6VuLohicnAwAAAAAWP2GhtZdHe8TzmlqGH+uFOmRrKj9WHg5jdMBAMCakucDTw+fiz8UmgvZRX8oz2t/a3IiAAAAAGB12rdvXyPeG5zXlJuH50uRvisby0bidAAAsKblee2HQjUZ0FelG1M+W3+oCvmreQAAAACAVSTeC5zXBWH8+fK5oqi/KE4FAP8/e/8eJdl1Foie50Q+SiplZGXqmTIg2Vhu4URVqpKEJWOPoemh291IjT0XwzINdM+C24s/ZrovNn7AmntZTM/i0jCrZ11m1vSCpmVf4JoFi9Xd+DHtHgaatmQkGcuSym/8kG1sqJItlVQllVRV8ZizM7/Iiow4EfmKyIzH78fanLNP1E6rMvbZ3/72rjgBQEiPqa8u5r9ZnO7mU/QvLixWfjE9Ln/thwEAAAAA42t5eflIrAH21bZA2F5eqh7Jf/mWW245FD8OAAAoUV2efW0xfz5ZnO54k766mH96YWn2f7f2gwAAAACA8RNrfltqLQp2lD+rXjN/a/woAABgC+lrpBYWK+8uTnfzKfpGdTH/d4uLi1ev/TAAAAAAYPTFOt+W2hYCN0p1Mf9mdanyT+NHAQAAO3TkyKGXF3Pr/09xuptP0T9VzMd/Yu0HAQAAAACjKX1XZazt9dVa+OsojaLc75M6AAAwGIuLlR8rDtveoE/a5uf/v+q1869a+0EAAAAAwOiItbwttS32bZTqYv4Z33EJAACDt7y8fKR6JP9/F6e7edT9SwuLlf9xdXV1fu2HAQAAAAAHJ9bvttS2wNdeXlxYrPxf0ifu48cBAABDUL169u5i/v14cRoz9K215u3VxfyzC0uz37f+kwAAAACAfRdrdn21FvS6ypH8vywuHnpl/CgAAGDIvu/7vm+2eqTy88Xpbj5Fn8r91ZdVr1n7YQAAAADA8MU63ZY6FvJa5dTiYuXH40cBAAD7bHn5ipuKefkHitPdbNJ/q7pU+adrPwgAAAAAGI5Yl9tS28Jde2lUF/PfPHLkyFL8OAAA4AAtHJn574p5+teL05jJ99cxv/+v1Wvmb13/SQAAAADAwMR6XF8di3Xt5WR1efa18aMAAIARcc0111QXjuS/UZzu5lP0F6pH8l++5ZZbDq39MAAAAABg92L9bUttC3Tt5YWFI5V3pu+2jB8HAACMoMXF2buK+fujxWnM8PvrmPf/1ZEjMz+w/pMAAAAAgB2JNbctdSzKtZcPHjly6OXx4wAAgBH3lre8ZaZ6pPJzxeluPkWfyu8srCxct/bDAAAAAICtxTpbXx2LcO3lGwtHZn4kfhQAADBmrr76ym+vLub/qTiN2X9/m/KBI/nTC0cqP11cztd/GgAAAADQZX1pbWubFt8ul/rCkfz/efXVVy/GjwMAAMbYwtLMDxfz/K8Vp5EJlEuvd+QGzepi/pGFq+dX134QAAAAAHBZrKv11bng1lY+kb6jMn4UAAAwIa677rqFYr7//yhOIyvoll5LpSNHSOVi9Uj+f7v55puvSD8LAAAAAKbaDTdcdf3Ckfz3Yl2tVMkiW6ucS99Jmb6bMn4cAAAwgY4cmTtR5A1/WZxGlrAu1VulJF9YL0fyLy4uzvxg8WcAAAAAYPo0m8184Ujlny8s5s+kBbNeNi2qtZX0HZTpuyjjxwEAABPul37plyqLi5X/c3G6aVO+Vcryhk3lSP6/XX/9VTcUfxYAgCHK4wgAwJDdeeed19ZqtVubzeatRTUdr8vzvFocq0W9ms4bjcbVRbm+UqnMpTaNZiNrNhrZZz7z2VRd88pbXp41GvW1cunShY1Sb9T/Oq9U/k/nnq2/P/4oAAAwRa655sqXXbz00m+cO9v87+JSduPLrs7m5g5llcrMeskrWZE3ZDPFeR7n6VohbeS/UOQl3yrKuSJPOVfUz7XOi+M3i/rni+PnZ2dnP//oo49+KzUCAGD7bM4DAAzYsWPHrsrz/HXNZvOOorqxGV+Uq9PrQ/RMUdYWy+L4ieJ/+6MnT558Ye1VAABg4pTlH0W5rbiW/hHwMMk/AAB2yOY8AMAevfGNbzx06tSpe+r1+g8U1VTuLsraJ99HwKWiPFKUP5uZmfmzlZWVhz/84Q9fWHsFAAAYO/IPAIDxZXMeAGAXjh8//qpGo/Ejxenfazab31scr1x7YfS9mOf5XxTHP61UKn/0+OOPf2H9MgAAMKrkHwAAk8HmPADANt1zzz1Xnz9//seazeZPFtXXrl8dew/lef67hw8f/oOHH344PZYSAAAYAfIPAIDJY3MeAKCPO++8c65Wq/1Qo9FIC2L3FmV+7YXdmJ3J8qsXsso11axy7WKWL11V/LTZLE/l0NzGeVac54eKY6F5oZZlFy5lzYvFsSjN9vNnX8ga3zqbNZ4+lzWfeT7LavW1Nrt0sSgfrFQqvzs7O/uhRx99ND2OEgAA2EfyDwCAyWZzHgCgxN13333Diy+++LZms/nTRfWa9avbly8ezmZecX1WWVnK8msW1xbE8iOH49XhaD53fn2h7OmzWePUs1n9yaey5tnz8eqOPJ3n+b+/8sor/80jjzxyOq4BAABDIv+QfwAA08HmPABAm7vuuus7Lly48M7i9GeKcsXaxW3Ir7oim3n59VmlKOmYL18Vrxys5pkXsvpXnsoaRUnH5gsvxSvbkv7wbx86dOjXPv7xj//1+iUAAGBQ5B+byD8AgIlncx4AoHDixIlbarXau4vTnyrK3NrFLVRuWMpmj92cVV65svaYyHGw9hjKL57Kap/8atY4/Wxc3VJ6xOTvzM7O/upjjz32xfVLAADAbsk/+pJ/AAATy+Y8ADDVjh8//qpGo/HLzWbzR4vqzPrV3vLqldnsbTdlM0dvzirXH4mr46nx1HNZ/ZNfzWqf+lrWPPdiXO2rnuf5H1YqlV96/PHHvxDXAACAbZJ/yD8AgOlmcx4AmEr33HPPlefPn//FZrP5jqJ6aP1quXxuNqvc+rJs9tjL177HMcsnbArVbK59P2Tt5Fey+ue+kWW1erzQ04U8z3/98OHDv/Lwww9va1UNAACmmfyjjfwDAJhiNucBgKlz7Nixe5vN5m8Up69Yv1IuPzSXzd71ymz27r+T5Yf7rp9NjOb5C1ntkb/Kah//Uta8kJ4m2deTeZ7/i5MnT34w6gAAQAf5R2/yDwBg2ticBwCmxokTJ26u1+v/S7PZ/OG4VCq/cj6bfc2rstnvuSXLr5iPq9Ol+dLFrPaXX8xqH/tC1nzxYlwtl+f5H8/MzPzLxx577KtxCQAApp78Y/vkHwDAtNjye40AAMbdW97ylpnZ2dl3NRqNPyyqR9evdssXrsjm3/Dd2fyb7s5mvvOGLJ+d3qlS+rvP3HxdNnvXLVnlykNr3w+ZXazFq12+q/jd/vOVlZXGG97whoc+85nPNOM6AABMHfnHzsk/AIBp4ZPzAMBEu+OOO268dOnS+4rT71+/UmKmks2+9tZs/vWvzrIpXhDrq1bPLj742az20OezrN6Ii6X+fG5u7sc/8YlP/G3UAQBgasg/BkT+AQBMKJvzAMDEOn78+A/W6/XfK06vX7/SbeaVK9n8PziR5VcvxBX6aT7zfHbxw5/I6l8+HVdKPTUzM/MTjz/++J9EHQAAJp78Y/DkHwDApPFPMwGAiROPkfxXjUbjN4tq6apXZfFwNnfvXdn83z269h2PbM/a92EevTnLrzuSNb/xTNa8cCle2eSqZrP5T1ZWVubf8IY3/DePmQQAYJLJP4ZH/gEATBqfnAcAJsqJEydeVq/Xf7/ZbL4hLm2W59nc3X8nm/u+1Sybm42L7MqlWnbpv30mu/TIX2VZs3z9K8/zj8zMzLz1scce+5u4BAAAE0P+sY/kHwDABLA5DwBMjGPHjt3dbDY/UJxet35ls7x6ZXbozXdnlZtKX2aXGl/7ZnbhPz6SNc+9GFe6fDPP8/tOnjz5SNQBAGDsyT8OhvwDABhnNucBgIlw9OjRf1gc/qgoh9cudFj7bscffk2WHz4UVxik5vkL2cU//lhW/9KpuNLlfFF+5JOf/OR/Xq8CAMD4kn8cLPkHADCufOc8ADD2br/99p9oNpt/UJx2r3ylx0j+3duy+X90Z5Z7jOTQpN9t+i7IbKaSNb76zbi6yVxRfuzGG2988vTp0yfXLwEAwPiRfxw8+QcAMK5szgMAY+3YsWNvazab/7Y47ZrXrD1G8sdet75ow76Yuem6rPLy67LGl09n2cVaXN1QKd6rN6+srJw7ffr0Q3ENAADGhvxjtMg/AIBx47H2AMBYajab+e233/6vi+M74tImlZXl7NBbX5/lV10RV9hPzRdeyi78/oNZ49SZuLJZnue//sQTT7yrODbjEgAAjCz5x2iTfwAA48LmPAAwdtLC2LFjx/5dcfrT61c2q7zi+uyKH31dlnmM5MG6VMte+sOPZo0nn4oLm+V5/ttPPPHEP7dABgDAKJN/jAn5BwAwBmzOAwBj59ixY7/W6xMrM6vfkR1602uyrFKJKxyoRiO78J8+ltU/89dxYbM8z3/95MmT74wqAACMHPnHGJF/AAAjznfOAwBjJb7j8Zejusns99ySHbr3LgtjoyTPs9nv+ras+dLFrPE3z8TFTV7nOyABABhV8o8xI/8AAEaczXkAYGzcfvvtP9FsNv9tcdr19J+5778tm/+Bo2uLMYyY4j2ZueXGtUXLxldKHzH592+88cYvnT59+mTUAQDgwMk/xpT8AwAYYTbnAYCxcPTo0X/YbDb/oDjtmr+khbG51786aoyqmZuu67VAlhfv7T++4YYbPv7UU099Ma4BAMCBkX+MP/kHADCKbM4DACPv2LFjdxeHDxXl0NqFNulRkmufWGEspAWy5oulj5hMzwJ988rKyp+ePn36G+uXAABg/8k/Jof8AwAYNb4QCQAYaSdOnHhZs9n8QHF6eP3KZTOr35HN//3jUWNcpPcsvXclDqf3Or3nUQcAgH0l/5g88g8AYJTYnAcARtZb3vKWmXq9/vvF6XXrVy6rvOL67NCbXuM7HsdR8Z6l9y69hyWuS+95eu+jDgAA+0L+MaHkHwDACDHpAABG1uzs7L9qNps/GdUNlZXl7Ip/8obiD5jKjK08z2Zf/e1Z/Uuns+bzL8XFDTc//fTTM6dPn/6zqAMAwNDJPyaY/AMAGBFmlADASDp+/PgPNhqN3yxON300Ja9emV3xT78/y6+YjyuMrZlKNnPry7L6p/86yy7W4uKG17/sZS976NSpU1+OOgAADI38YwrIPwCAEeCx9gDAyLnjjjturNfrv1ecbp6r5Hk2/+a7s/yqK+IC4y69l+k9LXk8aCX1gdQXog4AAEMh/5ge8g8A4KDZnAcARkr6rr9Lly69rzjt+kLAue+/LZu5qevrHxlz6T1N722J61Nf8P2PAAAMi/xj+sg/AICDZKIBAIyU2dnZdxWHn1mvXTbzypVs/h/dGTUmzcxN12aNbzyTNc88H1c2vPzpp59+8fTp0w9GHQAABkb+MZ3kHwDAQel6fg8AwEE5ceLEzbVa7TPF6eH1K+vWvufxv//BLD98KK4wiZrnL2Qv/bs/yZrnXowrG87Pzs6uPvbYY1+NOgAA7Jn8Y7rJPwCAg+Cx9gDAyKjX679RHDYtjK19z+Ob7rYwNgXSe5ze65LvfzwcfQMAAAZG/jHd5B8AwEHwWHsAYCQcO3bs3maz+ctR3TB3z63Z7B3fGTUmXWXpqiy7WMsaX386rmy4dWVl5dHTp0//VdQBAGDX5B8k8g8AYL/55DwAcODuueeeK5vNZtcnEyqLh7O571uNGtMivefpve+U+kjqK1EFAIBdkX/QTv4BAOwnm/MAwIE7f/78LxaHV6zXLpv9wduzbG42akyN4j1fe++7vSL6CgAA7Jr8g03kHwDAPrI5DwAcqOPHj7+q2Wy+M6obZl65ks2++tujxrRJ733qA52KvvKO1GeiCgAAOyL/oIz8AwDYLzbnAYAD1Wg00vc8zq/Xwkwlm/8HJ6LCtFrrA0Vf6HAo+gwAAOyY/INe5B8AwH6wOQ8AHJgTJ07c0mw2fzSqG2Zfe2uWX70QNaZV6gOpL3RKfSb1nagCAMC2yD/oR/4BAOwHm/MAwIGp1WrvLg4z67V1+cIV2fzrXx01pl3qC6lPdJiJvgMAANsm/2Ar8g8AYNhszgMAB+Kuu+76juLwU+u1y+buuTXLZjetlzHNir6w1ie6/VT0IQAA2JL8g22RfwAAQ2ZzHgA4EBcuXHhncZhbr63Lr5zPZu74zqjButQnUt/oMBd9CAAAtiT/YLvkHwDAMNmcBwD23d13331DcfiZ9dpls695VZbPz0YN1qU+kfpGiZ+JvgQAAD3JP9gJ+QcAMEw25wGAfffiiy++rThs+iK//NBcNvs9t0QNNkt9I/WRDldEXwIAgJ7kH+yU/AMAGBab8wDAvrrzzjvnms3mT0d1w+xdt2T5FV2PDoQ1qW+kPtIp9aXUp6IKAACbyD/YDfkHADAsNucBgH1Vq9V+qDhcs15bl8/NZrN3lz42EDas9ZHZmahtuCb6FAAAdJF/sFvyDwBgGGzOAwD7qtFo/GScbqjc+rIsP3woalAu9ZGZ7/q2qF1W1qcAACCRf7Bb8g8AYBhszgMA++aee+65ujjcu167bPbYy+MM+uvRV+6NvgUAABvkH+yV/AMAGDSb8wDAvjl//vyPFYdNX+yYV6/MZl5xfdSgv9RXUp/pMB99CwAANsg/2Cv5BwAwaDbnAYD99FNx3DB7201ZludRgy0UfWWtz3RoNpseLQkAQCf5B3sj/wAABszmPACwL44fP/6qZrN5T1Q3zBy9Oc5ge3r0mdemPhbnAABMOfkHgyL/AAAGyeY8ALAvGo3Gj8TphsoNS1nl+iNRg+1JfSb1nU5lfQwAgOkk/2BQ5B8AwCDZnAcA9svfi+OG2WM+tcLuzJZ/eqWrjwEAMLXkHwyM/AMAGBSb8wDA0L3xjW881Gw2vzeqGyqvXIkz2JnKLd19J/Wx1NeiCgDAlJJ/MGjyDwBgUGzOAwBDd+rUqfRdj1eu19blV12RVa5djBrsTOo7qQ91uDL6GgAAU0z+waDJPwCAQbE5DwAMXb1e/4E43TDz8uvjDHanrA+V9TUAAKaL/INhkH8AAINgcx4A2A9dCxYVi2PsUY8+ZHEMAAD5BwMn/wAABsHmPAAwVMeOHbuqONy9Xrus8vLr4gx2p8enn+6OPgcAwBSSfzAs8g8AYBBszgMAQ5Xn+euKw9x6bV2+eDirLC9EDXYnX75qrS91mIs+BwDAFJJ/MCzyDwBgEGzOAwBD1Ww274jTDTOv8EhJBqOsL5X1OQAApoP8g2GSfwAAe2VzHgAYtlvjuKGyshxnsDeVlaU426SrzwEAMDXkHwyN/AMA2Cub8wDAUDWbza6FivyaapzB3uTXLMbZZWV9DgCA6SD/YJjkHwDAXtmcBwCGrWuhomJxjAHp0ZcsjgEATC/5B0Mj/wAA9srmPAAwNHfeeee1xeHq9VqYncnyI4ejAnuz1peKPtXh6uh7AABMEfkHwyb/AAD2yuY8ADA0tVqt6xME+dULcQaDUdanyvoeAACTTf7BfpB/AAB7YXMeABiasu/e80hJBq2sT/neRwCA6SP/YD/IPwCAvbA5DwAMU/fi2LWLcQaD0aNPWRwDAJg+8g+GTv4BAOyFzXkAYJiuj+OGfOmqOIPB6NGnuvoeAAATT/7B0Mk/AIC9sDkPAAxNs9nset5fPj8bZzAYZX2qrO8BADDZ5B/sB/kHALAXNucBgGHqXqA4NBcnMCDlfcriGADA9JF/MHzyDwBgD2zOAwDD1LVAkR/yyRUGq0efsjgGADB95B8MnfwDANgLm/MAwNDkeb4Qp5fNWRxjwEr6VGnfAwBgosk/2BfyDwBgD2zOAwBD4zsf2Q++8xEAgET+wX6QfwAAe2FzHgAYpu4FCt/5yKD5zkcAANbJPxg++QcAsAc25wGAYepaoPCdjwya73wEACDIPxg6+QcAsBc25wEAAAAAAABgyGzOAwDDdC6OG5oXanEGg9GjT3X1PQAAJp78g6GTfwAAe2FzHgAYpu4FiguX4gQGpLxPWRwDAJg+8g+GT/4BAOyBzXkAYGjyPO9aoGhe9MkVBqusT5X1PQAAJpv8g/0g/wAA9sLmPAAwNM1ms3uBwuIYg1bSp0r7HgAAE03+wb6QfzBmiv65IS4BcIBszgMAw9S1QNH0WEkGrEefsjgGADB95B8MnfyDcdK5IW+DHuDg2ZwHAIbGYyXZDx4rCQBAIv9gP8g/AIC9sDkPAAzT83G8zOIYg1bSp5oeKwkAMI3kHwyf/AMA2AOb8wDAMD0Vxw3NZ1+IMxiMsj6V5/k34xQAgOkh/2Do5B8AwF7YnAcAhunzcdzQ+NbZOIPB6NGnuvoeAAATT/7B0Mk/AIC9sDkPAAxNnufdi2NPe9ofg1XWp8r6HgAAk03+wX6QfzBOir6Zx+mazjoA+8/mPAAwNLOzs10LFM1nur8GEvairE+V9T0AACab/IP9IP9g3KQN+Za4BMABsjkPAAzNo48++q3i8Mx6LdTqWfO581GBvVnrS0Wf6vBM9D0AAKaI/INhk38AAHtlcx4AGLauTxB4tCSD0qMv+dQKAMD0kn8wNPIPAGCvbM4DAEOVl3z3XtPiGAPSfPpsnF1W1ucAAJgO8g+GSf4BAOyVzXkAYNi6Fioap87EGexN49SzcbaJxTEAgOkl/2Bo5B8AwF7ZnAcAhirP80/E6Yb6k0/FGexNWV8q63MAAEwH+QfDJP8AAPbK5jwAMFTNZvOjxeHSem1d8+z5rHnmhajB7qQ+lPpSh0vR5wAAmELyD4ZF/gEADILNeQBgqE6ePJlWwR5Zr11W/4pPr7A3PfrQI9HnAACYQvIPhkX+AQAMgs15AGA//FkcNzQsjrFHPfpQV18DAGDqyD8YOPkHADAINucBgKGbmZnpWrDwyRX2qqwPlfU1AACmi/yDYZB/AACDYHMeABi6lZWVh4vDi+u1dc0XXsoa3zobNdiZ1HdSH+rwYvQ1AACmmPyDQZN/AACDYnMeABi6D3/4wxfyPP+LqG5ofOlUnMHONL7Y3XdSH0t9LaoAAEwp+QeDJv8AAAbF5jwAsF/+NI4baie/GmewM7VPlvadrj4GAMDUkn8wMPIPAGBQbM4DAPuiUqn8UZxuaJx+Nms89VzUYHtSn0l9p1NZHwMAYDrJPxgU+QcAMEg25wGAffH4449/oTg8tF67rF7+CQToqUefeSj6GAAAyD8YGPkHADBINucBgH2T5/nvxumG2qe+lmXNZtRgC0VfWeszHcr6FjD+mm3iEgBsm/yDPZN/AAADZnMeANg3hw8f/oPicHG9tq557sWs/uRTUYP+Ul9JfabDxehbwATp3JC3QQ/ATsk/2Cv5BwAwaDbnAYB98/DDDz9THD64XrusdvIrcQb99egrH4y+BQAAG+Qf7JX8AwAYNJvzAMC+qlQqXY//a3z+b7Lm+QtRg3Kpj9Q/942oXVbWpwAAIJF/sFvyDwBgGGzOAwD7anZ29kPF4en12rrmpVpWe+QLUYNytUf+qvh/9ahteDr6FAAAdJF/sFvyDwBgGGzOAwD76tFHH72U5/m/j+qG2se/mDVf2vR1kLAh9Y3ax78UtctSX0p9KqoAALCJ/IPdkH8AAMNicx4A2HdXXnnlvykOL63X1jUvXMpqf/nFqMFmqW+kPtLhpehLwATKC3G6prMOANsl/2Cn5B8AwLDYnAcA9t0jjzxyujj89nrtstrHvpA1L9aiButSn0h9o8RvR18CJlTakG+JSwCwY/IPdkL+AQAMk815AOBAHDp06NeKw6aPIjRfvJjVP/HlqMG61CdS3+hwKfoQAABsSf7Bdsk/AIBhsjkPAByIj3/8439dHH5nvXbZpYc/n2W1etSYekVfWOsT3X4n+hAAAGxJ/sG2yD8AgCGzOQ8AHJjZ2dlfLQ6bVsKaz7+UXXzws1Fj2qW+kPpEh3r0HQAA2Db5B1uRfwAAw2ZzHgA4MI899tgX8zz/w6huqD30+az5zPNRY1qlPpD6QqfUZ1LfiSoAAGyL/IN+5B8AwH6wOQ8AHKhKpfJLxeHCei3UG9nF//JYVJhWa32g6AsdLkSfAQCAHZN/0Iv8AwDYDzNxBAA4EKdOnXpmZWXlUHH6hvUr65pnns/y645klesW4wrTpPbZr2e1j34uapflef6rTzzxxB9FFQAAdkT+QRn5BwCwX3xyHgA4cIcPH/6V4vDkeu2y2p88kWWXalFjahTv+dp73+3J6CsAALBr8g82kX8AAPvIJ+cBgAP39a9/vbaysvKl4vTH16+sa164lGX1ZjbznTfEFabBpf/6qaz+pVNRuyzP85969NFHPxNVAADYFfkH7eQfAMB+8sl5AGAknDx58oN5nv9xVDdceuSvssbXvhk1Jl16r9N73in1jdRHogoAAHsi/yCRfwAA+83mPAAwMmZmZv5lcTi/XgvNZnbhPz6SNc9fiAtMqvQep/c6vecdzkffAACAgZF/TDf5BwBwEDzWHgAYGadOnXpuZWWlUZz+79evhIu1rPnUc9ns0ZvjApPo4h89lDVOPRu1y/I8/5+eeOKJD0UVAAAGQv4x3eQfAMBB8Ml5AGCk3Hrrrb9eHP58vXZZ+g7ASx/9bNSYNOm9Lfuex8KfR58AAICBk39MJ/kHAHBQ8jgCAIyMO+6448ZLly49Xpxev34l5Hl26Ce/L5u56bq4wCSof+2b2YXf/W9lj5N8am5u7vgnPvGJv406AAAMnPxjusg/AICD5JPzAMDISYshMzMzP1GcpkdMXtZsZhfT9z++8FJcYNyl9zK9pyULY43UByyMAQAwbPKP6SH/AAAOmu+cBwBG0qlTp768srIyX5y+Yf1KuFjLGl/5ZjZ79KZiJuPfGY61S7Xswu99JGs+cy4uXJbn+a888cQTvx1VAAAYKvnHFJB/AAAjwIwSABhZt9566y/lef6RqG5onDqTvfSHHy1ONn+whTFSvHfpPUzvZaf0nqf3PqoAALAv5B8TTP4BAIwI3zkPAIy0EydOvKxWq6Xvf+z6oseZ1e/IDr357rSaElcYC81mduE/PpLVP/PXcWGTb87Ozh5/7LHH/ibqAACwb+QfE0j+AQCMEI+1BwBG2qlTp86trKykT6/8eFHm1i6G5jfPZs2XLmYzt9wYVxgHF/+/j2f1J74StU3O53n+xieeeOJzUQcAgH0l/5g88g8AYJTYnAcARt7p06e/ccMNNzxWnP5YUTZ9LU/jb54prlSymZu6PtjCCLr04Gez2l+Urn3VivLmT37yk3++XgUAgIMh/5gc8g8AYNTYnAcAxsJTTz31xRtvvPHJZrP55qK66TmSja88ZYFsDKSFsUt//qmobdKsVCr/7OTJk/8h6gAAcKDkH+NP/gEAjCKb8wDA2Dh9+vTJlZWVc8XpP1i/cllaIGu+6BGTI6nZXHuUZI9PrGR5nv/8yZMnfzOqAAAwEuQfY0r+AQCMMJvzAMBYOX369EMrKytXFaevW79yWXrEZONb57LZW1+WVlziKgeq0cgu/KeP9fqOx7Qw9usnT578v0YVAABGivxjzMg/AIARZ9YIAIydZrOZ33777b9VHH8mLm1SecX12RU/+rosm5uNKxyIS7XspT/8aNZ48qm4sFme57/9xBNP/PPi2IxLAAAwcuQfY0L+AQCMAZvzAMBYigWyf10c3xGXNqmsLGeH3vr6LL/qirjCfmq+8FJ24fcfzBqnzsSVzdInVp544ol3WRgDAGAcyD9Gm/wDABgXNucBgLF27NixtzWbzf97cdo1r8mrV2bzb747m7npurjCfqh/7ZvZxf/4SNY892Jc2aSZr3/H47+JOgAAjA35x+iRfwAA48R3zgMAYy19B+SNN974pWaz+Y+LamX9arhYy+onv1rMeCrZzE3XxkWG6dJHP5ddfP9fZtmFS3Flk1qlUvlnJ0+e/M2oAwDAWJF/jBb5BwAwbnxyHgCYCEePHv2HxeGPinJ47UKHmVeuZPM//JosP3worjBIzfMXsot//LGs/qVTcaXL+aL8yCc/+cn/vF4FAIDxJf84WPIPAGBc2ZwHACbGsWPH7m42mx8oTkufI7n2mMk33Z3N3Owxk4NU/+o3s4v/qedjJJNv5nl+38mTJx+JOgAAjD35x8GQfwAA48xj7QGAiXH69OlvfNu3fdv/1mw2v6eo3rx+tU16zOQnv7p2nPmOa9YeN8keXKpll/7rp7KL//kTvR4jmeV5/pHZ2dkffOKJJz4XlwAAYCLIP/aZ/AMAmAA25wGAiXLq1Klzb3jDG3736aefTvOc1xel60lBja8/ndU/+bUsWzycVa5bjKvsRO2zX88u/sFH+z1GspHn+a/ceuut/8c//dM/PRvXAABgosg/9of8AwCYFB5rDwBMrOPHj/9gvV7/veL0+vUr3da+C/IfnMjyqxfiCv00n3k+u/hfHuu3KJY8NTMz8xOPP/74n0QdAAAmnvxj8OQfAMCksTkPAEy0O+6448ZLly69rzj9/vUrJWYq2exrb83mX//qLJv1YKFStXp28cHPZrWHPp9l9UZcLPXnc3NzP/6JT3zib6MOAABTQ/4xIPIPAGBCmf0BABPtb//2b5//vu/7vt97+umnXyyq31uUubUX2jWbWeNr38pqjz+Z5en/rj+S5b4Pck0zfU/mX34xu/AfHs4aXzy19rvq4Xye5//Td33Xd/2sx0gCADCt5B97I/8AACadT84DAFPjxIkTN9fr9d9oNpv/OC6Vyq+cz2Zf86ps9ntuyfIr5uPqdGm+dDGr/eUXs9rHvpA1X7wYV8vlef7+mZmZf/HYY499NS4BAMDUk39sn/wDAJgWNucBgKlz7Nixe5vN5m8Up69Yv1IuPzSXzd51SzZ796uy/PChuDrZmucvZLVHvpDVPv7FrHnhUlzt6ck8z//FyZMnPxh1AACgg/yjN/kHADBtbM4DAFPpnnvuufL8+fO/2Gw231lU+348JZ+bzSq3viybPfbybOYV1xcXJmwK1Wxm9Sefymonv5LVP/eNte933MKFPM9//fDhw7/y8MMPp8d1AgAAfcg/2sg/AIApZnMeAJhqx48ff1Wj0fjlZrP5o0V1Zv1qb3n1ymz2tpuymaM3Z5Xrj8TV8dR46rms/smvZrVPfS1rntvWGlc9z/M/rFQqv/T4449/Ia4BAADbJP+QfwAA083mPABA4cSJE7fUarV3F6c/VZS5tYtbqNywlM0euzmrvHIlq1y7GFdHW+NbZ7PGl05ltZNfzRqnn42rW0rPl/yd2dnZX33ssce+uH4JAADYLflHX/IPAGBi2ZwHAGhz1113fceFCxfSoyZ/pihXrF3chvyqK7KZl1+fVdbKdVlleSFeOViNM89nja98syhPZfWiNF94KV7ZlvSHf/vQoUO/9vGPf/yv1y8BAACDIv/YRP4BAEw8m/MAACXuvvvuG1588cW3NZvNny6q16xf3b588fDa90NWVpaz/JpqVilKfuRwvDoczefOZ42nz2XNojROnVn7Hsfm2fPx6o48nef5v7/yyiv/zSOPPHI6rgEAAEMi/5B/AADTweY8AEAfd95551ytVvuhRqPxk0X13qLMr72wG7MzWX71wtpCWXoMZb50VZbPz2bZobnsL9/9/4o/lGV3/6//Y5YfKq4XmhdqWXbhUta8WBwv1TbVm8++sP6YyLQg9szzWVarr7XZpYtF+WClUvnd2dnZDz366KPpUZIAAMA+2q/8Yy3fmJvdXC/IPwAAhsvmPADANt1zzz1Xnz9//seK059qNpv3rF/du5MnT8bZZceOHYuz4crz/OHi8DuHDx/+g4cffviZ9asAAMBBG1b+cZDkHwDAtLM5DwCwC8ePH39Vo9H4keL07zWbze8tjleuvbBDZRvzyRA351/M8/wviuOfViqVP3r88ce/sH4ZAAAYVYPKPw6A/AMAoI3NeQCAPXrjG9946NSpU/fU6/UfKKqp3F2UufTaVvZhcz49HvKRovzZzMzMn62srDz84Q9/+MLaKwAAwNjZS/6xD+QfAAB92JwHABiwY8eOXZXn+euazeYdRfXW4nhrOhbl6vR6y1Yb8+2vb3OzPj0W8vPF//bn4/iJ4n/7o8XPeWHtVQAAYOJsN/8o0y/n2EY+Iv8AANghm/MAAPvkzjvvvLZWq60tlj3xxBP/Pi5vsrr66iyvVLJPf+rTceWyv3PrLdlMZfbTc3Pzn8vz/Fxx6amirC2Gzc7Ofv7RRx/91tofBAAApl57/lFUU7m+OK/WahdvrdVrt/3V57+49ufaffdt3501G43sM5/5bFy57Pbbb/+14iD/AAAAAGB8NPtYWMzXSi/Fa78TPwYAAGDHVldX5yO96LJVPhI/AgCAXarEEQCAfdBvQat6ZOup2bnnGj+5sFj5hagCAADsyNe+/rm3x+mO2aAHANgbj7UHANgnO92YP/dcI842K/5sI6tU/g/PP1v/47gEAACwpYWlmR8+d6b2n6K6SWdO0isfyQtxCgDADplIAQDsk16b8/0+Md9ng/752crs9z777KVPxiUAAICelpbmjp45c/FkVDfplZPYoAcAGKytn50KAMCe7WZjPumzSLZQa9Q+cMMNV10flwAAAEqlvGGnG/P99MpvAADoz+Y8AMCQDWvh6txzjZvPv3j+P6yurs7HJQAAgE1SvnDq1POno7oj/TbubdADAOycxw8BAAxRvwWrfgtdxSTtwXQsGr8+HXs9TjIpfs7/+vzZ5j+LKgAAwIZt5yTN7LkiETkStU365SMecQ8AsH0+OQ8AMCS73ZgvPNm86qo3p5LO04Ut/vw/XVis/EKcAwAArOmXJ3TkGE9ePDT3mnRcr262RT4CAMA2+VeNAABD0mtzfouFrXNzM7OvPXPm0qdTZXl57rsv1WsPFafVtRd7fGKl+JmNvFJ507ln6x+ISwAAwBSrLs3cd/ZM7f1R3aQjJ9nIQTrzj0698hGfngcA2B7/5BEAYAh2uTGfNtjf2tqYT9J5ulacrq2C9Wp/7rlGpdlovG9pae5oXAIAAKZUygu2uTG/KQfpzD869cpHeuU/AABsZnMeAGDAdrswlef52889W/9QVDeka+m1qPZ07rnGQq1R+8ANN1x1fVwCAACmTMoHzpy5eDKqfZXlINvNPzrZoAcAAABgX6UFqV4WFvN+5f74ET2lP9P68/1UF/MHV1dX56MZAAAwJVIeEGlBqVY+EaVvDpJe7/jzG6WfaA4AQAmfnAcAGJB+C1H9HmefZ9kDN337q382qj2lP5P+bDrv9/POPtd43de+/tnfiioAADAlPv3pT1+I0y7tOcR2cpD2/KNTv3wEAIDeivkVAACD0GtzfouFqyezq656zfN/+/y3ot7Xwo0L12YvvPCx4vQVqX7uudKvgoz/zfwXnz/b+J/XrwAAAJNsYbHyC+eeq/9KVDfpyEm2nYN05h+deuUjeSFOAQBoY5IEADAAu9yYPzc3M/vaM2cufTrq27K8PPfdl+q1h4rTaqr32aBv5JXKm849W/9AXAIAACZQdWnmvrNnau+P6iYdOcmOc5DO/KOTDXoAgO3ru1oMAMDWem3MbyFtnL91pxvzSWqT2hana6tgvf4BwLnnGpVmo/G+paW5o3EJAACYMGm+v82N+V3lIJ35x3btMk8CAJhoNucBAPag34JTv0/N53n+9nPP1j8U1R1LbdPPiGpP555rLNQatQ/ccMNV18clAABgQiysLFx35szFk1Htay85SL/8o1/eY4MeAAAAgIFIC029LCzm/cr98SP2LP2s1s/tp7qYP7i6ujofzQAAgDGX5vcx3S/VyhOiDCQHST+n4+dulH6iOQDA1PPJeQCAAev7ifkse+Cmb3/1z0Z1z9LPSj8znff9xEqWve5rX//sb0UVAAAYc5/+9KcvxGmX9txgkDlIe/7RqV8+AgDAumIuBQDATvX69McWC1JPZldd9Zrn//b5b0V9IBZuXLg2e+GFjxWnr0j1c8+VfxXk+n9b/ovPn238z+tXAACAcbSwWPmFc8/VfyWqm3TkJAPPQTrzj0698pG8EKcAAFPLhAgAYIf6PZaxz+b8ubmZ2deeOXPp01EfqOXlue++VK89VJxWU73PBn0jr1TedO7Z+gfiEgAAMEaqSzP3nT1Te39UN+nIR4aWg3TmH51s0AMAlOv70S4AADbb5cZ82hB/67A25pP0s9P/RnG6tgrW67/l3HONSrPReN/S0tzRuAQAAIyJNI/f5sb8UHOQzvxju/rlUwAA08DmPADANu1yYz59OuTt556tfyiqQ5P+N9L/VlR7OvdcY6HWqH1gYWXhurgEAACMuDR/P3Pm4smo9rUfOUi//KNffmSDHgAAAIAtpUWkMguLeb9yfzTfN+l/s/W/3091MX9wdXV1PpoBAAAjKs3bYxpfqjX/j7KvOUj63+v4398ovURTAICp45PzAADb0GsBqe8n5rPsgZu+/dU/G9V9k/430/92Ou/7iZUse93Xvv7Z34oqAAAwoj796U9fiNMu7XP+g8hB2vOPTr3yERv0AAAAAJRKC0e9lH06JMqXF25cuDZ+xL5L/9tr/w3x39PL+uuVX4hmAADAiEnz9Zi+d2nN96McWA7SmX90ll6iOQDA1MjjCABAiX4LRn0+lX5ubmb2tWfOXPp01A/E8vLcd1+q1x4qTqupfu65Rjp0Kf4ejbxSedO5Z+sfiEsAAMAIqC7N3Hf2TO39Ud2kIx858BykM/9o1ysXSfJCnAIATLzezzkFAJhyu9yYTxvdbz3ojfkk/Tek/5bitPdKWOHcc41Ks9F439LS3NG4BAAAHLA0P9/mxvxI5CD98o8++ZNH3AMAU8XmPADADvVbWMrz/O3nnq1/KKoHLv23pP+mdN7vv/vcc42FWqP2gYWVheviEgAAcEDSvPzMmYsno9rXKOUg7flHJxv0AAAAAJRKi0Nlyr4/sa3cH81HTvpva/139lNdzB9cXV2dj2YAAMA+S/PxmJ6Xas3ro4xkDpL+uzr+OzdKL9EUAGCi+eQ8AECH3SwM5Vn2wE3f/uqfjerISf9t6b8xnff9xEqWve5rX//sb0UVAADYZ/3m4+1z+VHOQdrzj0698hEb9AAAAABTJi0I9VL2qY8oX164ceHa+BEjK/03rv23xn93L+uvV34hmgEAAPskzcNjWt6lNY+PMvI5SGf+0V76ieYAABMpjyMAwNTrtxDU59Pm5+ZmZl975sylT0d9pC0vz333pXrtoeK0murnnmukQ5fi79vIK5U3nXu2/oG4BAAADFF1aea+s2dq74/qJh35yNjkIJ35R7teuUiSF+IUAGCi9H6mKQAAa/pszKcN7LeOy8Z8kv5b039zcdp7Jaxw7rlGpdlovG9pae5oXAIAAIYkzbt7bcx3GKscpF/+0SfP8oh7AAAAgEmWFn/KlD2CsVWqRyr/QzQfO+m/vfX36Kd4/SsLKwvXRTMAAGDA0nw7pt+lWvP2VMY1B2nPPzpLL9EUAAAAgEkSaz+lyhaPotwfzcdW+ju0/j69pNeqi/mDq6ur89EMAAAYkDTPjql3qdZ8PcpY5yDpv7/j77NReommAAATw2PtAYCp1m/Bp9djFvMse+Cmb3/1z0Z1bKW/Q/q7pPNef9f0PZDFL+h1X/v6Z38rLgEAAAPSb57dPkefhBykPf/o1CsfsUEPAAAAMCHSQk8vZZ/miPLlhRsXro0fMfbS32Xt7xR/v17WX6/8QjQDAAD2KM2vY7rdpTU/jzIxOUhn/tFe+onmAABjL48jAMDU6bXI0+tTG4VzczOz33vmzKVPRX0iLC/Pffeleu2h4rSaPinfS/F7aeSVypvOPVv/QFwCAAB2obo0c9/ZM7X3R3WTjnxk4nKQ9vxj/cpl/fKRvBCnAABjq+fKMwDAJNvFxnzamH7rpG3MJ8Xf6dPp71acNvr8/dNCWaXZaLxvaWnuaFwCAAB2KM2ne23Md5jIHKQ9/1i/clm/fAQAAACAMZQ25suUPVqxVapHKv9DNJ9Y6e/Y+vv2U7z+lYWVheuiGQAAsE1pHh3T6lKt+Xgqk56DtOcfnaWXaAoAAADAOIg1nVJli0JR7o/mEy/9XVt/717Sa9XF/MHV1dX5aAYAAGwhzZ9jSl2qNQ+PMhU5SPp7dvy9N0ov0RQAYCx5ThAAMDX6LeT0enxinmUP3PTtr/7ZqE689HdNf+d03ut3kr4HsvhFvu5rX//sb8UlAABgC/3mz+1z72nKQdrzj+2yQQ8AAAAwBtIiTpmyT2lE+fLCjQvXRvOpkf7Oa3/3+D30sv565d3RDAAA6CHNm2Ma3aU1744ydTlIZ/7RXvqJ5gAAYyWPIwDAROu1eNPr0+GFc3Mzs9975sylT0V9qiwvz912qV77i+K0mj4p30vx+2vklcqbzj1b/0BcAgAA2lSXZu47e6b2/qhu0pGPTG0O0p5/rF+5rF8+khfiFABgLPRcjQYAmBS72JhPG85vndaN+ST93dPvoDht9Pk9pYWySrPReN/S0tzRuAQAAIQ0T+61Md9hqnOQ9vxj/cpl/fIRAIBxY2YDAEy0Xhvz/eR5/vZzz9Y/FNWplX4H6XeRzrdYEFuoNWofWFhZuC7qAAAw9dL8+MyZiyej2qV9ji0H2Zx/dOqVj+wm3wMAAABgCNJCTS9l32cY5f5oTki/k9bvp5f0WnUxf3B1dXU+mgEAwNRK8+KYKpdqza+jyEHapN9Hx+9nrfQTTQEARp5PzgMAU6fXpy7yLHvgpm9/9c9GlZB+J+l3k857/e7S90A2s+x1X/v6Z38rLgEAwNTqNy/e9Il5OUiX9vyjXa9cJLFBDwAAAHCA1j4+UaLsExhRvrxw48K10ZwO6Xez9jsqflf9rP8uK++OZgAAMHXSfDimx10i92gVOUgP7flHZ+knmgMAjKw8jgAAE6PXokyfT1qcm5uZ/d4zZy59KuqUWF6eu+1SvfYXxWk1fVK+l+L33MgrlTede7b+gbgEAABTobo0c9/ZM7X3R3WTjnxEDrKF9vxj/cplvfKRvBCnAAAjqfezgAAAxtAuPi2RNpLfalFsa+l3lH5XxWmj3yMlzz3XqDQbjfctLc0djUsAADDx0vy318Z8BznINrTnH+tXLuuVj+wiHwQA2Fc25wGAidFvIabX4k2e528/92z9Q1FlC+l3lX5n6bzfBn1hodaofWBhZeG6qAMAwMRK894zZy6ejGqX9rmzHGT72vOPTjboAQAAAA5QWoQpU/Y9hVHuj6bsUPrdtX6PvaTXqov5g6urq/PRDAAAJk6a76Z5b0yDu7TmzVHkILuQfm8dv8e10k80BQAAAGDQYv2lS9kCTirVxfwjNo13LxYgP9L6ffYSr783mgEAwMRJ892Y/nZpzZdTkYPsXmf+0V76ieYAAAAADEqsu3QpW7iJ8uWFGxeujebsUvodrv0ui99pP+u/88q7oxkAAEyMNM+NaW+XyD1aRQ6yR+35R2fpJZoCAAAAMAix5lKqbNGmKGeXl+dui+bsUfpdpt9p+t32U7xery7N3BfNAABg7KX5bUx3u0TuIQcZsPb8o7P0Ek0BAEZCJY4AAGOn30JL9UjpNKeRVypvPXPm0qeizh6l32X6nRanjR6/85ZKs9F439LS3NGoAwDA2Erz2rNnau+Paj9ykAFqzz/Wr1zWKx+xQQ8AAAAwAGmRpUzZpyhSqR6p/Fw0ZcDS77b1e+4lXv/KwsrCddEMAADGTprPxhS3VGtenIocZDja84/20k80BQAAAGCnYn2lS9kCTZT7oylDkn7Hrd93L+m16mL+4Orq6nw0AwCAsZHmsWk+G9PbLq35cBQ5yBCl32/H73ut9BNNAQAAANiuWFfpUrYwk0p1Mf+IzeDhi4XKj7R+773E6++NZgAAMDbSPDamtV1a8+BU5CDD15l/tJd+ojkAAAAAW4n1lFJlizJF+fLCjQvXRnOGLP2u137nxe++n/X3pvLuaAYAACMvzV9jOtslco9WkYPsk/b8o7P0Ek0BAAAA6CfWUkqVLcYU5ezy8txt0Zx9kn7n6Xef3oN+itfr1aWZ+6IZAACMrDRvjWlsqcg/5CAHoD3/6Cy9RFMAgH1XiSMAwNiqHimd0jTySuWtZ85c+lTU2Sfpd55+98Vpo8d701JpNhrvW1qaOxp1AAAYOWm+evZM7f1R7dI255WDHID2/GP9ymW98hEb9AAAAAB9rH28oUTZpyNSqR6p/Fw05YCk96D1fvQSr39lYWXhumgGAAAjI81TY+paqjXfTUUOcrDa84/20k80BQAAAKAl1k26lC28RLk/mnLA0nvRel96Sa9VF/MHV1dX56MZAAAcuDQ/TfPUmLZ2ac1zo8hBRkB6Hzrel7XSTzQFAAAAINZLSpUtulQX84/Y5B0dsaD5kfTe9BPv33ujGQAAHLg0P43papeYv8pBRkx7/tFZeommAAAAANMt1kpKlS22FOXLCzcuXBvNGRHpPVl7b4r3qJ/197Dy7mgGAAAHJs1LY5raJXKPVpGDjJj2/KOz9BJNAQAAAKZXrJN0KVtkKcrZ5eW526IpIya9N+k9Su9VP8Xr9erSzH3RDAAA9l2aj8b0tFTkH3KQEdaef3SWXqIpAMBQVeIIADBSei2OVI+UTl8aeaXy1jNnLn0q6oyY9N6k96g4bfR4D1sqzUbjfUtLc0ejDgAA+ybNQ8+eqb0/ql3a5rJykBHWnn+sX9maDXoAAABgKqVFkTJln3pIpXqk8nPRlBGX3qvW+9ZLvP6VhZWF66IZAAAMXZp/xpS0VGsem4ocZDy05x/tpZ9oCgAAADD5Yj2kVNmiSlHuj6aMifSetd6/XtJr1cX8wdXV1floBgAAQ5PmnWn+GdPRLq35axQ5yBhJ71fH+7dW+ommAAAAAJMr1kFKlS2mVBfzj9i8HT+x8PmR9B72E+/ze6MZAAAMTZp3xjS0S8xL5SBjqj3/6Cy9RFMAAACAyRXrIF3KFlGK8uWFGxeujaaMmfTerb2HxXvZz/p7XXl3NAMAgIFL882YfnaJ3KNV5CBjqj3/6Cy9RFMAAACAyRPrH13KFk+KcnZ5ee62aMqYSu9hei/Te9pLvN/16tLMfdEMAAAGJs0zY+pZKuajcpAJ0J5/tJd+oikAAADA5Ih1jy6diyZR0kbtD0VTxlx6L9N7mt7bXuJ9P7e0NHc0mgEAwJ6l+WVMOUvFPFQOMkHa84/20k80BQAYiEocAQAOxE4XO/I8//lzz9Y/FFXGXHov03uazqtHyqem555rpMNCrVH7wMLKwnVrFwEAYA/SvDLNL6PapX1uKgeZHO35R7teuUhigx4AAACYCGmRo5fOTzJEuT+aMmHSe5ve437S69XF/MHV1dX5aAYAADuW5pNpXhnTzC6Re8hBJlh6Xzve57XSSzQDAAAAGF+xztGlbJGkuph/xKbs5IoF0o+k97qf6A/vjWYAALBjaT4Z08suMd+Ug0y49vyjs/QSTQEAAADGT6xvdClbHCnKlxduXLg2mjKh0nu89l4X73k/632i8u5oBgAA25bmkTGt7BK5R6vIQSZce/7RWXqJpgAAAADjI9Y1upQtihTl7PLy3G3RlAmX3uv0nqf3vpfoF/Xq0sx90QwAALaU5o8xpSwV80w5yBRpzz/aSz/RFAAAAGD0xXpGqc4FkaKkDdgfiqZMifSep/c+9YFeon+cW1qaOxrNAACgpzRvjKlkqZhfykGmUHv+0V76iaYAAAAAoyvWMUp1LoSkUj1S+bloypRJ732rH/QSr39lYWXhumgGAABd0nwxzRtjGtmlNe9MRQ4yndrzj/bSSzQDAAAAGE2xhlGqbBGkKPdHU6ZU6gOpL/STXq8u5g+urq7ORzMAANiQ5olpvhjTxy6Re8hB2Mg/Oksv0QwAAABg9MT6RZeyxY/qYv6AzVZiIfUjqU/0E/3mvdEMAAA2pHliTBu7xDxSDsKa9vyjs/QSTQEAAABGR6xbdClb9CjKkws3LlwbTZlyqS+s9Ymib/Ryue9U3h3NAAAgS/PDmDKWujyPlIOwrj3/aC/9RFMAAACAgxfrFaU6FzyKcnZ5ee62aAprUp9IfSP1kV6i/9SrSzP3RTMAAKZYmhfGVLFUzB/lIHRpzz/aSz/RFAAAAODgxDpFqc6FjqKkjdUfiqawSeobqY+kvtJL9KNzS0tzR6MZAABTKM0HY4pYKuaNchB6as8/2ks/0RQAAABg/8X6RKnOBY5UqkcqPxdNoVTqI6mv9BP96SsLKwvXRTMAAKZImgem+WBMD7vEfFEOwpZa+Udn6SWaAQAAAOy/WJ/oUra4UZT7oxn0lfpK6jP9pNeri/mDq6ur89EMAIApkOZ/aR4Y08IukXvIQdi21E86+s1a6SWaAQAAAOyfWJfoUraoUV3MH7CJynbFgusDqe/0E/3rvdEMAIApkOZ/MR3sEvNDOQg70p5/dJZeoikAAADA8MV6RKmSBY0nPX6cnVq4ceHatb7TZ0Hsch+rvCuaAQAwwdK8L6aCpS7PD+Ug7Ex7/tFe+ommAAAAAMMT6xClOhcyinJ2eXnutmgKO5L6TupDqS/1Ev2sXl2auS+aAQAwgdJ8L6aApWJeKAdh19rzj/bSTzQFAAAAGLxYfyjVuYBRlLRh+kPRFHYl9aHUl1Kf6iX627mlpbmj0QwAgAmS5nkx9SsV80E5CHvWnn+0l16iGQAAAMDgxfpDl86Fi1SqRyo/F81gT1JfSn2qn+h3X/H4UgCAyZLmd8U878mY9nWJeaAchIFp5R+dpZdoBgAAADA4se7QpWzRoij3RzMYiNSnUt/qJ71eXcwfXF1dnY9mAACMsTSvS/O7mO51idxDDsLApf7U0b/WSi/RDAAAAGDvYr2hVOdiRXUxf8DmKIMWC7MP9FsQa+uH741mAACMsTSvi6lel7a5nxyEgWvPP9pLP9EUAAAAYPdinaFU50JFUZ70WHGGpfVI09TXerncFyvvimYAAIyhNJ+LKV6py/M+OQjD0Z5/tJd+oikAAADAzsX6QqnOBYqinF1enrstmsJQpD6W+lrqc71Ef6xXl2bui2YAAIyRNI+LqV2pmO/JQRi69vyjvfQSzQAAAAB2LtYXunQuTBQlbYTeG81gqIq+9kOpz6W+10v0y3NLS3NHoxkAAGMgzd/SPC6mdV1inicHYd+05x/tpZdoBgAAALB9sa7QpXNBIpXqkcrPRTPYF6nPpb7XT/RPjzkFABgTrceIx3SuS8zv5CDsu1b+0Vl6iWYAAAAAW4v1hFIlCxL3RzPYV6nvpT7YT3q9upg/uLq6Oh/NAAAYQWm+luZtMY3rErmHHIQDk/pdRz+M3lkumgEAAAD0FusIpToXIqqL+QM2PTkosYD7QL9Fsbb++t5oBgDACErztZjCdWmb08lBODDt+Ud76SeaAgAAAHSL9YNSnQsQRfG4cA5c69GnqU/2crnPVt4VzQAAGCFpnhZTt1KX53NyEA5We/7RXvqJpgAAAACbxdpBl86Fh6KcXV6euy2awYFKfTH1ydQ3e4l+W68uzdwXzQAAGAFpfhZTtlIxj5ODMDLa84/20ks0AwAAALgs1g26dC44FCVtcN4bzWAkpD6Z+mZ021LRf88tLc0djWYAABygNC9L87OYrnWJ+ZschJHTyj/a+uha6SWaAQAAAOzwe+aPVN4WzWCkpL7Zb0EsiX7scagAAAes9XjwmKZ1iXmbHISR1co/Oksv0QwAAACYZrFOUKpkoeH+aAYjKfXR1Ff7Sa9XF/MHV1dX56MZAAD7KM3D0nwspmddIveQgzDyUv/s6K/Ri8tFMwAAAGAaxfpAqc4Fhupi/oDNTEZdLPQ+0G9RrK1fvzeaAQCwj9I8LKZmpVrzNTkIo649/2gv/URTAAAAYNrE2kCXzoWFongMOGOj9YjU1Hd7udy3K++KZgAA7IM0/4opWanL8zQ5COOhPf9oL71EMwAAAGCaxLpAl84FhaKcXV6euy2awVhIfTb13dSHe4n+Xa8uzdwXzQAAGKI074qpWKmYn8lBGDvt+Ud76SWaAQATqhJHAIA1O1gMaOSVyo+fOXPpU1GHsZD6bOq7xWlj/Uq3c8+tvVRpNhrvW1qaO7p2EQCAoUjzrTTvimqX6pGNJUw5CGOnV/7R1q83sUEPAAAAUyItAvTS+a/8q0cqb4tmMJZSH+73iZUk+rvHpgIADEnrsd8x/eoS8zE5CGOvlX+0l36iGQAAADCJIv8v1bmAUJT7oxmMtdSXU5/updXnq4v5g6urq/PRDACAAUjzqzTPiqlXl9ZcLIochLGX+nFHv47eXi6aAQAAAJMmcv8unQsH1cX8AZuUTIpYEH6g36JYW/9/bzQDAGAA0vwqplylWvMwOQiToj3/aC/9RFMAAABgUkTO36VzwaAoHu/NxGk9SjX18V4u3wOVd0UzAAD2IM2rYqpV6vL8Sw7CZGnPP9pLL9EMAAAAmASR75fqWCw4u7w8d1s0g4mS+nbq49H1S8V9UK8uzdwXzQAA2IU0n4opVqmYd8lBmFit/KOtr6+VXqIZAAAAMM4izy/VsUiQNiTvjWYwkVIfT309boFScT+cW1qaOxrNAADYgTSPSvOpmF51ifmWHISJ18o/2vp83AXlohkAAAAwjiK/L9W+OJBK9UjlbdEMJlrq61stisV94fGqAAA71Hqcd0yrusQ8Sw7C1GjlH+2ln2gGAAAAjJPV1dX5yO27dC4MFOX+aAZTIfX51Pd7ad0b1cX8wXQvRTMAAPpI86Y0f4opVZfWHCuKHISpkfp7R/+Pu6JcNAMAAADGReT0XToXBKqL+QM2H5k2sXD8QL9Fsbb75L3RDACAPtK8KaZSpVrzKzkI06Y9/2gvvUQzAAAAYBxEPt+lcyGgKB7bzdRqPXI13Qu9XL5XKu+KZgAAlEjzpZhClbo8r5KDMJ3a84/20ks0AwAAAEZZ5PGlOhYBzi4vz90WzWAqpXsg3Qtxi5SK+6VeXZq5L5oBANAmzZPSfCmmT11iPiUHYeq18o+2e2Kt9BLNAAAAgFEU+XupjuQ/bTTeG81gqqV7Id0TcauUivvm3NLS3NFoBgBAIc2P0jwppk1dYh4lB4HQyj/a7o24W8pFMwAAAGCUpEfkRe7epT3pT6V6pPK2aAYU0j3Rb1Gs7f7xGFYAgNB6THdMmbq0zaHkINCmlX+0l36iGQAAADAKVldX5yNn79KZ8Bfl/mgGtEn3RrpHemndQ9XF/MF0z0UzAICplOZDaV4UU6UurblTFDkIdEj3Rcd9EndPN/kHAAAAjJDI17t0JvrVxfwBST2UiwXmB/otirXdT++NZgAAU6mYD70npkilWvMmOQiUa88/2ksv0QwAAAA4SJGnl+pI8j2OG7aw1aNZk8v3VOVd0QwAYKqkeVBMjUpdni/JQaCfVv7Rds+slV6iGQAAAHAQIj8v1ZHcn11enrstmgF9pHsl3TNxK5WK+6peXZq5L5oBAEyFNP9J86CYFnWJeZIcBLaplX+03TtxN5WLZgAAAMB+WlqaOxq5eZf2pL4oaQPx3mgGbEO6Z9K9E7dUqbi/zqV7MZoBAEy0NO9J85+YDnWJ+ZEcBHaolX+03UNxV5WLZgAAAMB+SI++i5y8S3syn0r1SOVt0QzYgXTv9FsUa7vPPK4VAJh4W339T9vcSA4Cu9DKP9pLP9EMAAAAGKbV1dX5yMW7dCbyRbk/mgG7kO6hdC/10rrXqov5g+nejGYAABMlzXPSfCemQKVa86KiyEFgl9L903YvrZVe5B8AAACwDyIPL9WewFcX8wck67A3sRD9QL9Fsbb77j3RDABgoqR5Tkx9SrXmQ3IQ2Jv2/KO99BLNAAAAgGGI/LtUR/LuMdswIFs9wjW5fO9V3hXNAAAmQprfxJSn1OV5kBwEBqGVf7TdW2ull2gGAAAADFJ1aea+yL27dCTtZ5eX526LZsAApHsq3Vtxy5WK+6+e7tVoBgAw1tK8Js1vYrrTJeY/chAYsFb+0XaPxV1XLpoBAAAAg7C0NHc0cu4u7cl6UdLG4L3RDBigdG+leyxuvS5t9+G5dM9GMwCAsZTmM2leE1OdLm1zHzkIDEEr/2i71+LuKxfNAAAAgL1Ij7SLXLtLe5KeSvVI5W3RDBiCdI/1WxRrux891hUAGFtbfa1P25xHDgJD1Mo/2ksv8g8AAADYo9XV1fnIs0t1JOn3RzNgiNK9lu65Xlr3ZHUxfzDdw9EMAGAspPlLmsfE1KZUa75TFDkIDFm6z9ruubXSi/wDAAAA9iDy61LtiXl1MX9AEg77IxasH+i3KNZ2f74nmgEAjIU0f4kpTanWPEcOAvujPf9oL71EMwAAAGAnFo5U3hm5dZeOpNzjs2GfbfWo12TjHi3u5WgGADDS+uUgycb8Rg4C+6qVf7Tdg3FXlotmAAAAwHZUl2bui5y6S3syXpSzy8tzt0UzYB+ley/dg3Frlor7tJ7u6WgGADCS0nwlzVtiGtMl5jVyEDggrfyj7V6Mu7NcNAMAAAD6WVqaOxq5dJf2JLwoacPv3mgGHIB0D6Z7MW7RLm3367l0b0czAICRkuYpxXyl5z86bJvTyEHgALXyj7Z7Mu7SbvIPAAAA2EJ6VF3k0aXaE/DqkcrbohlwgNK92G9RrO2+9fhXAGDkbPV1PW1zGTkIjIBW/tFeepF/AAAAQA+rq6vzkT+X6ki+749mwAhI92S6N3tp3bvVxfzBdK9HMwCAA5XmJWl+ElOWUq15TFHkIDAi0v3Ydm+ulV7kHwAAAFCiSKbfE7lzl/aEu7qYPyC5htESC9sPxC1bqu0+fk80AwA4UGleElOVUq35ixwERksr/2jdo6n0E80AAACAZOFI5Z2RM3dpT7aL4rHYMKK2eiRssnEvF/d8NAMAOBD9cpBkY94iB4GR1Mo/2u7VuHvLRTMAAACYbtWlmfsiV+7SnmQX5ezy8txt0QwYQekeTfdq3MKl4n6up3s/mgEA7Ks0D0nzkZiedIn5ihwERlwr/2i7Z+MuLhfNAAAAYDotLc0djRy5VFuCnTby7o1mwAhL92q6Z+M27tJ2X59NY0A0AwDYF2n+keYhMTXp0jZXkYPAGGjlH233btzN3eQfAAAATK30CLrIj0u1J9bVI5W3RTNgDKR7tt+iWNv97TGxAMC+2epreNrmKHIQGCOt/KO99CL/AAAAYOqsrq7OVxfzByM37tKRVN8fzYAxku7ddA/30rrH01iQxoRoBgAwFFvlIElrflIUOQiMmXTftt3Da6UX+QcAAABTpUiS3xM5cZf2RLq6mD8gaYbxFAvgD8StXartfn9PNAMAGIo034gpSKnWvEQOAuOplX+07uVU+olmAAAAMNkWjlTeGblwl/Ykuigedw1jbqtHxyYb93wxNkQzAICBSvOMNN/oZWM+IgeBsdbKP9ru6bjLy0UzAAAAmEzVpZn7Igcu1ZZAn11enrstmgFjLN3L6Z6O27xL231fT2NENAMAGIg0v0jzjJh6dGmbi8hBYAK08o+2ezvu9m7yDwAAACbW0tLc0ch/S7UlzmmD7t5oBkyAdE+neztu9y5t9//ZNFZEMwCAPUnzijS/iClHl7Y5iBwEJkgr/2i7x+Ou7yb/AAAAYOJs9Wjr9oS5eqTy9mgGTJB0b/dbFGsbBzxOFgDYs518vY4cBCZPK/9oL73IPwAAAJgYq6ur89XF/MHIebt0JMv3RzNgAqV7PG79Uq2xII0ZaeyIZgAAO7JVDpK05h1pfhLNgAmT7u+2ez3u/nLyDwAAACZCkQC/J3LdLu1JcnUxf0AyDJMtFsofiCGgVNu48J5oBgCwI2keEVOLUq35hhwEJlsr/2jd86n0E80AAABgPC0cqbwzctxSbQmyx1jDlNjJI2bTGBLNAAC2Jc0f0jyil415hhwEpkIr/2i792M0KBfNAAAAYLxUl2bui9y2VFtifHZ5ee62aAZMgXTPp3s/hoMubeNDPY0l0QwAoK80b0jzh5hSdGmbY8hBYIq08o+2MSBGhW7yDwAAAMbO0tLc0chrS7UlxGnj7d5oBkyRdO+nMSCGhS5t48TZNKZEMwCAUmm+kOYNMZXo0ja3kIPAFGrlH21jQYwO3eQfAAAAjI2tHlndnghXj1TeHs2AKZTGgH6LYm3jhcfOAgA97eRrc+QgML1a+Uer9CP/AAAAYOStrq7OVxfzByOX7dKeBBfl/mgGTLE0FsQQUao1ZqSxJY0x0QwAYM1WOUjSmk+keUc0A6ZUGgfaxoQYJcrJPwAAABhpRWL7nshhS7WS3+pi/oAkF0hiQf2BGCZKtcaONMZEMwCANWl+EFOGUq15hBwESFr5R2tsSKWfaAYAAACjZeFI5Z2Ru5ZqS3w9nhrYZCdfh5HGmmgGAEy5NC9I84Ne2uYQchBgQyv/aBsjYtToJv8AAABg5FSXZu6LvLVUW8J7dnl57rZoBrAhjQ1pjIhho0vbOFJPY040AwCmVJoPpHlBTBW6tM0d5CBAl1b+0TZWxOjRTf4BAADAyFhamjuaEtrIWbu0JbppQ+3eaAbQJY0RaayI4aNL23hyNo090QwAmDJyEGAQWvlH25gRo0g3+QcAAAAHbiePoq4eqbw9mgH0lMaKGEJKtY0rHk8LAFNoqxwkac0X5CDAVtI40RozUulH/gEAAMCBWV1dna8u5g9GjlqqLcG9P5oBbCmNGTGMlGqNLWkMSmNRNAMAJpwcBBiGNF60jR0xmpSTfwAAAHAgioT1PZGblmoltdXF/AHJK7ATsfD+QAwnpVpjTBqLohkAMOFS3I+pQKnW/EAOAuxEK/9ojSGp9FK8Jv8AAABgfy0cqbwz8tJSbQmtx04Du7KTr81IY1I0AwAmVIr3Ke730jY3kIMAO9bKP9rGkhhdusk/AAAA2DfVpZn7iiS1Hjlpl7ZE9uzy8txt0Qxgx9IYksaSGF66tI039TQ2RTMAYMLIQYD90Mo/2saUGGW6yT8AAAAYuqWluaMpUY1ctEtbAps2yu6NZgC7lsaSNKbEMNOlbdw5m8aoaAYATAg5CLCfWvlHa2zpR/4BAADA0Gz1iOmklbxWj1TeHs0A9iyNKTHMlGqNPWmM8hhbAJgcchDgIKTxpDW2pNKP/AMAAICBW11dna8u5g9E7lmqLXG9P5oBDEwaW2K4KdUag4qx6sE0ZkUzAGBMyUGAg5TGlbYxJkadcvIPAAAABqpIRN8TOWepVrKaFs8kpcAwbLVA3xqHorwnmgEAYyrF8xTXe2nFfTkIMAyt/KM11mwxHsk/AAAAGIyFI5V3bpGEtorHSQNDtdWjbdvGo2Yau6IZADBm5CDAKGjlH21jToxC3eQfAAAA7Fl1aea+IvmsR67ZpS1BPbu8PHdbNAMYmjTWpDEnhqEubeNSPY1h0QwAGBNyEGCUtPKPtrEnRqNu8g8AAAB2bWlp7mhKQCPHLBWJadoAuzeaAQxdGnPS2BNDUZcYm1I5m8ayaAYAjLitcpC2GC8HAfZNK/9ojUH9yD8AAADYsa0eHZ20ktLqkcrboxnAvkljTwxHpVpjVBrLPO4WAEafHAQYZWncaY1BqfQj/wAAAGDbVldX56uL+QORU5ZqS0jfE80A9l0ag2JYKtUaq9KYlsa2aAYAjBg5CDAO0vjTNhbF6NRN/gEAAMC2tZLNXlpJqGQTOGhbLeS3xqsoFvIBYESlOJ3idS+teC4HAQ5SK/9ojUlbjFvyDwAAAPpbOFJ55xbJZat4TDQwErZ6BG7buNVMY1w0AwBGhBwEGCet/KNtbIrRqpv8AwAAgJ6qSzP3FkllPXLIUpF4nl1enrstmgEcuDQmpbEphqouMXalUi/GuvuiGQBwwLbKQdpiuBwEGBmt/KM1RvUj/wAAAKDL0tLc0ZRYRu5YKpLOtLF1bzQDGBlpbIrhqlRr4SyNdWnMi2YAwAGRgwDjrPWPi2KcilGrnPwDAACADVs9EjppJZvVI5W3RzOAkZPGqBi2SrXGsjTmeSwuABwcOQgwCdL41BqrUumleE3+AQAAQJatrq7OVxfzB7ZIIlvlPdEMYGSlsSqGr1KtMS2NfWkMjGYAwD5p5SARmku14nWK69EMYCSlcaptzIpRrJv8AwAAgI0kspdWcimJBMbFVgv+rXEtigV/ANhnKf6mONxLK07LQYBx0Mo/WmPXFuOb/AMAAGBaVY9U3tEvaUwisfT4NWCsbPWo3Bjb1koaC6MZADBkW+UgbTFaDgKMjVb+0RrD+pF/AAAATKHq0sy9RcJYj9ywVCSVZ5eX526LZgBjI41daQyLIa1LjHGp1NOYGM0AgCHZKgdpi81yEGDstPKP1ljWj/wDAABgimy1YZVEMmnDChhraQyLYa1Ua+EsjYk2AQBgeOQgwDRo/SOkGM9idCsn/wAAAJgC7Y9a66WVRFaPVN4ezQDGVhrLYngr1RrziuLxuQAwBFt93UzSisdyEGDcpXGsNaal0kvxmvwDAABgkq2urs5XF/MHtkgOW+U90Qxg7KUxLYa5Lm3jXjONkWmsjGYAwB61cpAIu6XaYrEcBJgIaTxrG9titOsm/wAAAJhgreSwn/S65BCYNFttDLQWzaLYGACAAUlxNcXXXlrxVw4CTJJW/tEa47YYB+UfAAAAk6Z6pPKOfslgEgmjx6oBE2mrR+rGGLhW0pgZzQCAXdoqB2mLvXIQYOK08o/WWNeP/AMAAGCCVJdm7i0SwXrkfKUiWTy7vDx3WzQDmDhpjIthr1Rr4SyNmWnsjGYAwA5tlYO0xVw5CDCx0viWxrnWmNeP/AMAAGACtCeCvUSSaCMKmApprIvhr1SMianYLACAXWjlIBFaS0WslYMAE6/1j5Vi3ItRsFvxmvwDAABgnLU/Qq2XVnJYPVJ5ezQDmHhpzIthsFRrbCyKx+wCwA5s9TUySSvOykGAaZHGu9bYl0ovxWvyDwAAgHG0uro6X13MH9gi6WuV90QzgKmRxr4YDru0jY/NNJamMTWaAQA9yEEAekvjXtsYGKNiN/kHAADAGGolff2k1yV9wLRqbSDEkNiltWgWxQYCAGwhxcsUN3tpxVU5CDCN2v8BU7+xMilel38AAACMi+qRyju2keil4nFpwFTb6tG7MVaulTS2RjMAoMNWOUhbTJWDAFOrlX+0xsR+5B8AAABjoLo0c2+R4NX7JXmRBJ5dXp67LZoBTK00FsbwWCrGzFTqaYyNZgBAaOUgETq7tMVSOQgw9dI4mMbD1tjYj/wDAABghLUneL1E8meDCaBNGhNjmCwVY2cqNhUAoE0rB4mQWSpiqBwEILT+UVOMjzFaditek38AAACMovZHo/XSSvqqRyo/H80ACGlsjOGyS2v8jOJxvABQ2OrrYZJW/JSDAGyWxsXWGJlKL8Vr8g8AAIBRsrq6Ol9dzB/ol8wlkfC9J5oB0CGNkTFkdokxdK2kMTeNvdEMAKbOdnKQttgpBwEokcbH1ljZj/wDAABghLSSuX7S65I5gP5aGw0xdHZpLZxFsdEAwNRKcTDFw15a8VIOAtBb+z906jemJsXr8g8AAICDVj1SecdWSVy87jFoANuQxsoYPku1xtxU0hgczQBgarRykF7aYqUcBGALra8IaY2d/cg/AAAADlB1aebeInGr90veIrk7u7w8d1s0A2ALacyMYbRUjK2p1NNYHM0AYOK1cpAIiaUiRspBALYpjZdp3IzxM0bTbsVr8g8AAICD0J649RJJncQNYBfS2BnDaakYY1Ox+QDAVGjlIBEKS0VslIMA7FDrHz/FOBqjarfiNfkHAADAfmp/5Fk/6fXqkcrPRzMAdiiNoTGkdkljbFvx2F4AJlorB4kwWKoVF+UgALuTxs/WWJpKL8Vr8g8AAID9sLq6Ol9dzB/ol6Qlkci9J5oBsEtpLI2htUuMtWsljc1pjI5mADAxtpODtMVEOQjAHqRxtDWm9iP/AAAA2AfbSdLSa5I0gMFobUjEENulNSZHsSEBwMRJ8S3FuV5acVAOArB37f8gqt/YmxSvyz8AAACGpXqk8o6tkrN43ePNAAYojakxzJZqjc2ppLE6mgHA2GvlIL20xUA5CMCAtL5KpDXG9pJek38AAAAMQXVp5t4i6apvlZQV5ezy8txt0QyAAUljawy3pWIMTqWexuxoBgBjq5WDRKgrFbFPDgIwYGlcTeNrjLMx6nYrXpN/AAAADFJ7QtaPhAxguNIYG0NulzRGtxWbFACMtVYOEmGuVMQ8OQjAkLT+kVSMtzH6ditek38AAAAMQvujzPpJr1ePVH4+mgEwJGmsjaG3SxqL24rH+wIwllo5SIS3Uq14JwcBGK40zrbG3H7SuC3/AAAA2IPV1dX56mL+wFZJWLz+nmgGwJClMTeG4C6tMTuVNIansTyaAcDIa89BemmLdXIQgH2QxtvW2NuP/AMAAGAPtpN8pdckXwD7q7VxEUNxl9bYHcXGBQBjI8WtFL96acU3OQjA/mn/h1P9xuikeF3+AQAAsFPVI5V3bJV0xeseWwZwANLYG8NxqdYYnkoa06MZAIysVg7SS1tsk4MA7LPWV460xuJe0mvyDwAAgB2oLs3cWyRT9X7JVlK8fnZ5ee62aAbAPktjcAzJpdI4HqWexvZoBgAjp5WDRAgrFTFNDgJwQNL4m8bhGI9jdO5WvCb/AAAA2I72RKsfiRbAaEhjcQzNXdJY3lZsZgAwklo5SISvUhHL5CAAB6z1j6liXI5RulvxmvwDAACgnx0+ouznoxkAByyNyTFEd2mN6VE8BhiAkdKeg/TSimNyEIDRkMbj1tjcT/G6/AMAAKDM6urqfHUxf2Cr5Cpef080A2BEpLE5huourbE9lTTWpzE/mgHAgWnPQXppi2FyEIARksbl1hjdj/wDAACgxHaSqvSapApgNKWxOYbrUq0xPooNDgAOXIpHKS710opbchCA0dP+D6y2MZbLPwAAAFqqRyrv2CqZSorXPY4MYISlMTqG7FKtsT6VNPZHMwDYd60cpJe2mCUHARhR7V9Nkkov6TX5BwAAQKG6NHNvkSTV+yVRSfH62eXluduiGQAjKo3VMXSXSuN9lHqKAdEMAPZNKweJ0FQqYpUcBGDEpXE6jdcxbsco3q14Tf4BAABMNwkUwGRKY3YM4V1aY34Umx4A7KtWDhJhqVTEKDkIwJho/aOrNH73k8Z/+QcAADCVdvjosZ+PZgCMiTR2x1DepTX2R/G4YAD2RXsO0ksrPslBAMZLGrdbY3g/xevyDwAAYLqsrq7OVxfzB7ZKmuL190QzAMZMGsNjSO/SigGppJiQYkM0A4CBa89BemmLTXIQgDGUxu/WWN5Lek3+AQAATJXtJEuJZAlgvKUxPIb0Uq1YEMVGCABDk+JMije9tOKRHARgfLX/Q6xtjPnyDwAAYPJVj1TesVWSlBSve8wYwARIY3kM7aVaMSGVFCOiGQAMTCsH6SdikRwEYMy1f4VJv7E/vSb/AAAAJlp1aebeIvmpbyNBOru8PHdbNANgzKUxPYb4Lq2YEKWeYkU0A4A9a+UgEXZKRQySgwBMiDSep3E9je/9pPgg/wAAACZSe2LULzmSGAFMpjS2x1DfpRUbotgcAWAgWjlIhJtSEXvkIAATpvWPs9I430+KE/IPAABgouzwkWI/H80AmDBpjI8hv0srRkTxWGEA9qQ9B+mlFXfkIACTKY3vrbG+n+J1+QcAADAZVldX56uL+QPbTIbeE80AmFAx5JdqxYpUUuxIMSSaAcC2tecgvbTFHDkIwARL43xrzO8lvSb/AAAAJkJ7EtQvEZIEAUyHNNbH0N+lPV5EsWECwI6l+JHiSC+tOCMHAZh87f9gaxuxQf4BEyBu603iJQCAydb++LBWKVNc9/gwgCmSxvwIAZt0xoxUPGoYgJ1o5SD9RIyRgwBMifavOukXI9Jr8g8Yb3E7l4o/AgAwmapLM/cWSU29lfi0l3ZF/ezy8txt0QyAKZHG/ggFazpjRVupp5gSzQCgp1YOEqGlVMQWOQjAlEnjfhr/UxzoJ8UR+QeMr7iVS8UfgX2RxxEA9kVKeC7Va39RnFbXr/TUyCuVHz73bP2DUQdgiqRFr2aj8cfFaWX9Sk/n5mZmv/fMmUufijoAbNLKQc491+iZg1SPrIUbOQjAlGrPP4p4sX6xRBEv5B8wpvptwueFOIWh22qhCwAGJj0q7FK99oHidKuN+TQhepdFMYDplWJAigVR7aeaYovHDwNQZjs5SGzMy0EAplh7/tGKCz3IP2BMFfd46QZ8r+sAAGNtdXV1vrqYPxCPityqvCeaATDlUkzoiBGlJcWYFGuiGQBsykF6aYslchAANuUfvaTX5B8A7JZ/DQLAQN15553X1mq1W4tc5daimo7X5XlevXTpwnfV6rXbZiozWZ5XsrxSySrFMWk0G1mzUZR0bDbPzs9f8XDR5mxxfq44frP4I58vjp+fnZ39/KOPPvqttUYATJRe8aM4Ll68+NI9xfliv/hRb9Sz2ZnZT83NHfqc+AEwPfrEj2qtdumVRYy45bOf/fz6H+7w6lffuhY/CmeuOHT4z4rjWfEDYDpsN//4zGc+u96gw9+59Rb5BwC7YnMegF05duzYVUXC8boiAbmjqG4kM0W5Or0+RM8UZS3ZieMniv/tj548efKFtVcBGGniBwC7sdv4UYzzcdat+Jlx1pf4ATDG9pp/7CGOiB8AlLI5D8C2vPGNbzx06tSpe+r1+g8U1VTuLspcem0EXCrKI0X5s5mZmT9bWVl5+MMf/vCFtVcAOFDiBwC7Maj40WtTZZsb872IHwAjahj5xwBjifgBgM15AHo7fvz4qxqNxo8Up3+v2Wx+b3G8cu2F0fdinud/URz/tFKp/NHjjz/+hfXLAOwH8QOA3RhG/CjbUNnjxnwZ8QPgAO1H/jGkeCJ+AEwhm/MAbHLPPfdcff78+R8rkpmfLKqvXb869h4qkp3fPXz48B88/PDD6bFiAAyY+AHAbuxH/GjfUBnCxnwZ8QNgyA4i/9iHeCJ+AEwBm/MAZHfeeedcrVb7oUajkRKae4syv/bCbszOZPnVC1nlmmpWuXYxy5euKn7abJancmhu4zwrzvNDxbHQvFDLsguXsubF4liUZvv5sy9kjW+dzRpPn8uazzyfZbX6WptduliUD1Yqld+dnZ390KOPPpoeJwbALokfAOyG+AHAbogfAEwCm/MAU+zuu+++4cUXX3xbs9n86aJ6zfrV7csXD2czr7g+q6wsZfk1i2sJTX7kcLw6HM3nzq8nOk8XCc+pZ7P6k09lzbPn49UdeTrP839/5ZVX/ptHHnnkdFwDYBvED/EDYDfED/EDYDfED/EDYJLYnAeYQnfdddd3XLhw4Z3F6c8U5Yq1i9uQX3VFNvPyIpkpSjrmy1fFKwereeaFrP6Vp7JGUdKx+cJL8cq2pD/824cOHfq1j3/843+9fgmAMuLHJuIHwDaJH5uIHwDbJH5sIn4ATAib8wBT5MSJE7fUarV3F6c/VZS5tYtbqNywlM0euzmrvHJl7TFf42DtMWJfPJXVPvnVrHH62bi6pfSIsN+ZnZ391ccee+yL65cASMSPvsQPgB7Ej77ED4AexI++xA+AMWdzHmAKHD9+/FWNRuOXm83mjxbVmfWrveXVK7PZ227KZo4WSc31R+LqeGo89VxWL5Kc2qe+ljXPvRhX+6rnef6HlUrllx5//PEvxDWAqSR+iB8AuyF+iB8AuyF+iB8A08DmPMAEu+eee648f/78LxZJzTuK6qH1q+XyudmscuvLstljL1/7Hq4sn7AQ0Wyufb9X7eRXsvrnvpFltXq80NOFIsn59cOHD//Kww8/vK2sCGBSiB9txA+AbRM/2ogfANsmfrQRPwAmns15gAl17Nixe4uk5jeK01esXymXH5rLZu96ZTZ799/J8sN985+J0Tx/Ias98ldZ7eNfypoX0tPA+nqySHL+xcmTJz8YdYCJJn70Jn4A9CZ+9CZ+APQmfvQmfgBMJpvzABPmxIkTN9fr9f+lSGx+OC6Vyq+cz2Zf86ps9ntuyfIr5uPqdGm+dDGr/eUXs9rHvpA1X7wYV8sVCc4fz8zM/MvHHnvsq3EJYKKIH9snfgBcJn5sn/gBcJn4sX3iB8Bk2fJ7WwAYD295y1tmZmdn39VoNP6wqB5dv9otX7gim3/Dd2fzb7o7m/nOG7J8dnpDQfq7z9x8XTZ71y1Z5cpDa9/vlV2sxatdvqv43f7zlZWVxhve8IaHPvOZzzTjOsBYEz92TvwAED92Q/wAED92Q/wAmCw+OQ8wAe64444bL1269L7i9PvXr5SYqWSzr701m3/9q7NsihOavmr17OKDn81qD30+y+qNuFjqz+fm5n78E5/4xN9GHWAsiR8DIn4AU0b8GBDxA5gy4seAiB8AY83mPMCYO378+A/W6/XfK06vX7/SbeaVK9n8PziR5VcvxBX6aT7zfHbxw5/I6l8+HVdKPTUzM/MTjz/++J9EHWCsiB+DJ34A00D8GDzxA5gG4sfgiR8A48k/PQMYU/EYsH/VaDR+s6iWZi2VxcPZ3L13ZfN/9+jad3SxPWvfZ3b05iy/7kjW/MYzWfPCpXhlk6uazeY/WVlZmX/DG97w3zwmDBgX4sfwiB/AJBM/hkf8ACaZ+DE84gfAePLJeYAxdOLEiZfV6/XfLybXb4hLm+V5Nnf338nmvm81y+Zm4yK7cqmWXfpvn8kuPfJXWdYsz1/yPP/IzMzMWx977LG/iUsAI0n82EfiBzBBxI99JH4AE0T82EfiB8DYsDkPMGaOHTt2d5HUfKA4vW79ymZ59crs0Jvvzio3lb7MLjW+9s3swn98JGueezGudPlmkeTcd/LkyUeiDjBSxI+DIX4A4078OBjiBzDuxI+DIX4AjD6b8wBj5OjRo/+wOPxRUQ6vXeiw9t1cP/yaLD98KK4wSM3zF7KLf/yxrP6lU3Gly/mi/MgnP/nJ/7xeBRgN4sfBEj+AcSV+HCzxAxhX4sfBEj8ARpvvnAcYE7fffvtPNJvNPyhOuzOX9Biwv3tbNv+P7sxyjwEbmvS7Td/llc1UssZXvxlXN5kryo/deOONT54+ffrk+iWAgyV+HDzxAxhH4sfBEz+AcSR+HDzxA2C02ZwHGAPHjh17W5HY/NvitGvcXnsM2I+9bn3Szb6Yuem6rPLy67LGl09n2cVaXN1QKd6rN6+srJwrEpyH4hrAgRA/Rov4AYwL8WO0iB/AuBA/Rov4ATCaPNYeYIQVk+T89ttv/9fF8R1xaZPKynJ26K2vz/Krrogr7KfmCy9lF37/waxx6kxc2SzP819/4okn3lUcm3EJYF+IH6NN/ABGlfgx2sQPYFSJH6NN/AAYLTbnAUZUSmyOHTv274rTn16/slnlFddnV/zo67LMY8AO1qVa9tIffjRrPPlUXNisSGx+u0hw/rkEB9gv4seYED+AESN+jAnxAxgx4seYED8ARobNeYARVSQ2v9brXxzPrH5HduhNrykynEpc4UA1GtmF//SxrP6Zv44LmxWJza+fPHnynVEFGCrxY4yIH8AIET/GiPgBjBDxY4yIHwAjwXfOA4ygIrFJ39H1y1HdZPZ7bskO3XuXxGaU5Hk2+13fljVfupg1/uaZuLjJ63yHF7AfxI8xI34AI0L8GDPiBzAixI8xI34AjASb8wAj5vbbb/+JIrH5t8Vp19NN5r7/tmz+B46uTaYZMcV7MnPLjWtJZ+MrpY8I+/s33njjl4oE52TUAQZK/BhT4gdwwMSPMSV+AAdM/BhT4gfAgbM5DzBCjh49+g+LxOYPitOu8TklNnOvf3XUGFUzN13XK8HJi/f2H99www0ff+qpp74Y1wAGQvwYf+IHcBDEj/EnfgAHQfwYf+IHwMGxOQ8wIo4dO3Z3cfhQUQ6tXWiTHgW29i+OGQspwWm+WPqIsPQstzevrKz86enTp7+xfglgb8SPySF+APtJ/Jgc4gewn8SPySF+ABwMX/gCMAJOnDjxsmaz+YHi9PD6lctmVr8jm//7x6PGuEjvWXrvShxO73V6z6MOsGvix+QRP4D9IH5MHvED2A/ix+QRPwD2n815gAP2lre8ZaZer/9+cXrd+pXLKq+4Pjv0ptesfR8UY6Z4z9J7l97DEtel9zy991EH2DHxY0KJH8CQiR8TSvwAhkz8mFDiB8C+M6gCHLDZ2dl/1Ww2fzKqGyory9kV/+QNxR8wVI+tIsGZffW3Z/Uvnc6az78UFzfc/PTTT8+cPn36z6IOsCPixwQTP4AhEj8mmPgBDJH4McHED4B9JWICHKDjx4//YKPR+M3idNM/Lc6rV2ZX/NPvz/Ir5uMKY2umks3c+rKs/um/zrKLtbi44fUve9nLHjp16tSXow6wLeLHFBA/gCEQP6aA+AEMgfgxBcQPgH3jsfYAB+SOO+64sV6v/15xunkszvNs/s13Z/lVV8QFxl16L9N7mt7bDpXUB1JfiDrAlsSP6SF+AIMkfkwP8QMYJPFjeogfAPvD5jzAAUjf1XTp0qX3FaddX+g09/23ZTM3dX19F2MuvafpvS1xfeoLvr8L2A7xY/qIH8AgiB/TR/wABkH8mD7iB8DwGUgBDsDs7Oy7isPPrNcum3nlSjb/j+6MGpNm5qZrs8Y3nsmaZ56PKxte/vTTT794+vTpB6MOUEr8mE7iB7BX4sd0Ej+AvRI/ppP4ATBcXc8nAWC4Tpw4cXOtVvtMcXp4/cq6te/p+u9/MMsPH4orTKLm+QvZS//uT7LmuRfjyobzRdK7+thjj3016gCbiB/TTfwAdkv8mG7iB7Bb4sd0Ez8Ahsdj7QH2Wb1e/43isCmxWfuerjfdLbGZAuk9Tu91yfd3HY6+AVBK/Jhu4gewW+LHdBM/gN0SP6ab+AEwPB5rD7CPjh07dm+z2fzlqG6Yu+fWbPaO74wak66ydFWWXaxlja8/HVc23LqysvLo6dOn/yrqAGvEDxLxA9gp8YNE/AB2SvwgET8AhsMn5wH2yT333HNlkdh0/cvSyuLhbO77VqPGtEjveXrvO6U+kvpKVAHEDzYRP4DtEj9oJ34A2yV+0E78ABg8m/MA++T8+fO/WBxesV67bPYHby9murNRY2oU7/nae9/tFdFXANaIH2wifgDbJH6wifgBbJP4wSbiB8DA2ZwH2AfHjx9/VbPZfGdUN8y8ciWbffW3R41pk9771Ac6FX3lHanPRBWYYuIHZcQPYCviB2XED2Ar4gdlxA+AwbI5D7APGo1G+p6u+fVamKlk8//gRFSYVmt9oOgLHQ5FnwGmnPhBL+IH0I/4QS/iB9CP+EEv4gfA4NicBxiyEydO3NJsNn80qhtmX3trll+9EDWmVeoDqS90Sn0m9Z2oAlNI/KAf8QPoRfygH/ED6EX8oB/xA2BwbM4DDFmtVnt3cZhZr63LF67I5l//6qgx7VJfSH2iw0z0HWBKiR9sRfwAyogfbEX8AMqIH2xF/AAYDJvzAEN01113fUdx+Kn12mVz99yaZbOb8h2mWdEX1vpEt5+KPgRMGfGDbRE/gA7iB9sifgAdxA+2RfwAGAib8wBDdOHChXcWh7n12rr8yvls5o7vjBqsS30i9Y0Oc9GHgCkjfrBd4gfQTvxgu8QPoJ34wXaJHwB7Z3MeYEjuvvvuG4rDz6zXLpt9zauyfH42arAu9YnUN0r8TPQlYEqIH+yE+AG0iB/shPgBtIgf7IT4AbB3NucBhuTFF198W3HY9EVM+aG5bPZ7bokabJb6RuojHa6IvgRMCfGDnRI/gET8YKfEDyARP9gp8QNgb2zOAwzBnXfeOddsNn86qhtm7yomr1d0PfoJ1qS+kfpIp9SXUp+KKjDBxA92Q/wAxA92Q/wAxA92Q/wA2Bub8wBDUKvVfqg4XLNeW5fPzWazd5c+9gk2rPWR2Zmobbgm+hRTrEhyN8QlJpD4wW6JHzDdxA92S/yA6SZ+sFviB8Du2ZwHGIJGo/GTcbqhcuvLsvzwoahBudRHZr7r26J2WVmfYnp0bsjboJ9c4ge7JX7AdBM/2C3xA6ab+MFuiR8Au2dzHqZY2txpiUsMwD333HN1cbh3vXbZ7LGXxxn016Ov3Bt9C5hQ4gd7JX7AdBI/2CvxA6aT+MFeiR8Au2NzHqZU54a8DfrBOX/+/I8Vh01fzJVXr8xmXnF91KC/1FdSn+kwH30LmFDiB3slfsB0Ej/YK/EDppP4wV6JHwC7Y3MepkzahE+iynD8VBw3zN52U5Hh5FGDLRR9Za3PdChuXY8Gg8kmfrA34gdMK/GDvRE/YFqJH+yN+AGwKzbnYYoUEyOb8kN2/PjxVxW/5nuiumHm6M1xBtvTo8+8NvWxOAcmiPjBoIgfMF3EDwZF/IDpIn4wKOIHwM7ZnAfW5IU4ZQ8ajcaPxOmGyg1LWeX6I1GD7Ul9JvWdTmV9jMnXOUYbsyeP+MGgiB8wXcQPBkX8gOkifjAo4gfAztmcB2zyDNbfi+OG2WP+1TG7M1v+r4+7+hjTIY3VLXGJySJ+MDDiB0wV8YOBET9gqogfDIz4AbAzNudhinRu6Kzt8BSiyh698Y1vPNRsNr83qhsqr1yJM9iZyi3dfSf1sdTXogpMAPGDQRM/YDqIHwya+AHTQfxg0MQPgJ2xOQ9TJvbj18QlBuTUqVPpu7quXK+ty6+6Iqtcuxg12JnUd1If6nBl9DVgQogfDJr4AdNB/GDQxA+YDuIHgyZ+AOyMzXmAAanX6z8QpxtmXn59nMHulPWhsr4GjC/xg2EQP2DyiR8Mg/gBk0/8YBjED4DtszkPMDhdE86K5IY96tGHJDcwWcQPBk78gKkgfjBw4gdMBfGDgRM/ALbP5jzAABw7duyq4nD3eu2yysuvizPYnR7/ev3u6HPAmBM/GBbxAyab+MGwiB8w2cQPhkX8ANg+m/MAA5Dn+euKw9x6bV2+eDirLC9EDXYnX75qrS91mIs+B4w58YNhET9gsokfDIv4AZNN/GBYxA+A7bM5DzAAzWbzjjjdMPOK0n8xCjtW1pfK+hwwfsQPhkn8gMklfjBM4gdMLvGDYRI/ALbH5jzAYNwaxw2VleU4g72prCzF2SZdfQ4YS+IHQyN+wEQTPxga8QMmmvjB0IgfANtjcx5gAJrNZtdEM7+mGmewN/k1i3F2WVmfA8aP+MEwiR8wucQPhkn8gMklfjBM4gfA9ticBxiMrolmRXLDgPToS5IbmAziB0MjfsBEEz8YGvEDJpr4wdCIHwDbY3MeYI/uvPPOa4vD1eu1MDuT5UcORwX2Zq0vFX2qw9XR94AxJX4wbOIHTCbxg2ETP2AyiR8Mm/gBsD025wH2qFardf0L0PzqhTiDwSjrU2V9Dxgf4gf7QfyAySN+sB/ED5g84gf7QfwA2JrNeYA9KvvuJI8EY9DK+pTv7YLxJn6wH8QPmDziB/tB/IDJI36wH8QPgK3ZnAfYu+7k5trFOIPB6NGnJDcw3sQPhk78gIkkfjB04gdMJPGDoRM/ALZmcx5g766P44Z86ao4g8Ho0ae6+h4wVsQPhk78gIkkfjB04gdMJPGDoRM/ALZmcx5gj5rNZtfzmvL52TiDwSjrU2V9Dxgf4gf7QfyAySN+sB/ED5g84gf7QfwA2JrNeYC9655gHpqLExiQ8j4luYHxJn4wfOIHTCLxg+ETP2ASiR8Mn/gBsCWb8wB71zXBzA/5l8cMVo8+JbmB8SZ+MHTiB0wk8YOhEz9gIokfDJ34AbA1m/MAe5Tn+UKcXjYnuWHASvpUad8Dxob4wb4QP2DiiB/sC/EDJo74wb4QPwC2ZHMeYI98Zxf7wXd2weQRP9gP4gdMHvGD/SB+wOQRP9gP4gfA1mzOA+xd9wTTd3YxaL6zCyaR+MHwiR8wicQPhk/8gEkkfjB84gfAlmzOA+xd1wTTd3YxaL6zCyaS+MHQiR8wkcQPhk78gIkkfjB04gfA1mzOAwAAAAAAAMCQ2ZwH2LtzcdzQvFCLMxiMHn2qq+8BY0X8YOjED5hI4gdDJ37ARBI/GDrxA2BrNucB9q57gnnhUpzAgJT3KckNjDfxg+ETP2ASiR8Mn/gBk0j8YPjED4At2ZwH2KM8z7smmM2L/uUxg1XWp8r6HjA+xA/2g/gBk0f8YD+IHzB5xA/2g/gBsDWb8wB71Gw2uyeYkhsGraRPlfY9YGyIH+wL8QMmjvjBvhA/YOKIH+wL8QNgSzbnAfaua4LZ9FgwBqxHn5LcwHgTPxg68QMmkvjB0IkfMJHED4ZO/ADYms15gD3yWDD2g8eCweQRP9gP4gdMHvGD/SB+wOQRP9gP4gfA1mzOA+zd83G8THLDoJX0KY8Fg7EnfjB84gdMIvGD4RM/YBKJHwyf+AGwJZvzAHv3VBw3NJ99Ic5gMMr6VJ7n34xTYDyJHwyd+AETSfxg6MQPmEjiB0MnfgBszeY8wN59Po4bGt86G2cwGD36VFffA8aK+MHQiR8wkcQPhk78gIkkfjB04gfA1mzOA+xRnufdyc3TntbEYJX1qbK+B4wP8YP9IH7A5BE/2A/iB0we8YP9IH4AbM3mPMAezc7Odk0wm890f40X7EVZnyrre8D4ED/YD+IHTB7xg/0gfsDkET/YD+IHwNZszgPs0aOPPvqt4vDMei3U6lnzufNRgb1Z60tFn+rwTPQ9YEyJHwyb+AGTSfxg2MQPmEziB8MmfgBsj815gMHo+hegHg3GoPToS/7VMUwG8YOhET9gookfDI34ARNN/GBoxA+A7bE5DzAAZd+d1JTcMCDNp8/G2WW+rwsmg/jBMIkfMLnED4ZJ/IDJJX4wTOIHwPbYnAcYjK6JZuPUmTiDvWmcejbONpHcwGQQPxga8QMmmvjB0IgfMNHED4ZG/ADYHpvzAAOQ5/kn4nRD/cmn4gz2pqwvlfU5YPyIHwyT+AGTS/xgmMQPmFziB8MkfgBsj815gAFoNpsfLQ6X1mvrmmfPZ80zL0QNdif1odSXOlyKPgeMOfGDYRE/YLKJHwyL+AGTTfxgWMQPgO2zOQ8wACdPnkxZzCPrtcvqX/Gvj9mbHn3okehzwJgTPxgW8QMmm/jBsIgfMNnED4ZF/ADYPpvzAIPzZ3Hc0JDcsEc9+lBXXwPGmvjBwIkfMBXEDwZO/ICpIH4wcOIHwPbZnAcYkJmZma4Jp395zF6V9aGyvgaML/GDYRA/YPKJHwyD+AGTT/xgGMQPgO2zOQ8wICsrKw8XhxfXa+uaL7yUNb51NmqwM6nvpD7U4cXoa8CEED8YNPEDpoP4waCJHzAdxA8GTfwA2Bmb8wAD8uEPf/hCnud/EdUNjS+dijPYmcYXu/tO6mOpr0UVmADiB4MmfsB0ED8YNPEDpoP4waCJHwA7Y3MeYLD+NI4baie/GmewM7VPlvadrj4GTATxg4ERP2CqiB8MjPgBU0X8YGDED4CdsTkPMECVSuWP4nRD4/SzWeOp56IG25P6TOo7ncr6GDD+xA8GRfyA6SJ+MCjiB0wX8YNBET8Ads7mPMAAPf74418oDg+t1y6rl/8LUuipR595KPoYMGHEDwZF/IDpIn4wKOIHTBfxg0ERPwB2zuY8wIDlef67cbqh9qmvZVmzGTXYQtFX1vpMh7K+BUwO8YM9Ez9gKokf7Jn4AVNJ/GDPxA+AXbE5DzBghw8f/oPicHG9tq557sWs/uRTUYP+Ul9JfabDxehbwIQSP9gr8QOmk/jBXokfMJ3ED/ZK/ADYHZvzAAP28MMPP1McPrheu6x28itxBv316CsfjL4FTCjxg70SP2A6iR/slfgB00n8YK/ED4DdsTkPMASVSqXr8U2Nz/9N1jx/IWpQLvWR+ue+EbXLyvoUMHnED3ZL/IDpJn6wW+IHTDfxg90SPwB2z+Y8wBDMzs5+qDg8vV5b17xUy2qPfCFqUK72yF8V/68etQ1PR58CJpz4wW6JHzDdxA92S/yA6SZ+sFviB8Du2ZwHGIJHH330Up7n/z6qG2of/2LWfGnT13nBhtQ3ah//UtQuS30p9amoAhNM/GA3xA9A/GA3xA9A/GA3xA+AvbE5DzAkV1555b8pDi+t19Y1L1zKan/5xajBZqlvpD7S4aXoS8CUED/YKfEDSMQPdkr8ABLxg50SPwD2xuY8wJA88sgjp4vDb6/XLqt97AtZ82ItarAu9YnUN0r8dvQlYEqIH+yE+AG0iB/shPgBtIgf7IT4AbB3NucBhujQoUO/Vhw2/VPS5osXs/onvhw1WJf6ROobHS5FHwKmjPjBdokfQDvxg+0SP4B24gfbJX4A7J3NeYAh+vjHP/7XxeF31muXXXr481lWq0eNqVf0hbU+0e13og8BU0b8YFvED6CD+MG2iB9AB/GDbRE/AAbC5jzAkM3Ozv5qcdiUyTSffym7+OBno8a0S30h9YkO9eg7wJQSP9iK+AGUET/YivgBlBE/2Ir4ATAYNucBhuyxxx77Yp7nfxjVDbWHPp81n3k+akyr1AdSX+iU+kzqO1EFppD4QT/iB9CL+EE/4gfQi/hBP+IHwODYnAfYB5VK5ZeKw4X1Wqg3sov/5bGoMK3W+kDRFzpciD4DTDnxg17ED6Af8YNexA+gH/GDXsQPgMGZiSMAQ3Tq1KlnVlZWDhWnb1i/sq555vksv+5IVrluMa4wTWqf/XpW++jnonZZnue/+sQTT/xRVIEpJn5QRvwAtiJ+UEb8ALYiflBG/AAYLJ+cB9gnhw8f/pXi8OR67bLanzyRZZdqUWNqFO/52nvf7cnoKwBrxA82ET+AbRI/2ET8ALZJ/GAT8QNg4HxyHmCffP3rX6+trKx8qTj98fUr65oXLmVZvZnNfOcNcYVpcOm/fiqrf+lU1C7L8/ynHn300c9EFUD8YBPxA9gu8YN24gewXeIH7cQPgMHzyXmAfXTy5MkPFpPXP47qhkuP/FXW+No3o8akS+91es87pb6R+khUATaIHyTiB7BT4geJ+AHslPjB/5+9fw+S7L4LBN+TWY+WWlXVVbYeJc/ix2CPTNHd6paMJR5hs8yyeBZpwBE81iywswHL3b8YMPjBRNwhuHMvweBdblz+mWCXkRTANRcHwWOAGM8SZo1axpKx1FLb+IFlSzYPtyRLbXXbLXV3VeY9v6pvdp/KPHkqqyozKx+fj+PnzHOOvv2o/OX5/r7fk30ykT8ABsPFeYAhm5mZ+df5w8WtrdBsZpf+8JGsefFS7GBSpdc4vdbpNW9zMeYGQCn5Y7rJH8BeyR/TTf4A9kr+mG7yB8DguK09wJCdPXv2xdXV1Ub+9L/Z2hMur2fNZ1/MZo+9JnYwiS7//kezxtmvxtY1tVrt3z7xxBN/FpsAHeSP6SZ/AHslf0w3+QPYK/ljuskfAIPjX84DHIDbbrvtffnDh7e2rknf4XTlI5+OLSZNem3Lvqcr9+GYEwCV5I/pJH8A+yV/TCf5A9gv+WM6yR8Ag1WLRwCG7I477rj1ypUrj+dPb97aE2q17NCPvTWbefVNsYNJsPGl57JLv/2XZbcDe3Zubu7EY4899uXYBqgkf0wX+QPoF/ljusgfQL/IH9NF/gAYPP9yHuCApMXszMzMj+ZP0y3CrskXv5fT93d9/eXYwbhLr2V6TUsKm0aaAwobYDfkj+khfwD9JH9MD/kD6Cf5Y3rIHwDD4TvnAQ7Q2bNnv7C6ujqfP33L1p5weT1rPP1cNnvs1fmZ2ueoxtqV9ezS7zyYNV+4EDuuqdVqv/zEE0/8ZmwC9Ez+mALyBzAA8scUkD+AAZA/poD8ATA0MibAAbvtttt+MV/kPhibVzXOnste/sBH8ifbP5jMGMlfu/QapteyXXrN02sfmwC7Jn9MMPkDGCD5Y4LJH8AAyR8TTP4AGCrfOQ8wAk6ePPmq9fX19P1dHV/UNbP2Ddmht9+VVsOxh7HQbGaX/vCRbONTfxc7tnludnb2xOnTp/8xtgH2RP6YQPIHMATyxwSSP4AhkD8mkPwBMHRuaw8wAs6ePXthdXU1ffr4R/Ixt7kzNJ87nzVfvpzNvP7W2MM4uPx/Pp5tPPF0bG1zsVarve2JJ574TGwD7Jn8MXnkD2AY5I/JI38AwyB/TB75A2D4XJwHGBHPPPPMP9xyyy2n86c/nI9tXzvS+McX8j31bObVHR9MZgRdeejT2fpfldYu6/l4+yc+8YkPb20C7J/8MTnkD2CY5I/JIX8AwyR/TA75A+BguDgPMEKeffbZJ2+99danms3m2/PNbfcBazz9rAJnDKTC5sqHPxlb2zTr9fq/OnPmzB/ENkDfyB/jT/4ADoL8Mf7kD+AgyB/jT/4AODjbEicAo+H48ePvzAuc/y02t5n9ltdn899zMrYYGc3m5q3A1v/6ydixXa1W+7m8sPm12AQYCPljDMkfwAiQP8bQiOSPfN4042n6PfUZYcrIH2NI/QFw4CyaAUZUXuD8al7gvCs2t5lZ+4bs0Pe/efOTyIyARiO79EcfyzY+9XexY7u8sHlfXti8OzYBBkr+GCPyBzBC5I8xMiL5I58vVy/Mt+S/t14jTBn5Y4yoPwBGggUzwIjKC5va7bff/r/njz8Zu7apv+7m7Lof+vYsm5uNPRyIK+vZyx/4SNZ46tnYsV1e2PzmE0888VP5Y0fjCmAQ5I8xIX8AI0b+GBMjlD/yueLiPCB/jAv1B8DIsGAGGGFR4Pz7/LH0E8j11ZXs0Du+I6vdcF3sYZiaX385u/S7D2WNs+diz3Z5QfO+vLB5j8IGGDb5Y7TJH8Cokj9G2yjlj3yOlP4e+e+t1whTSP4YbeoPgNFiwQwwBuI7vP7X/GnHebu2eH02//a7splX3xR7GIaNLz2XXf7DR7LmhZdizzbNvKD5ed/RBRw0+WP0yB/AOJA/Rs+o5Y98fnRcwMn/DPqMMOXkj9Gj/gAYPRbNAGPi9ttv/9FGo3F//rTzPmC1Wjb3nUezuW9/Y+xgkK585DPZlQ9/MnWkYs826/V6/X964oknfie2AQ6U/DE65A9gnMgfo2PU8kfZhfnExXkgkT9Gh/oDYDRZNAOMkWPHjv2L/OH383F4c0ebmW9czea/781Z7fCh2EM/NS9eyi7/8ceyjc+fjT0dLubjBz7xiU/8561NgNEgfxws+QMYV/LHwRrV/OFfzQM7kT8OlvoDYLRZOAOMmePHj9/VbDb/JH9aeh+wzduEff9d2cxr3Casnza++Fx2+Y+63gYsea5Wq9175syZR2IbYKTIHwdD/gDGnfxxMEY5f7g4D/RC/jgY6g+A0WfhDDCGTp48+aqNjY3fzYuct8Su7dJtwu76Z9ncW9eybK7zLmLswpX17Mpffiq78sjfpi5U7NwuL2oenJmZecfp06f/MXYBjCT5Y4jkD2CCyB9DNCb5I58LV/9w+Z9HfxEoJX8MkfoDYGzU4xGAMZIW0bfddtt35Yvq/1e+2djaW5Avwq88/Nns5f/wX7L1T/997GS30s8u/QzTz7JLYdNIr0F6LRQ2wDiQP4ZD/gAmjfwxHOOUP/I/x1WxC6CD/DEc6g+A8WIBDTDmTpw48d0bGxu/kz+9eWtPp83v8vqek1ntFQuxhyrNF76WXf4vp6u+myt5dmZm5kcff/zxP49tgLEif/Sf/AFMA/mj/+QPYBrIH/0nfwCMJxfnASbAHXfcceuVK1fenz/9zq09JWbq2ey33pbNf8c3ZdnsTOxkm/WN7PJDn87WP/rZLNvo/EB3wYfn5uZ+5LHHHvtybAOMJfmjT+QPYMrIH30ifwBTRv7oE/kDYKzJbgAT4Mtf/vLX3vrWt/7O888//1K++W35mNs8UNRsZo0vfSVbf/yprJb+d/ORrJYXPOQ/msvr2cZfP5ld+oOHs8aTZzd/Vl1crNVq//aNb3zj//KhD33ofOwDGFvyx/7IH8C0kj/2R/4AppX8sT/yB8Bk8C/nASbMyZMnX7OxsfHrzWbzX8auUrXr57PZN78hm/2W12e16+Zj73Rpvnw5W8+LmvWPfS5rvnQ59pbLi5r/NDMz89OnT5/+YuwCmCjyR+/kD4Br5I/eyR8A18gfvZM/ACaLi/MAE+r48eP35AXOr+dPX7e1p1zt0Fw2+6bXZ7N3vSGrHT4Ueydb8+KlbP2Rz2XrH38ya166Enu7eiovbH76zJkzfxrbABNN/uhO/gDoTv7oTv4A6E7+6E7+AJhMLs4DTLC77777+osXL/6bvMh5d75Z+fHi2txsVr/tVdns8ddmM6+7Od8xYSmi2cw2nno2Wz/zdLbxmX/Y/H6uHVzKi5r3HT58+JcffvjhdLs1gKkhfxTIHwA9kz8K5A+AnskfBfIHwMRzcR5gCpw4ceINjUbjl/Ii54fyzZmtvd3VFq/PZo++Ops59pqsfvOR2DueGs++mG184ovZ+ie/lDUv9FSjbORFzQfq9fovPv7445+LfQBTSf6QPwD2Qv6QPwD2Qv6QPwCmgYvzAFPk5MmTr19fX39v/vTH8zG3uXMH9VuWs9njeZHzjatZ/cal2DvaGl85nzU+fzZbP/PFrPHMV2PvjtL9wX5rdnb2V06fPv3k1i4AEvmjkvwB0IX8UUn+AOhC/qgkfwCMORfnAabQm970pm+4dOlSulXYT+bjus2dPajdcF0289qbs/rmuCmrryzEkYPVOPe1rPH0c/l4NtvIR/PrL8eRnqT/+DcPHTr0qx//+Mf/bmsXAGXkj23kD4AeyR/byB8APZI/tpE/ACaEi/MAU+yuu+665aWXXnpns9n8iXzzlVt7e1dbOrz5/V711ZWs9srFrJ6P2pHDcXQwmi9ezBrPX8ia+WicPbf5PVzN8xfj6K48X6vV/uP111//a4888sgzsQ+AHsgf8gfAXsgf8gfAXsgf8gfAJHFxHoDszjvvnFtfX//eRqPxY/nmPfmY3zywF7MzWe0VC5uFTrqNWG35hqw2P5tlh+ay2qH8cW52+3aueWk9yy5dyR75qV/Z3E6+5Zf+b1nz8nrW/OrXt27zlQqaF76WZesb8V/syeV8/Gm9Xv/t2dnZP3v00UfTrcAA2KNRyR8pX2RX8pxR2JY/AEaX/AHAXhx0/nj4v//Fzcfkzf/vn5E/ANgTF+cB2Obuu+9+xcWLF384f/rjzWbz7q29g3fmzJl4ds3x48fj2f7UarWH84ffOnz48O89/PDDL2ztBaCfDip/DJL8ATB48gcAezHs/DHIvlWL/AEwHVycB6CrEydOvKHRaPxA/vSf54XOt+WP128e6LOyAifZR5HzUl7Q/FX++KF6vf77jz/++Oe2dgMwDMPKHwMgfwAcIPkDgL0YdP4YQN+qRf4AmEIuzgPQk7e97W2Hzp49e/fGxsZ35Ztp3JWPuXRsP7oVOMkuipx0e69H8vEXMzMzf7G6uvrwBz/4wUubRwA4UIPKH30ifwCMKPkDgL3od/7oU9+qRf4AwMV5APYmL0BuqNVq395sNu/IN2/LH29Lj/l4RTreqz18+jjd1uuz+e/92Xh8LP+9P5L/Ol/fPArASOtX/tgD+QNgjMkfAOzFfvPHHvpWLfIHAKVcnAegr+68884b19fXi8XOzZcvv3x0ff3Km2r1ejZTn8lqtXqWnv/NJ/9mM6ab22+//YH84dl8bBYzs7Ozn3300Ue/snkQgIlSlj/y54v54+bI88BCcTsfyYU08mMX8mNfK27nj/IHwBSQPwDYi176V5/+dLqu3t3a2hs/OTs7n3KG/AEAAIyOtbW1+YWl2tl8NFujFxEOAAAAAANV7F/1KkIBAABGx8JS/Rd2e2G+JX4JAAAAABiYVv9qtyIcAADg4C0sz3xfXths7OXCfEv8UgAAAADQd63+VbSidiV+CQDoST0eAaDvlpfnjmWNxu/kTzfzzYUXG+mh1OKR7ilJoQMAAADAILT3r8qkvlW33pW+FQC74eI8AANxyy033LzeWP+T/OlC2u7lwrwL9AAAAAAMS7F/1a13VexXuUAPwH65OA9A362trc1ffOniH+RPX7O1p7v2oqbqAj0AAAAA9EOxf9XLhfmduEAPQC9q8QgAfbOwVHsgf/gft7a6/6v5xaX6i3kmOhKb23SLqeXiKQAAAADsSat/teOF+WbW0b/qFpPoXQFQxT9PBKCvFpbqv5A/7Hxh/kj9qcuH5t6cP31qa8923T6Z7FPIAAAAAOxHq39VdZE9lPavqv5Fvd4VAFVcnAegbxaXZ+7NS5D/Z2xWfop4bmb23stfufy36THfvLC1tzeKHAAAAAD2otW/qupbxcX3C1X9q6oL9ADQjewBQF8sL88dazYa78+fblUvFQXO0srsPefOXfmb9Dw91ur1d+RPOwJ8ChkAAACAfmnvX5WJflQj9at26l91613pWwEAAANzyy033LywVHs6H800quRFy89E2DZpfyu+fXQToQAAAABQqdi/6qbVi9pt/6qbCAMAAOiPtbW1+cWl2kO9FCT5sfsirFQ6Xvx1iqObCAUAAACAUsX+VTeFPtSe+lfdRBgAAMD+5cXHA70UInkB9GAqhCKsVBRKDxZ/veLoJsIBAAAAoMNC9K+6afWe9tO/qhKhAAAAe7ewVP+FXoqQ/NgXFm5duDHCKqX/bvO/L/y6rVElwgEAAADgqlb/qkr0nvbdv6oSoQAAALu3uDxzb150bOxUfOTHzq+szH1zhPUk/fcprvVrF0eVCAcAAACAq/2raB2Vip5T3/pXVSIUgClWj0cA6Nny8tyxZqPx/vzpZh658GIjPZSq1evvOHfuyt/EZk/Sf5/i8qcdv/Dike6pS5EDAAAAQNLevyoTfaZGP/tXVb0rAACAXVlYXbhpYan2dC+fBs6LkZ+JsD1J8a3fp310E6EAAAAATKli/6qbVo9pUP2rbiIMAACg2tra2vziUu2hnYqMJD9+X4TtS/p1Wr9f++gmQgEAAACYMsX+VTeF/tJA+1fdRBgAAEB3eVHxQC8FRl4APZgKoQjblyioHiz+vjv9/kmEAwAAADBFFqJ/VSUdH0b/qkqEAgAAdFpYqv9CL8VFfuwLC7cu3BhhfZF+vc1ft/D7t0aVCAcAAABgCrT6V1WipzS0/lWVCAUAALhmcXnm3ryY2NipqMiPnV9ZmfvmCOur9OumX7/1ZyiOKhEOAAAAwARr9a+iJVQqeklD719ViVAApkQ9HgGg1PLy3LFmo/H+/OlmzrjwYiM9lKrV6+84d+7K38RmX6VfN/36+dOOP8DiEekMAAAAYFq196/KRP+ocRD9K70rAABgRwurCzctLNWe7uVTvnmR8TMRNlDp92n9edpHNxEKAAAAwIQp9q+6afWODrp/1U2EAQAA02ptbW1+can20E7FQ5Ifvy/ChiL9fq0/V3FUiVAAAAAAJkSxf9VNoXc00v2rCAMAAKZRXiw8sFPRkOQF0IOpEIqwoYjC68HWn684qkQ4AAAAABNgIfpXVdLxUepfVYlQAABgmiws1X+hl6IhP/aFhVsXboywoUq/7+bvX/hztkaVCAcAAABgjLX6V1WiVzRy/asqEQoAAEyDxeWZe/MiYWOnYiE/dn5lZe6bI+xApN8//Tlaf9bi6CZCAQAAABhTrf5VtHtKRY9oZPtXVSIUgAlUj0cAyJaX5441G433508388OFFxvpocPikXqjVq+/49y5K38Tuw5E+v3TnyN/2vEHzf+M8Ww7BQ4AAADA+GrvX5WJvtBI96+69a4AAIApsLC6cNPCUu3pXj69mxcPPxNhIyH9eVp/7uKoEqEAAAAAjIli/6qbVl9o3PtXEQYAAEyatbW1+cWl2kM7FQVJfvy+CBsp6c/V+vMXR5UIBQAAAGDEFftX3RR6QhPRv4owAABgkuRFwAM7FQNJXgA9mAqhCBspUaA92Pp7FEeVCAcAAABghC1E/6pKOj5p/asIBQAAJsHCUv0XdioCkvz4FxZuXbgxwkZS+vNt/jkLhU1rdBOhAAAAAIyoVv+qSvSAxrZ/VSVCAQCAcba4PHNvvvjf2KkIyI+dX1mZ++YIG2npz5n+vK2/U3F0E6EAAAAAjJhW/yraOKWi9zP2/asqEQrAmKvHIwBTZnl57liz0Xh//nQzF1x4sZEeOiweqTdq9fo7zp278jexa6SlP2f68+ZPO/5C+d8lnm2nwAEAAAAYPe39qzLR75mI/lW33lWifwUAAGNqYXXhpoWl2tM7fSo3HcuLgp+JsLGS/tytv19xVIlQAAAAAA5YsX/VTavfMy39qwgDAADGxdra2vziUu2hnRb7SX78vggbS+nP3/p7FkeVCAUAAADggBT7V90Uej1T1b+KMAAAYBzki/sHdlrkJ3kB9GAqhCJsLEUh92Dr71sc3UQoAAAAAAdkIfpXVdJx/SsAAGBkLSzVf2GnxX2SH//Cwq0LN0bYWEt/j82/T6GwaY1uIhQAAACAIWv1r6pEb2fi+1dVIhQAABhFi8sz9+aL+o2dFvf5sfMrK3NHI2wi5H+fb05/r9bfvTi6iVAAAAAAhqTVv4r2TKno6UxN/6pKhAIwRurxCMAEW16eO9ZsNN6fP9087194sZEeOiweqTdq9fo7zp278snYNRHyv8/fpL9X/rT8L15CgQMAAAAwPO39qzKLRzYPTVX/Kv7OpfSvAABgxCysLty0sFR7eqdP26Zj+WL/ZyJsIqW/X+vnUBxVIhQAAACAASn2r7pp9XH0r7aLMAAA4KCtra3NLy7VHtppER/H74uwiZb+nq2fR3FUiVAAAAAA+qzYv+qm0MPRvyoRYQAAwEHKF+0P7LR4T/IC6MFUCEXYRIuC78HWz6U4uolQAAAAAPpsIfpXVdJx/Sv9KwAAGFkLS/X37rRoT/LjX1i4deHGCJsK6e+7+fcuFDat0U2EAgAAANAnrf5VlejZ6F/FqBKhAADAMC0uz9ybL9Y3dlqw58fPr6zMHY2wqZL+3unvn35GxVElQgEAAADYp1b/KtoupaJfo3+lfwUwMerxCMCEWF6eO9ZsNN6fP608xy8eqTdq9fo7zp278snYNVXS3zv9/fOnja09W/KfSzzrpMABAAAA2L9e+lfRo9G/0r8CAIDRtLC6cNPCUu3pnT5Fm47li/ifibCpln4OrZ9XcVSJUAAAAAB2qdi/6qbVn9G/2rLb/lWEAQAAg7K2tja/uFR7aKfFeRy/L8LIpZ9H6+dWHN1EGAAAAAC7UOxfdVPozehfFaSfR+Fnc3V0E2EAAMAg5IvxB3ZalCd5AfRgKoQijFwUhg+2fn7F0U2EAgAAANCjhehfVUnH9a866V8BAMCIWFiqv3enxXiSH//Cwq0LN0YYBennsvnzKRQ2aVSJUAAAAAB20OpfVYl+jP5VF936V2l0E6EAAEA/LC7P3JsvwDeqFuFJfvz8ysrc0QijRPr5pJ9T+lkWR5UIBQAAAKCLVv8q2imlog+jf7UD/SsAADggy8tzx/LF94WdFuD58Y28CPreCKNC+jmln1f6mRZHlQgFAAAAoE0v/avov+hf9Uj/CgAAhmxhdeGmfNH99E6L73Rs8Uj9ZyKMHqSfV+vnWhzdRBgAAAAABcX+VTetvov+1e7stn+VRCgAALAba2tr84tLtYd2WnTH8fsijF1IP7fWz7c4uokwAAAAAHLF/lU3hZ6L/tUepJ9b4Wd4dXQTYQAAwG7ki+wHdlpsp2N5AfRgKoQijF2IAvLB1s+5OLqJUAAAAICptxD9qyrpuP7V3ulfAQDAgC0s1d+70yI7yY9/YeHWhRsjjD1IP7/Nn2OhsEmjSoQCAAAATK1W/6pK9Fn0r/apW/8qjW4iFAAAqLK4PHNvvrDeqFpcJ/nx8ysrc0cjjH1IP8f080w/8+KoEqEAAAAAU6fVv4o2Sanor+hf9Yn+FQAA9Nny8tyxfFF9YaeFdX58Iy+CvjfC6IP080w/1/SzL45uIgwAAABgqvTSv4q+iv5Vn+22f5VEKAAAULSwunBTvph+eqcFdTq+eKT+sxFGH6Wfa6uoKY5uIgwAAABgKvTSv2r1U/SvBmO3/askQgEAgGRtbW1+can20E6L6Th+X4QxAOnn23odiqObCAMAAACYaMX+VTeFXor+1QCln2/hZ311dBNhAABAki+eH9hpEZ2O5QXQg6kQijAGIArNB1uvx06vSxKhAAAAABNrIfpXVdJx/avB69a/SqObCAUAgOm2sFR/706L5zj+hYVbF26MMAYo/Zw3f97xurRGlQgFAAAAmDit/lWV6J/oXw1Jt/5VGt1EKAAATKfF5Zl78wXzRtWiOcmPn19ZmTsaYQxB+nmnn3t6bYqjmwgDAAAAmCi99K+ib6J/NWS77V8lEQoAANNleXnuWL5YvrDTgjk/vpEXQd8bYQxR+rmnn396jYqjmwgDAAAAmAi99K+iX6J/dUB2279KIhQAAKbDwurCTfki+emdFsrp+OKR+s9GGAcg/fxbRU1xdBNhAAAAAGOtl/5Vq0+if3Wwdtu/SiIUAAAm29ra2vziUu2hnRbJcfy+COMApdeh9Xq1RpUIAwAAABhLxf5VN4U+if7VCEivQ+E1uTq6iTAAAJhs+aL4gZ0Wx+lYXgA9mAqhCOMARUH6YOt12+n1SyIUAAAAYOwsRP+qSjqufzU6uvWv0ugmQgEAYDItLNXfu9OiOI5/YeHWhRsjjBGQXo/N1yVev9aoEqEAAAAAY6PVv6oSfRH9qxHTrX+VRjcRCgAAk2VxeebefCG8UbUYjsXy+ZWVuaMRxghJr0t6feJ1UtwAAAAAE0X/avx161+l0U2EAtAn9XgE4IAsL88dazYa78+f1i+82NjaWa5Rq9ffce7clU/GNiMkvS7p9cmfbnsRF4+Up1rFDQAAADAueulfRQ9E/2qEdetfVdHDAgBgYiysLty0sFR7uurTqUk6nhc4PxthjLD0OrU+cdwaVSIMAAAAYCT10r9q9UD0r8ZDWf8qjSoRCgAA42ltbW1+can20E4L31gc3xdhjIH0esXrprgBAAAAxlYv/atC/0P/aoyk16vw2l0dVSIUAADGT77YfWCnRW86lhdAD6ZCKMIYA1G4Pth6fXd6nZMIBQAAABgZC9G/qpKO61+Nn279qzS6iVAAABgvC0v19+602I3jX1i4deHGCGOMpNdt8/WL17k1uokwAAAAgJHQ6l9ViX6H/tWY6ta/SqObCAUAgPGwuDxzb77A3aha5MYi+PzKytzRCGMMpdcvvY7xeipuAAAAgLGgfzU9uvWv0ugmQgHYg3o8AjAEy8tzx5qNxvvzp/ULLza2dpZr1Or1d5w7d+WTsc0YSq9feh3zp5UvdoviBgAAADhovfSvFo9sXlrQv5oAu+1fJXpYAACMvIXVhZsWlmpPV33qNEnH8wLnZyOMCZBez9YnjlujSoQBAAAADFUv/atWb0P/arKU9a/SqBKhAAAwWtbW1uYXl2oP7bSgjUXvfRHGBEmva7y+ihsAAABg5OhfkV7XeH23jSoRCgAAoyNfxD6w00I2Hc8LoAdTIRRhTJAocB9sFTWt0U2EAQAAAAzFgv7V1OvWv0qjmwgFAIDRsLBUf+9Oi9g4/oWFWxdujDAmUHp9N1/nmA+t0U2EAQAAAAxUq39VJfoY+lcTrlv/Ko1uIhQAAA7W4vLMvfnCdaNq8RqL2/MrK3NHI4wJll7n9HrH6664AQAAAA6U/hXtuvWv0ugmQgHYQT0eAeiz5eW5Y81G4/350/qFFxtbO9ssHtk8DTdq9fo7zp278snNnUy09Dqn1zt/Wj4p2ihuAAAAgEHRv6LMbvtXiR4WAAAHZmF14aaFpdrTVZ8mTdLxvMD52QhjiqTXvfWJ49aoEmEAAAAAfdFL/6rVs9C/mk5l/as0qkQoAAAMx9ra2vziUu2hnRaqsZi9L8KYQun1j3mwY3GT5lWEAQAAAOyL/hW9Sq9/zINto0qEAgDA4OWL0wd2WqCm43kBdMoF1+kWhfCDraKmNbqJMAAAAIB9WdC/okfd+ldpdBOhAAAwWAtL9fdWLUyTWLw+tXDrwo0RxhRL82BzPhQKmzS6iTAAAACAPdG/Yre69a/S6CZCAQBgMBaXZ+7NF6QbVYvSWLSeX1mZOxphkKX5kOZFzI/KwiaJMAAAAIBd0b9ir8r6V63RTYQCAEB/LS/PHcsXoheqFqOxWN3Ii6DvjTC4Ks2LND9inlQWNkmEAQAAAPRE/4r9KutftUY3EQoAAP2xsLpwU74AfbpqEdpapC4eqf9shEGHND9ac6U1qkQYAAAAQCX9K/qlrH+VRpUIBQCA/VlbW5tfXKo9tNMCNBap90UYdJXmScyXHYubNP8iDAAAAKCU/hX9luZJzJdto0qEAgDA3uWLzgd2Wnim43kBdMqFVHoRBfOpVlHTGt1EGAAAAECpBf0r+qxb/yqNKhEOAAC7t7BUf89OC85YlD6Vbh0WYbCjhVsXbtycNwobAAAAYB/0rxiUsv5Va3QToQAAsDuLyzP35gvNjarFZixGz6+szB2NMOhZmjdp/sQ8qixskggDAAAA2KR/xaCV9a9ao5sIBQCA3iwvzx3LF5gXqhaZsQjdyIug740w2LU0f9I8ivlUWdgkEQYAAABMOf0rhqWsf9Ua3UQoAABUS7f3yheWm7dr6qa1+Fw8Uv/ZCIM9S/OoNadaoxu3nwMAAAD0rxi2sv5VGlUiFAAAyq2trc0vLtUe2mlhGYvP+yIM9i3Np5hXOxY3aZ5GGAAAADBl9K84KGk+xbzaNqpEKAAAdMoXkw/stKBMx/MC6JQLpPRTFNanWkXNTvMwwgAAAIAps6B/xQEp61+1RpUIBwCAaxaW6u/ZaSEZi82n3FqcQSjekq41qkQYAAAAMCX0rzhoZf2r1ugmQgEAYMvi8sy9+QJyI9aLpWKReX5lZe5ohEHfpfmV5lnMt8rCJokwAAAAYMK1+ldVvYLoJehfMVBl/avW6CZCAQCYdsvLc8fyheOFqsVjLC438iLongiDgcnn2fem+RbzrrKwSfM3wgAAAIAJpX/FqCnrX7VGNxEKAMC0Kt6GqZvWonLxSP1nIwwGLs231txrjW7cpg4AAAAml/4Vo6qsf5VGlQgFAGDarK2tzS8u1R6qWjAWFpX3RRgMTZp3hTm4ObpJ8znCAAAAgAnRS/8qib6B/hVDl+ZdzL9to0qEAgAwTfJF4gM7LRTT8bwAOuXCJwchCvBTraJmp/kaYQAAAMCEWNC/YsSV9a9ao0qEAwAwDRaW6u/ZaYEYi8in3DKcg1S8dV1rVIkwAAAAYMzpXzEuyvpXrdFNhAIAMOkWl2fuzReGG7EOLBWLx/MrK3NHIwwOTJqHaT7GvKwsbNL8jjAAAABgTLX6V1U9gOgR6F8xEsr6V63RTYQCADCplpfnjuULwgux/isVi8aNvAi6J8LgwKX5mOZlzM/KwibN8wgDAAAAxkyrf1VV+0dvQP+KkVLWv2qNbiIUAIBJU7y9UjetxeLikfo7IwxGRpqXrTnaGt24nR0AAACMH/0rxl1Z/yqNKhEKAMCkWFtbm19cqj1UtRAsLBbvizAYOWl+FuZqzN5yad5HGAAAADDieulfJdET0L9iZKX5GfN026gSoQAATIJ88fdA1QKwtUDMC6BTLmgyyqJQP9Was1XzOokwAAAAYMTlNX5l/ypJx/WvGHVl/avWqBLhAACMs4Wl+nt2WvjF4vAptwJnHBRvcdca3aT5H2EAAADAiNK/YtKU9a9ao0qEAwAwjhaXZ+7NF3wbsbYrFYvC8ysrc0cjDEZemq9p3sb8rSxs0vsgwgAAAIAR0+pfVdX2UfvrXzFWyvpXrdFNhAIAMG6Wl+eO5Qu9C7GuKxWLwY28CLonwmBspHmb5m/M48rCJr0fIgwAAAAYEa3+VVVNHzW//hVjqax/1RrdRCgAAOOiddukWM+Vai0CF4/U3xlhMHbS/G3N5TSquO0dAAAAjI7ibb+7adX7+leMs/b+VXF0E6EAAIy6tbW1+cWl2kNVi7vCAvC+CIOxleZxYU7HLC+X3h8RBgAAAByQXvpXSdT6+leMvTSPYz5vG1UiFACAUZYv6h6oWti1Fn55AXTKhUomQRT0p1pzu2r+JxEGAAAAHJC8dq/sXyXpuP4Vk6Ksf9UaVSIcAIBRtLBUf0/Vgq6w6HvKLb6ZJMVb4bVGN+l9EmEAAADAkO3Uv0qitte/YqKU9a9ao0qEAwAwShaXZ+7NF3IbsWYrFYu98ysrc0cjDCZGmtdpfsc8ryxs0vslwgAAAIAhafWvqmr2qOn1r5hIZf2r1ugmQgEAGBXLy3PH8gXchVivlYpF3kZeBN0TYTBx0vxO8zzme8z+cul9E2EAAADAgLX6V1X1etTz+ldMtPb+VXF0E6EAABy01u2QYp1WqrW4WzxSf2eEwcRK87w159Oo4vZ4AAAAMHjF23l306rj9a+YBu39q+LoJkIBADgoa2tr84tLtYeqFm2Fhd19EQYTL833wtyPdyexewkAAE5zSURBVEO59D6KMAAAAKDPeulfJVHD618xNdJ8j3m/bVSJUAAADkK+WHugasHWWtDlBdApFyCZJlH4n2q9B3Z4nzwQYQAAAECfpbq7qi5P0nH9K6ZNWf+qNapEOAAAw7SwVH9P1UKtsJh7yq27mUbFW+a1Rjfp/RRhAAAAQJ/s1L9KombXv2IqlfWvWqNKhAMAMAyLyzP35gu0jViLlYpF3PmVlbmjEQZTJ83/9D6I90O8O8ql91WEAQAAAPvU6l9V1eNRr+tfMdXa+1fF0U2EAgAwaMvLc8fyhdmFWIeVisXbRl4E3RNhMLXS+yC9H+J9Ee+Scun9FWEAAADAHrX6V1V1eNTp+leQa+9fFUc3EQoAwKC0bnMU669SrUXb4pH6OyMMpl56P7TeG2lUcRs9AAAA2Lvibbq7adXn+ldwTXv/qji6iVAAAPptbW1tfnGp9lCsu0oVFmz3RRgQ0vui8B6Jd02n9D5L77cIAwAAAHrU6l9V1d1J1Ob6V9AmvS/i/bFtVIlQAAD6KV+E3V+1EGst1PIC6JQLi9ApGgSnWu+VHd5PD0QYAAAA0KO8nq7sXyXpuP4VlCvrX7VGlQgHAKAfFpbq76lagBUWaU+5JTd0V7y1Xmt0k953EQYAAADsoNW/qq619a9gJ2X9q9aoEuEAAOzH4vLMvfnCayPWWB0Ki7PzKytzRyMM6CK9T9L7pfXeqZLefxEGAAAAdNHqX1XV2VGH619BD9r7V8VRJcIBANiL5eW5Y/mC60KsrUrFomwjL4LuiTBgB+n9kt438f6Jd1O59D6MMAAAAKBNq39VVV9H/a1/BbvQ3r8qjm4iFACA3WrdvijWVaVai7HFI/V3RhjQo/S+ab2H0ugmP+Z2ewAAAFCiePvtblp1t/4V7F57/6o4uolQAAB6tba2Nr+4VHso1lOlCgux+yIM2KX0/im8l+Ld1Sm9H9P7MsIAAABg6rX6V1X1dBI1t/4V7FF6/8T7qGN0E6EAAPQiX1jdH+uoUq3FV14AnXLBEPYuGgmnWu+pNLrJj90fYQAAADD1Up1cVUcn6bj+FexPWf+qNapEOAAAVRaW6u+pWlgVFl9utQ19ULwFXxpV0vszwgAAAGBqtfpXVXV0HNe/gj5o718VR5UIBwCgzOLyzL35gmoj1k4dCouu8ysrc0cjDNin9H5K76vWe6xKep9GGAAAAEydVv+qqn6O+lr/CvqovX9VHFUiHACAouXluWP5QupCrJk6FBZbG3kRdE+EAX2S3lfp/dV6r1VJ79cIAwAAgKnR6l9V1c1RV+tfwQC096+Ko5sIBQCgpXVbolgvlWotshaP1N8ZYUCfpfdX672WRjf5MbflAwAAYKoUb6vdTaue1r+CwWnvXxVHNxEKAMDa2tr84lLtoVgnlSossO6LMGBA0vus8J6Ld2Gn9L5N798IAwAAgInV6l9V1clJ1NL6VzBg6X0W77eO0U2EAgBMt3zBdH+sj0q1FlV5AXTKhUAYvGg4nNqpoEnS+zfCAAAAYGKl+reHGln/CoakvX9VHFUiHABgOi0cqb+7asFUWFS5hTYMUfFWfWlUSe/jCAMAAICJ0+pfVdXHcVz/CoaovX9VHFUiHABguiwuz9ybL5Q2Yk3UobCYOr+yMnc0woAhSe+79P5rvRerpPdzhAEAAMDEaPWvquriqJv1r+AAtPeviqNKhAMATIfl5blj+QLpfKyFOhQWURt5EXRPhAFDlt5/6X3Yek92kx+7kN7XEQYAAABjr9W/2qEe1r+CA9bevyqObiIUAGDytW43FOugDsXF0+KR+jsjDDgg6X1YfF92kx9z+z4AAAAmQvF22VXScf0rOHjt/avi6CZCAQAm19ra2vziUu2hWP+UKiyc7osw4ICl92PrvVklvb/T+zzCAAAAYOy0+lc71cBRJ+tfwYhI78d4X3aMbiIUAGAy5Quh+2PdU6q1WMoLoFMu8MHoiMbEqZ0KmiS9zyMMAAAAxk6qa3uoffWvYMS096+Ko0qEAwBMloUj9XfHeqdUYbHk1tgwgoq39EujSnq/RxgAAACMjVTP7lT3xnH9KxhB7f2r4qgS4QAAk2FxeebefAG0EWudDoVF0vmVlbmjEQaMmPT+TO/T1nu2m/zYRnrfRxgAAACMvFb/aod6V/8KRlx7/6o4qkQ4AMB4W16eO5YvfM7HGqdDYXGULubdE2HAiErv0/R+bb13u8mPnU/v/wgDAACAkdXqX+1Q5+pfwZho718VR5UIBwAYT63bCMXapkNxUbR4pP7OCANGXHq/tt67VfLjbvMHAADASCveBrtKOq5/BeOj2L9qH91EKADA+FlbW5tfXKo9FOuaUoUF0X0RBoyJ9L5tvYerpPNAOh9EGAAAAIyMVv9qp9o26l/9Kxgz6X0b79+O0U2EAgCMl3yBc3+sZ0q1FkF5AXTKhTsYP9HAOLVTQZOk80GEAQAAwMhI9WoPNa3+FYyp9v5V++gmwgEAxsPCkfq7Yx1TqrAAcstrGGPFW/+l0c3m8fy8EGEAAABw4FKd2lM9q38FY629f1UcVSIcAGC0LS7P3Bvrl1KFxc/5lZW5oxEGjKn0Pk7v59Z7u5v82EY6P0QYAAAAHJhUn6Y6dYc6Vv8KJkR7/6o4qkQ4AMBoWl6eO5YvaM7H2qVDYdGTLtLdE2HAmEvv5/S+br3Hu8mPnU/niQgDAACAoWv1r3aoX/WvYMK096+Ko0qEAwCMltbtgWLN0qG42Fk8Uv+5CAMmRHpft97jVfLjbgcIAADAgSje3rpKOq5/BZOn2L9qH91EKADA6FhbW5tfXKo9FOuVDm0LnfsiDJgw6f3deq9XSeeLdN6IMAAAABi4Vv9qp5o16lr9K5hQ6f0d7/OO0U2EAgCMhnzhcn+sU0q1Fjd5AXTKBTmYXNHoOLVTQRPH748wAAAAGLhUh1bVqkk6rn8Fk629f9U+uolwAICDtXCk/u5Yn5QqLGzcyhqmQPEWgWl0s3k8P39EGAAAAAxMqj97qlP1r2AqtPeviqNKhAMAHIzF5Zl7Y11SqrCoOb+yMnc0woAJl97v6X3fOgd0kx/bSOeRCAMAAIC+S3Vnqj93qE/1r2DKtPeviqNKhAMADNfy8tyxWI+UKixm0sW3eyIMmBLpfZ/e/zsVNPnx8+l8EmEAAADQN6neTHVnVW2ajuVD/wqmULF/1T6qRDgAwHC0bvsTa5EOxUXM4pH6z0UYMGXS+791LqiSH3fbQAAAAPqqeNvqKum4/hVMr2L/qn10E6EAAIO3trY2v7hUeyjWIR3aFjD3RRgwpdJ5oHVOqJLOK+n8EmEAAACwZ63+1U61aNSr+lcw5dJ5IM4HHaObCAUAGKx8QXJ/rD86FBcteQF0yoU2IBoip1rnhm7i+P0RBgAAAHuW6suqGjRJx/WvgKS9f9U+uolwAIDBWDhSf3esO0oVFixuUQ1cVbyVYBrdbB7PzzMRBgAAALuW6sqe6k/9K6CgvX9VHFUiHACgvxaXZ+6N9UapwmLl/MrK3NEIA9iUzgvp/LBTQZMf30jnmwgDAACAnqV6MtWVVbVnOpYP/SugQ7F/1T6qRDgAQH8sL88di3VGqcIiJV1UuyfCALZJ54d0ntipoMmPn0/nnQgDAACAHaU6MtWTVTVnOpYP/Sugq2L/qn1UiXAAgP1p3c4n1hgdiouTxSP1n4swgFLpPNE6Z1TJj7u9IAAAAD0p3o66SjqufwXspNi/ah9VIhwAYG/W1tbmF5dqD8XaokPbwuS+CAOolM4XrXNHN+lYOv+k81CEAQAAQIdW/6qqxkyiDtW/AnqSzhdx3ugY3UQoAMDe5AuN+2Nd0aG4GMkLoFMuoAG9isbJqdY5pJs4fn+EAQAAQIdUN1bVlkk6rn8F7EZ7/6p9dBPhAAC7s3Ck/u5YT3RoW4i49TSwa7u55WA6H0UYAAAAXJXqxehPRRXZKY7rXwG7VuxflY1uIhwAoDeLyzP3xjqiVGEBcn5lZe5ohAHsSjp/pPNIVTGT5Mc30nkpwgAAAGCzf5XqxaqaMh3Lh/4VsGfF/lX7qBLhAADVlpfnjsX6oVRh8ZEult0TYQB7ks4j6XyyU0GTHz+fzk8RBgAAwBRL9WGqE6tqyXQsH/pXwL4V+1fto0qEAwCUS7fpiXVDqeKiY/FI/eciDGBf0vlkp4ImjrsNIQAAwJTbzdek6V8B/VLsX7WPKhEOALDd2tra/OJS7VSsGTq0LTjuizCAvkjnldY5ppt0LD9PPZTOVxEGAADAFGn1r6pqxyTqS/0roK/SeSXOLx2jmwgFANguX0DcH+uFDsVFRiqAXBgD+q3YYEmjmzh+f4QBAAAwRVI9WFUzJum4/hUwCO39q/bRTYQDAGxZOFJ/d6wTOrQtMNxSGhiY3dyaMJ23IgwAAIApkOrA6E9FddgpjutfAQNT7F+VjW4iHACYdovLM/fG+qBUYWFxfmVl7miEAQxEOs+k801VMZPkxzfS+SvCAAAAmGCp/kt1YFWtmI7lQ/8KGLhi/6p9VIlwAGBaLS/PHYt1QanCoiJdBLsnwgAGKp1v0nmnqqCJc9P5dB6LMAAAACZQqvtS/ddDjah/BQxNsX/VPqpEOAAwbdLtd2I9UKq4mFg8Uv+5CAMYinTe2amgieNuVwgAADChdvP1Z/pXwLAV+1fto0qEAwDTYm1tbT7WAaXaFhL3RxjAUKXzT+tc1E06trhUO5XOaxEGAADABEh1Xqr3qmrCJOpG/SvgQKTzT5yHOkY3EQoATIt8YXB/rAM6FBcPLngBB0kjBgAAYHqlOq+XelD/CjhIxf5V2egmwgGASbdwpP7uyP8d2hYObhUNHLjd3MIwnd8iDAAAgDGW6rvoT0XV1ymO618BB67Yvyob3UQ4ADCpFpdn7om836FtwXB+ZWXuaIQBHKh0PkrnpXR+6ibOXRv5ee7eCAMAAGAMpf5Vqu96qAH1r4CRUexftY8qEQ4ATJrl5bljke9LFRYL6eLWPREGMBJ205xJ57sIAwAAYIykei7VdT3UfvpXwMgp9q/aR5UIBwAmRbqtTuT5UsVFwuKR+s9FGMBISeennQqaOO62hgAAAGNmN19rpn8FjKpi/6p9VIlwAGDcra2tzUd+L9W2QLg/wgBGUjpPpfNVlXR8cal2Kp3/IgwAAIARluq3VMf1Uu+lujDCAEZSOk/F+apjVIlwAGCcRV4vVVwUuJAFjAMNGwAAgMmT6reo46Kq65SO6V8B46DYvyob3UQ4ADCuFo/U3xV5vUPbgsAtoIGxsctbHb4rwgAAABhBqW6L/lRUc53iuP4VMDaK/auy0U2EAwDjZnF55p7I5x3aFgLnV1bmjkYYwFhI5610/krnsW7iHLeRzocRBgAAwAhJ9Vqq23qo7fSvgLFT7F+VjW4iHAAYFynpRx7v0LYAcNEKGFuaOAAAAOPLh66BaVDsX7WPKhEOAIy6dLucyN+lisl/8Uj95yIMYCyl89hOxUyc89z+EAAAYETs8uvK9K+AsdbqX5WNKhEOAIyqtbW1+cjbpdoS//0RBjDW0vksndeqpOOLS7VT6TwZYQAAAByAVJel+qyXOi7VexEGMNbS+SzOax2jSoQDAKMo8nWpYrJ3gQqYJBo7AAAA4yPVZVGfRbXWKR3TvwImSbF/VTa6iXAAYNQsHqm/K/J1h7ZE79bOwMTp5ZaIrfNgOl9GGAAAAEOU6rFWbdZNHNe/AiZOsX9VNrqJcABgVCwuz9wTebpDW4I/v7IydzTCACZKOr+l81w633UT58KNdN6MMAAAAIYg1WGpHuuhZtO/AiZWsX9VNrqJcADgoKVkHvm5Q1tidzEKmHitZk+cBkvFOVGzBwAAYEh8mBrgmuKHldpHlQgHAA5Kug1O5OUO7Ul98Uj95yIMYKKl891OxUycG90mEQAAYMB6+RqyJB3XvwKmRat/VTaqRDgAMGxra2vzkY9LtSX0+yMMYCqk8146/1VJxxeXaqfS+TTCAAAA6KNUb6W6q5f6LNVxEQYwFdJ5L85/HaNKhAMAwxR5uFQxibvwBEyjXhpAhXOlBhAAAMAApHqrVXt1k47pXwHTqNi/KhvdRDgAMCyRg0u1JXC3bAamVi+3TmydLxeP1N8VYQAAAPRBqrNaNVc3cVz/Cphaxf5V2egmwgGAQVtcnrkn8m+HtsR9fmVl7miEAUyldB5M58N0Xuwmzpkb6fwaYQAAAOxDqq9SndVDLaZ/BUy9Yv+qbHQT4QDAoKQkHXm3Q1vCdpEJILSaQnG6LBXnTk0hAACAferlQ9JJqtP0rwC2FD/U1D6qRDgA0G/p9jaRbzu0J+vFI/WfjzAAcum8uFMxE+dQt1MEAADYo16+XixJx/WvALZr9a/KRpUIBwD6ZW1tbT7ybKm2RH1/hAFQkM6P6TzZTes8urhUO5XOuxEGAABAD1IdleqpqroridpL/wqgRDo/xnmyY1SJcACgHyK/liomZxeUALrrpVFUOKdqFAEAAOxCqqNaNVU36Zj+FUB3xf5V2egmwgGA/YrcWqotMbsVM8AOernFYuu8unik/q4IAwAAoEKqn1q1VDdxXP8KYAfF/lXZ6CbCAYC9ipxaqi0hn19ZmTsaYQBUSOfLdN6M02mpOLduLC7P3BNhAAAAlEh1U6qfUh3VTdRY+lcAPWr1r+L82TG6iXAAYLdS8o182qEtEbt4BLBLreZRnFZLxTlW8wgAAKCL4sWjKqn+0r8C2J3ih5/KRjcRDgD0Kt22JvJoh/YEvHik/vMRBsAupPNnVSGTxLnWbRcBAADa9PK1YUk6rn8FsDet/lXZqBLhAMBO1tbW5iN/dihJwPdHGAB7kM6j6XzaTet8u7hUO5XOzxEGAAAw1VJ9lOqkqnoqiZpK/wpgH9J5NM6nHaNKhAMAVSJvliomXReKAPavl4ZS4dyroQQAAJBL9VGrVuomHdO/Ati/Yv+qbFSJXwIAKBP5slRbwnWLZYA+ad2KMU63pVrn38Uj9XdFGAAAwFRKdVGrRuomjutfAfRJ8atEykY3EQ4AtItcWaot0Z5fWZk7GmEA9EE6r6bza5x2S8U5eGNxeeaeCAMAAJgqqR5KdVGqj7qJ2kn/CqDPWv2rOM92jG4iHABoiRxZqi3BuigEMCCtJlOcfkvFuViTCQAAmDrFi0JVUl2lfwUwGMUPSZWNbiIcAEi3o4n82KE9sS4eqf98hAEwAOk8W1XIFM7Jbs8IAABMjeLtlKuk4/pXAIPV6l+VjSoRDgDTa21tbT7yYoeSxHp/hAEwQOl8m8673bTOy4tLtVPpPB5hAAAAEynVPan+qaqTkqiV9K8AhiCdb+O82zGqRDgATKfIhx3ak6kLQADD02o8xSm5VOEcrfEEAABMtFT3tGqgbtIx/SuA4Sl+cKpsVIlfAgCmS+TBUm2J1K2TAYasdcvGOC2Xap2nF4/U3xVhAAAAEyXVO63ap5s4rn8FMGTFrxwpG91EOABMj8iBpdoS6PmVlbmjEQbAEKXzbzoPx+m5VJyrNxaXZ+6JMAAAgImQ6pxU76S6p5uoifSvAA5Iq38V5+OO0U2EAwNQj0dgRFQlvsUj296yjVq9/iPnzl35ZGwDMETp/JvOw/m5uRG7uqk3G433a0YBAACTItU3qc7Jn9YvvFhZEulfARygVv8qf1p6sm675nCVC/QATIV0m5mU9Mq0f6ItT5o/H2EAHKB0Pq76pHHh3O02jgAAwNgr3ia5SjqufwUwGlr9q7JRJcIBYPKsra3NR77rUJIw748wAEZAOi+n83M3rfP34lLtVDrfRxgAAMBYSfVMqmuq6p8kaiD9K4ARks7LcX7uGFUiHAAmS+S5Du1J0oUdgNHTalDFqbtU4VyuQQUAAIylVM+0aptu0jH9K4DRU/yAVdmoEr8EAEyGyG8dShKkWyIDjKjWrR3jFF6qdT5fPFJ/V4QBAACMhVTHtGqabuK4/hXAiCp+NUnZ6CbCAWD8RW4r1ZYYz6+szB2NMABGUDpPp/N1nMY7FM7pG4vLM/dEGAAAwEhL9UuqY1I9003UOvpXACOu1b+K83bH6CbCgX2qxyNwAKoS2uKRbW/PRq1e/5Fz5658MrYBGEHpPJ3O1/k5vBG7trnw4tXd9Waj8X5NKwAAYNSluiXVL/nTeqGmKaN/BTAGWv2r/GnpSb3t2sRVLtADMNZSIuum/ZNqeTL8+QgDYAyk83bVJ40L53i3ewQAAEZW8fbHVdJx/SuA8dLqX3Ub3UQ4AIyPtbW1+chjHUqS4P0RBsAYSefvOLWXap3nF5dqp1JeiDAAAICRkOqUVK+kuqVK1Db6VwBjKJ2/4zzeMapEOACMh8hfHdqTnws2AOOr1ciKU3ypwjlfIwsAABgpqU5p1SzdpGP6VwDjq/hBrLJRJX4JABhtkbc6lCQ+tzoGGHOtW0DGqb5D8by/eKT+rggDAAA4UKk+adUq3cRx/SuAMVf8CpOyUSV+CQAYTZGvSrUlvPMrK3NHIwyAMZbO5+m8Hqf7DoVz/8bi8sw9EQYAAHAgUl2S6pNUp3QTNYz+FcCEaPWv4vzeMbqJcGAX6vEIDFhVolo8su2t2KjV6z9y7tyVT8Y2AGMsnc/TeT0/1zdi1zYXXry6u95sNN6vuQUAAByUVI+kuiR/Wi/UKmX0rwAmSKt/lT8tPfm3XcO4ygV6AEZSui1MSlJl2j+Blie5n48wACZIOr/Hqb9UIRe4LSQAADB0xdsaV0nH9a8AJlM6v0d/qnR0E+EAcPDW1tbmF5dqpyJHbVOS3O6PMAAmUDrPRwoo1coHKW+k/BFhAAAAA9XqX6V6pErULPpXABMsnefjfN8xqkQ4ABysPGFdTWRFrX2t4UIMwOSr+sBWSyE3aHgBAABDkeqPVi3STTqmfwUw+Yof2Cob3UQ4ABycnW4BUxhuYQwwJVq3ioy6pUMxP7hVJAAAMGjF/lU3cVz/CmBKFL/qpGyUiVAAOBiLyzP35Elqoz1plYzzKytzRyMMgCmQzvvp/B+1S4dCjthI+STCAAAA+qrYv+omahP9K4Ap0+pfRR7oGEX6V9C7WjwCfZSS1pWN9b/Kny5u7emqUavXv+/CVzf+NLYBmBKpaDl/bv1PYrPD4pF6PMsuzM3Mftu5c1c+GdsAAAD7VuxfXXixsbWzRF6b6F8BTKnUv2o2Gn+cP73aqOpC/wp6tNObCdildLuXvLBJF1t2ujCf1Wq19yhsAKZTOv8vLc+8KzarLKa84vaRAABAvxT7VztcmNe/Aphi6fyf8kBsVtG/AmD41tbW5heXaqfKbvFSMu6PMACmWMoHcQewbdpyRjPll5RnIgwAAGBPiv2rKlGL6F8BsNm/irxQOfSvYGduaw97cOedd964vr5+W16n3JZvpsebarXa4pUrl964vrF+dKY+k9Vq9axWr2f1/DFpNBtZs5GP9Nhsnp+fv+7hPCZ93/CF/PG5/D/5bP742dnZ2c8++uijX9kMAmCilOWP/HHp5UsXv+tvP/vkyuZ/lPvmo99cmj/y3PLk7Ozc5/N8cUH+AAAAqvTSv/r0pz+79R+3+aZvuk3/CmBKVfWv8seVna5/6F9BNRfnocLx48dvyBPGt+cJ5I5882oyyscr0vEBeiEfm8kqHh/Lf++PnDlz5uubRwEYafIHAAAwLHutP/I6IZ5tl/968WxH6g+AMaZ/BQfDxXkoeNvb3nbo7Nmzd29sbKRPgKVxVz7m0rERcCUfj+TjL2ZmZv5idXX14Q9+8IOXNo8AcKDkDwAAYFj6UX/04cJ8N+oPgBGlfwWjwcV5pt6JEyfe0Gg0fiB/+s+bzea35Y/Xbx4YfS/VarW/yh8/VK/Xf//xxx//3NZuAIZB/gAAAIaln/VHtwvzSR8uzrdTfwAcIP0rGD0uzjOV7r777ldcvHjxh/Nk9GP55rdu7R17H82T1W8fPnz49x5++OF0WxgA+kz+AAAAhmVQ9ccA/9V8L9QfAAOmfwWjzcV5psadd945t76+/r2NRiMlpHvyMb95YC9mZ7LaKxay+isXs/qNS1lt+Yb8V5vNamkcmrv6PMuf1w7lj7nmpfUsu3Qla17OH/PRLD7/6tezxlfOZ43nL2TNF76WZesbmzF7dDkff1qv1397dnb2zx599NF0OxgA9kj+AAAAhmUY9cfHf/E34j+45u7/3y9tPqo/AMaT/hWMDxfnmXh33XXXLS+99NI7m83mT+Sbr9za27va0uFs5nU3Z/XV5az2yqXNhFQ7cjiODkbzxYtbier5PGGd/Wq28dSzWfP8xTi6K8/XarX/eP311//aI4888kzsA6AH8of8AQAAwzLs+uPhH/q/x7Msu/sD/y6e7Y76A+Dg6V/JH4wfF+eZWG9605u+4dKlS+/On/5kPq7b3NmD2g3XZTOvzZNRPtJjbeWGOHKwmue+nm08/WzWyEd6bH795TjSk/Qf/+ahQ4d+9eMf//jfbe0CoIz8sY38AQAAA6T+2Eb9AdAj+WMb+YOx4uI8E+fkyZOvX19ff2/+9MfzMbe5cwf1W5az2eOvyerfuLp5m5ZxsHkbmCfPZuuf+GLWeOarsXdH6RYvvzU7O/srp0+ffnJrFwCJ/FFJ/gAAgD5Sf1RSfwB0IX9Ukj8YCy7OMzFOnDjxhkaj8UvNZvOH8s2Zrb3d1Ravz2aPvjqbOZYnpZuPxN7x1Hj2xWwjT1Lrn/xS1rzwUuyttFGr1T5Qr9d/8fHHH/9c7AOYSvKH/AEAAMOi/lB/AOyF/CF/MDlcnGfs3X333ddfvHjx3+RJ6V355qGtveVqc7NZ/bZXZbPHX7v5PSpZbcLeAs3m5vezrJ95Otv4zD9k2fpGHOjqUp6k3nf48OFffvjhh3vKagCTQv4okD8AAGCg1B8F6g+AnskfBfIHE8LFecba8ePH78mT0q/nT1+3tadc7dBcNvumb8xm7/pnWe1wZf6aGM2Ll7L1R/42W//457PmpXQ3l0pP5Unqp8+cOfOnsQ0w0eSP7uQPAADoL/VHd+oPgO7kj+7kD8aZi/OMpZMnT75mY2Pj/5Mnpu+LXaVq189ns29+Qzb7La/PatfNx97p0nz5crb+109m6x/7XNZ86XLsLZcnqD+emZn516dPn/5i7AKYKPJH7+QPAADYH/VH79QfANfIH72TPxhHO34vBYySH/zBH5yZnZ19T6PR+EC+eWxrb6fawnXZ/Fu+OZv//ruymX96S1abnd6pnv7uM6+5KZt90+uz+vWHNr+fJbu8Hkc7vDH/2f7U6upq4y1vectHP/WpTzVjP8BYkz92T/4AAIC9UX/snvoDQP7YC/mDceRfzjM27rjjjluvXLny/vzpd27tKTFTz2a/9bZs/ju+KcumOCFVWt/ILj/06Wz9o5/Nso1G7Cz14bm5uR957LHHvhzbAGNJ/ugT+QMAAHak/ugT9QcwZeSPPpE/GAMuzjMWTpw48d0bGxu/kz+9eWtPp5lvXM3mv+dkVnvFQuyhSvOFr2WXP/hYtvGFZ2JPqWdnZmZ+9PHHH//z2AYYK/JH/8kfAABQTv3Rf+oPYBrIH/0nfzDKfLSGkRa3cfl3jUbjN/LN0qxTXzqczd3zpmz+vz62+R0r9Gbz+2iOvSar3XQka/7DC1nz0pU4ss0NzWbzf1hdXZ1/y1ve8pdu8wKMC/ljcOQPAADYTv0xOOoPYJLJH4MjfzDK/Mt5RtbJkydftbGx8bv5yfEtsWu7Wi2bu+ufZXNvXcuyudnYyZ5cWc+u/OWnsiuP/G2WNcvzT61We3BmZuYdp0+f/sfYBTCS5I8hkj8AAJhy6o8hUn8AE0T+GCL5gxHj4jwj6fjx43flSelP8qc3be3ZrrZ4fXbo7Xdl9VeXHmaPGl96Lrv0h49kzQsvxZ4Oz+VJ6t4zZ848EtsAI0X+OBjyBwAA00j9cTDUH8C4kz8OhvzBqHBxnpFz7Nixf5E//H4+Dm/uaLP53Srf9+asdvhQ7KGfmhcvZZf/+GPZxufPxp4OF/PxA5/4xCf+89YmwGiQPw6W/AEAwDRRfxws9QcwruSPgyV/MAp85zwj5fbbb//RZrP5e/nTzsyTbuPyXx/N5v+7O7Oa27gMTPrZpu9iyWbqWeOLz8Xebeby8cO33nrrU88888yZrV0AB0v+OHjyBwAA00L9cfDUH8A4kj8OnvzBKHBxnpFx/Pjxd+aJ6T/kTzvm5eZtXH7427dOmgzFzKtvyuqvvSlrfOGZLLu8Hnuvquev1dtXV1cv5Anqo7EP4EDIH6NF/gAAYJKpP0aL+gMYF/LHaJE/OEhua8+By09ytdtvv/3f54/vil3b1FdXskPv+I6sdsN1sYdhan795ezS7z6UNc6eiz3b1Wq19z3xxBPvyR+bsQtgKOSP0SZ/AAAwSdQfo039AYwq+WO0yR8cBBfnOVApMR0/fvz/yJ/+xNae7eqvuzm77oe+PcvcxuVgXVnPXv7AR7LGU8/Gju3yxPSbeYL6KQkKGBb5Y0zIHwAATAD1x5hQfwAjRv4YE/IHQ+biPAcqT0y/2u0TYzNr35Ad+v435xmqHns4UI1GdumPPpZtfOrvYsd2eWJ635kzZ94dmwADJX+MEfkDAIAxp/4YI+oPYITIH2NE/mCIfOc8ByZPTOk7Vn4pNreZ/ZbXZ4fueZPENEpqtWz2jf8ka758OWv84wuxc5tv9x0swDDIH2NG/gAAYIypP8aM+gMYEfLHmJE/GCIX5zkQt99++4/miek/5E877t4w951Hs/nvOrZ5MmTE5K/JzOtv3Vw0NJ4uvcXLf3vrrbd+Pk9QZ2IboK/kjzElfwAAMIbUH2NK/QEcMPljTMkfDImL8wzdsWPH/kWemH4vf9ox/1JimvuOb4otRtXMq2/qlqBq+Wv7L2+55ZaPP/vss0/GPoC+kD/Gn/wBAMC4UH+MP/UHcBDkj/EnfzBoLs4zVMePH78rf/izfBza3FGQbuWy+YkxxkJKUM2XSm/xku7F8/bV1dUPPfPMM/+wtQtgf+SPySF/AAAw6tQfk0P9AQyT/DE55A8GyRdaMDQnT558VbPZ/JP86eGtPdfMrH1DNv/fnogtxkV6zdJrV+Jweq3Tax7bAHsmf0we+QMAgFGl/pg86g9gGOSPySN/MCguzjMUP/iDPzizsbHxu/nTm7b2XFN/3c3Zoe9/8+b3eTBm8tcsvXbpNSxxU3rN02sf2wC7Jn9MKPkDAIARpP6YUOoPYMDkjwklfzAgJg1DMTs7+++azeaPxeZV9dWV7Lr/4S35f2Aqjq08Qc1+03+VbXz+maz5tZdj51Wvef7552eeeeaZv4htgF2RPyaY/AEAwIhRf0ww9QcwQPLHBJM/GABnBAbuxIkT391oNH4jf7rto2G1xeuz6/7H78xq183HHsbWTD2bue1V2cbf/F2WXV6PnVd9x6te9aqPnj179guxDdAT+WMKyB8AAIwI9ccUUH8AAyB/TAH5gz5zW3sG6o477rh1Y2Pjd/Kn2+darZbNv/2urHbDdbGDcZdey/Sapte2TT3NgTQXYhtgR/LH9JA/AAA4aOqP6aH+APpJ/pge8gf95OI8A5O+a+PKlSvvz592fCHH3HcezWZe3fH1K4y59Jqm17bEzWku+P4VoBfyx/SRPwAAOCjqj+mj/gD6Qf6YPvIH/WKiMDCzs7PvyR9+cmvrmplvXM3m/7s7Y4tJM/PqG7PGP7yQNc99LfZc9drnn3/+pWeeeeah2AYoJX9MJ/kDAICDoP6YTuoPYL/kj+kkf9APHfdfgH44efLka9bX1z+VPz28tWfL5ves/M/fndUOH4o9TKLmxUvZy//Hn2fNCy/Fnqsu5ouWtdOnT38xtgG2kT+mm/wBAMAwqT+mm/oD2Cv5Y7rJH+yX29ozEBsbG7+eP2xLTJvfs/L9d0lMUyC9xum1Lvn+lcMxNwBKyR/TTf4AAGCY1B/TTf0B7JX8Md3kD/bLbe3pu+PHj9/TbDZ/KTavmrv7tmz2jn8aW0y6+vINWXZ5PWv8/fOx56rbVldXH33mmWf+NrYBNskfJPIHAADDoP4gUX8AuyV/kMgf7Id/OU9f3X333dfnianjk0H1pcPZ3FvXYotpkV7z9Nq3S3MkzZXYBJA/2Eb+AABgkNQfFKk/gF7JHxTJH+yVi/P01cWLF/9N/vC6ra1rZr/79vxMNRtbTI38Nd987Tu9LuYKwCb5g23kDwAABkj9wTbqD6BH8gfbyB/skYvz9M2JEyfe0Gw23x2bV81842o2+03/VWwxbdJrn+ZAu3yuvCvNmdgEppj8QRn5AwCAQVB/UEb9AexE/qCM/MFeuDhP3zQajfQ9K/NbW2Gmns1/z8nYYFptzoF8LrQ5FHMGmHLyB93IHwAA9Jv6g27UH0AV+YNu5A92y8V5+uLkyZOvbzabPxSbV81+621Z7RULscW0SnMgzYV2ac6kuRObwBSSP6gifwAA0E/qD6qoP4Bu5A+qyB/slovz9MX6+vp784eZra0ttYXrsvnv+KbYYtqluZDmRJuZmDvAlJI/2In8AQBAv6g/2In6Aygjf7AT+YPdcHGefXvTm970DfnDj29tXTN3921ZNrstXzHN8rmwOSc6/XjMIWDKyB/0RP4AAKAP1B/0RP0BtJE/6In8wS64OM++Xbp06d35w9zW1pba9fPZzB3/NLZgS5oTaW60mYs5BEwZ+YNeyR8AAOyX+oNeqT+AIvmDXskf9MrFefblrrvuuiV/+MmtrWtm3/yGrDY/G1uwJc2JNDdK/GTMJWBKyB/shvwBAMB+qD/YDfUH0CJ/sBvyB71ycZ59eemll96ZP2z7Io3aobls9lteH1uwXZobaY60uS7mEjAl5A92S/4AAGCv1B/slvoDSOQPdkv+oBcuzrNnd95551yz2fyJ2Lxq9k35yee6jlt3wKY0N9IcaZfmUppTsQlMMPmDvZA/AADYC/UHe6H+AOQP9kL+oBcuzrNn6+vr35s/vHJra0ttbjabvav0th1w1eYcmZ2JrateGXMKmHDyB3slfwAAsFvqD/ZK/QHTTf5gr+QPduLiPHvWaDR+LJ5eVb/tVVnt8KHYgnJpjsy88Z/E1jVlcwqYPPIHeyV/AACwW+oP9kr9AdNN/mCv5A924uI8e3L33Xe/In+4Z2vrmtnjr41nUK3LXLkn5hYwoeQP9kv+AACgV+oP9kv9AdNJ/mC/5A+quDjPnly8ePGH84dtX6xSW7w+m3ndzbEF1dJcSXOmzXzMLWBCyR/sl/wBAECv1B/sl/oDppP8wX7JH1RxcZ69+vF4vGr26KvzDFWLLdhBPlc250ybZrPp1i4w2eQP9kf+AACgd+oP9kf9AdNK/mB/5A8quDjPrp04ceIN+Qnk7ti8aubYa+IZ9KbLnPnWNMfiOTBB5A/6Rf4AAGAn6g/6Rf0B00X+oF/kD7pxcZ5dazQaPxBPr6rfspzVbz4SW9CbNGfS3GlXNseA8Sd/0C/yBwAAO1F/0C/qD5gu8gf9In/QjYvz7MU/j8erZo/71Bh7M1v+6bGOOQZMBPmDvpE/AADYgfqDvlF/wFSRP+gb+YMyLs6zK29729sONZvNb4vNq+rfuBrPYHfqr++cO2mOpbkWm8AEkD/oN/kDAIBu1B/0m/oDpoP8Qb/JH5RxcZ5dOXv2bPquleu3trbUbrguq9+4FFuwO2nupDnU5vqYa8CEkD/oN/kDAIBu1B/0m/oDpoP8Qb/JH5RxcZ5d2djY+K54etXMa2+OZ7A3ZXOobK4B40v+YBDkDwAAyqg/GAT1B0w++YNBkD9o5+I8u9VxwqhLTuxTlzkkOcFkkT/oO/kDAIAu1B/0nfoDpoL8Qd/JH7RzcZ6eHT9+/Ib84a6trWvqr70pnsHedPn04V0x54AxJ38wKPIHAADt1B8MivoDJpv8waDIH7RzcZ6e1Wq1b88f5ra2ttSWDmf1lYXYgr2prdywOZfazMWcA8ac/MGgyB8AALRTfzAo6g+YbPIHgyJ/0M7FeXrWbDbviKdXzbyu9BM/sGtlc6lszgHjR/5gkOQPAACK1B8MkvoDJpf8wSDJHxS5OM9u3BaPV9VXV+IZ7E99dTmebdMx54CxJH8wMPIHAABt1B8MjPoDJpr8wcDIHxS5OE/Pms1mx4mi9srFeAb7U3vlUjy7pmzOAeNH/mCQ5A8AAIrUHwyS+gMml/zBIMkfFLk4z250nCjqkhN90mUuSU4wGeQPBkb+AACgjfqDgVF/wESTPxgY+YMiF+fpyZ133nlj/vCKra0wO5PVjhyODdifzbmUz6k2r4i5B4wp+YNBkz8AAGhRfzBo6g+YTPIHgyZ/UOTiPD1ZX1/v+ARP7RUL8Qz6o2xOlc09YHzIHwyD/AEAQKL+YBjUHzB55A+GQf6gxcV5elL23Rdu6UK/lc0p37sC403+YBjkDwAAEvUHw6D+gMkjfzAM8gctLs7Tq87kdONSPIP+6DKnJCcYb/IHAyd/AAAQ1B8MnPoDJpL8wcDJH7S4OE+vbo7Hq2rLN8Qz6I8uc6pj7gFjRf5g4OQPAACC+oOBU3/ARJI/GDj5gxYX5+lJs9nsuN9GbX42nkF/lM2psrkHjA/5g2GQPwAASNQfDIP6AyaP/MEwyB+0uDhPrzpPEIfm4gn0SfmckpxgvMkfDJ78AQDAFvUHg6f+gEkkfzB48gfBxXl61XGCqB3yyTH6q8uckpxgvMkfDJz8AQBAUH8wcOoPmEjyBwMnf9Di4jw9qdVqC/H0mjnJiT4rmVOlcw8YG/IHQyF/AACQU38wFOoPmDjyB0MhfxBcnKcnvnOFYfCdKzB55A+GQf4AACBRfzAM6g+YPPIHwyB/0OLiPL3qPEH4zhX6zXeuwCSSPxg8+QMAgC3qDwZP/QGTSP5g8OQPgovz9KrjBOE7V+g337kCE0n+YODkDwAAgvqDgVN/wESSPxg4+YMWF+cBAAAAAAAAYMBcnKdXF+Lxqual9XgG/dFlTnXMPWCsyB8MnPwBAEBQfzBw6g+YSPIHAyd/0OLiPL3qPEFcuhJPoE/K55TkBONN/mDw5A8AALaoPxg89QdMIvmDwZM/CC7O05NardZxgmhe9skx+qtsTpXNPWB8yB8Mg/wBAECi/mAY1B8weeQPhkH+oMXFeXrSbDY7TxCSE/1WMqdK5x4wNuQPhkL+AAAgp/5gKNQfMHHkD4ZC/iC4OE+vOk4QTbd1oc+6zCnJCcab/MHAyR8AAAT1BwOn/oCJJH8wcPIHLS7O0xO3dWEY3NYFJo/8wTDIHwAAJOoPhkH9AZNH/mAY5A9aXJynV1+Lx2skJ/qtZE65rQuMPfmDwZM/AADYov5g8NQfMInkDwZP/iC4OE+vno3Hq5pf/Xo8g/4om1O1Wu25eAqMJ/mDgZM/AAAI6g8GTv0BE0n+YODkD1pcnKdXn43HqxpfOR/PoD+6zKmOuQeMFfmDgZM/AAAI6g8GTv0BE0n+YODkD1pcnKcntVqtMzk9724b9FfZnCqbe8D4kD8YBvkDAIBE/cEwqD9g8sgfDIP8QYuL8/Rkdna24wTRfKHza1hgP8rmVNncA8aH/MEwyB8AACTqD4ZB/QGTR/5gGOQPWlycpyePPvroV/KHF7a2wvpG1nzxYmzA/mzOpXxOtXkh5h4wpuQPBk3+AACgRf3BoKk/YDLJHwya/EGRi/PsRscneNzahX7pMpd8agwmg/zBwMgfAAC0UX8wMOoPmGjyBwMjf1Dk4jw9K/vui6bkRJ80nz8fz67xfSswGeQPBkn+AACgSP3BIKk/YHLJHwyS/EGRi/PsRseJonH2XDyD/Wmc/Wo820ZygskgfzAw8gcAAG3UHwyM+gMmmvzBwMgfFLk4T89qtdpj8fSqjaeejWewP2VzqWzOAeNH/mCQ5A8AAIrUHwyS+gMml/zBIMkfFLk4T8+azeZH8ocrW1tbmucvZs1zX48t2Js0h9JcanMl5hww5uQPBkX+AACgnfqDQVF/wGSTPxgU+YN2Ls7TszNnzqQs9MjW1jUbT/v0GPvTZQ49EnMOGHPyB4MifwAA0E79waCoP2CyyR8MivxBOxfn2a2/iMerGpIT+9RlDnXMNWCsyR/0nfwBAEAX6g/6Tv0BU0H+oO/kD9q5OM+uzMzMdJwwfHKM/SqbQ2VzDRhf8geDIH8AAFBG/cEgqD9g8skfDIL8QTsX59mV1dXVh/OHl7a2tjS//nLW+Mr52ILdSXMnzaE2L8VcAyaE/EG/yR8AAHSj/qDf1B8wHeQP+k3+oIyL8+zKBz/4wUu1Wu2vYvOqxufPxjPYncaTnXMnzbE012ITmADyB/0mfwAA0I36g35Tf8B0kD/oN/mDMi7Osxcfiser1s98MZ7B7qx/onTudMwxYCLIH/SN/AEAwA7UH/SN+gOmivxB38gflHFxnl2r1+u/H0+vajzz1azx7IuxBb1JcybNnXZlcwwYf/IH/SJ/AACwE/UH/aL+gOkif9Av8gfduDjPrj3++OOfyx8+urV1zUb5J4Cgqy5z5qMxx4AJI3/QL/IHAAA7UX/QL+oPmC7yB/0if9CNi/PsSa1W++14etX6J7+UZc1mbMEO8rmyOWfalM0tYHLIH+yb/AEAQI/UH+yb+gOmkvzBvskfVHBxnj05fPjw7+UPl7e2tjQvvJRtPPVsbEG1NFfSnGlzOeYWMKHkD/ZL/gAAoFfqD/ZL/QHTSf5gv+QPqrg4z548/PDDL+QPf7q1dc36mafjGVTrMlf+NOYWMKHkD/ZL/gAAoFfqD/ZL/QHTSf5gv+QPqrg4z57V6/WO2280PvuPWfPipdiCcmmObHzmH2LrmrI5BUwe+YO9kj8AANgt9Qd7pf6A6SZ/sFfyBztxcZ49m52d/bP84fmtrS3NK+vZ+iOfiy0ot/7I3+b/txFbVz0fcwqYcPIHeyV/AACwW+oP9kr9AdNN/mCv5A924uI8e/boo49eqdVq/zE2r1r/+JNZ8+VtX8cCV6W5sf7xz8fWNWkupTkVm8AEkz/YC/kDAIC9UH+wF+oPQP5gL+QPeuHiPPty/fXX/1r+8PLW1pbmpSvZ+l8/GVuwXZobaY60eTnmEjAl5A92S/4AAGCv1B/slvoDSOQPdkv+oBcuzrMvjzzyyDP5w29ubV2z/rHPZc3L67EFW9KcSHOjxG/GXAKmhPzBbsgfAADsh/qD3VB/AC3yB7shf9ArF+fZt0OHDv1q/rDto0DNly5nG499IbZgS5oTaW60uRJzCJgy8ge9kj8AANgv9Qe9Un8ARfIHvZI/6JWL8+zbxz/+8b/LH35ra+uaKw9/NsvWN2KLqZfPhc050em3Yg4BU0b+oCfyBwAAfaD+oCfqD6CN/EFP5A92wcV5+mJ2dvZX8odtmaj5tZezyw99OraYdmkupDnRZiPmDjCl5A92In8AANAv6g92ov4Aysgf7ET+YDdcnKcvTp8+/WStVvtAbF61/tHPZs0XvhZbTKs0B9JcaJfmTJo7sQlMIfmDKvIHAAD9pP6givoD6Eb+oIr8wW65OE/f1Ov1X8wfLm1thY1Gdvm/nI4NptXmHMjnQptLMWeAKSd/0I38AQBAv6k/6Eb9AVSRP+hG/mC3ZuIR9u3s2bMvrK6uHsqfvmVrz5bmua9ltZuOZPWblmIP02T903+frX/kM7F1Ta1W+5Unnnji92MTmGLyB2XkDwAABkH9QRn1B7AT+YMy8gd74V/O01eHDx/+5fzhqa2ta9b//Iksu7IeW0yN/DXffO07PRVzBWCT/ME28gcAAAOk/mAb9QfQI/mDbeQP9si/nKev/v7v/359dXX18/nTH9nas6V56UqWbTSzmX96S+xhGlz5vz6ZbXz+bGxdU6vVfvzRRx/9VGwCyB9sI38AADBI6g+K1B9Ar+QPiuQP9sq/nKfvzpw586f5yeePY/OqK4/8bdb40nOxxaRLr3V6zduluZHmSGwCXCV/kMgfAAAMg/qDRP0B7Jb8QSJ/sB8uzjMQMzMz/zp/uLi1FZrN7NIfPpI1L16KHUyq9Bqn1zq95m0uxtwAKCV/TDf5AwCAYVJ/TDf1B7BX8sd0kz/YL7e1ZyDOnj374urqaiN/+t9s7QmX17Pmsy9ms8deEzuYRJd//6NZ4+xXY+uaWq32b5944ok/i02ADvLHdJM/AAAYJvXHdFN/AHslf0w3+YP98i/nGZjbbrvtffnDh7e2rknfwXHlI5+OLSZNem3Lvmcl9+GYEwCV5I/pJH8AAHAQ1B/TSf0B7Jf8MZ3kD/qhFo8wEHfcccetV65ceTx/evPWnlCrZYd+7K3ZzKtvih1Mgo0vPZdd+u2/LLudy7Nzc3MnHnvssS/HNkAl+WO6yB8AABwk9cd0UX8A/SJ/TBf5g37xL+cZqHQympmZ+dH8abrFyzX5yety+v6Vr78cOxh36bVMr2lJYmqkOSAxAbshf0wP+QMAgIOm/pge6g+gn+SP6SF/0E++c56BO3v27BdWV1fn86dv2doTLq9njaefy2aPvTqfiT4nMtaurGeXfufBrPnChdhxTa1W++UnnnjiN2MToGfyxxSQPwAAGBHqjymg/gAGQP6YAvIHfeaMwFDcdtttv5ifpB6MzasaZ89lL3/gI/mT7R8sY4zkr116DdNr2S695um1j02AXZM/Jpj8AQDAiFF/TDD1BzBA8scEkz8YAN85z9CcPHnyVevr6+n7Vzq+aGVm7RuyQ2+/K53NYg9jodnMLv3hI9nGp/4udmzz3Ozs7InTp0//Y2wD7In8MYHkDwAARpT6YwKpP4AhkD8mkPzBgLitPUNz9uzZC6urq+nTYz+Sj7nNnaH53Pms+fLlbOb1t8YexsHl//PxbOOJp2Nrm4u1Wu1tTzzxxGdiG2DP5I/JI38AADCq1B+TR/0BDIP8MXnkDwbFxXmG6plnnvmHW2655XT+9Ifzse1rFRr/+EK+p57NvLrjg2WMoCsPfTpb/6vS3LOej7d/4hOf+PDWJsD+yR+TQ/4AAGDUqT8mh/oDGCb5Y3LIHwySi/MM3bPPPvvkrbfe+lSz2Xx7vrntPi6Np5+VoMZASkxXPvzJ2NqmWa/X/9WZM2f+ILYB+kb+GH/yBwAA40L9Mf7UH8BBkD/Gn/zBoLk4z4F45plnzqyurl7In37P1p5rUoJqvuQWLyOp2dy8lUuXT4xltVrt5/PE9BuxCdB38seYkj8AABhD6o8xpf4ADpj8MabkD4bExXkOTJ6gPponqBvyp9++teeadIuXxlcuZLO3vSqd8WIvB6rRyC790ce6fcdKSkzvyxPT/yM2AQZG/hgz8gcAAGNM/TFm1B/AiJA/xoz8wRB513Ogms1m7fbbb//f88efjF3b1F93c3bdD+W5a2429nAgrqxnL3/gI1njqWdjx3Z5YvrNJ5544qfyx2bsAhgo+WNMyB8AAEwA9ceYUH8AI0b+GBPyB0Pm4jwHLhLUv88f3xW7tqmvrmSH3vEdWe2G62IPw9T8+svZpd99KGucPRd7tssT0vvyxPQeiQkYNvljtMkfAABMEvXHaFN/AKNK/hht8gcHwcV5Rsbx48ffmSeo/zV/2jEva4vXZ/NvvyubefVNsYdh2PjSc9nlP3wka154KfZs08wTUvqOlV+LbYADIX+MHvkDAIBJpf4YPeoPYBzIH6NH/uCg+M55Rkb6DpZbb73183mC+pf5Zn1rb7i8nm2c+WI+Y+t5groxdjJIVz7ymezyf/rrLLt0JfZss16v1/9Vnph+I7YBDoz8MVrkDwAAJpn6Y7SoP4BxIX+MFvmDg+RfzjNyjh079i/yh9/Px+HNHW1mvnE1m/++N2e1w4diD/3UvHgpu/zHH8s2Pn829nS4mI8f+MQnPvGftzYBRoP8cbDkDwAApon642CpP4BxJX8cLPmDUeDiPCPp+PHjdzWbzT/Jn5bex2XzNi/ff1c28xq3eemnjS8+l13+o663cUmeq9Vq9545c+aR2AYYKfLHwZA/AACYRuqPg6H+AMad/HEw5A9GhdvaM5KeeeaZf/gn/+Sf/H/zBPUt+eZrtvYWpNu8fOKLm48z3/DKfCZvvwsMu3RlPbvyf30yu/yfH+t2G5csT0oPzs7OfvcTTzzxmdgFMHLkjyGTPwAAmGLqjyFTfwATQv4YMvmDEePiPCPr7NmzF97ylrf89vPPP5/m6Xfko+NOD42/fz5PUl/KsqXDWf2mpdjLbqx/+u+zy7/3karbuDTyxPTLt9122//0oQ996HzsAxhZ8sdwyB8AAKD+GBb1BzBp5I/hkD8YRW5rz1g4ceLEd29sbPxO/vTmrT2dNr+L5XtOZrVXLMQeqjRf+Fp2+b+crkpKybMzMzM/+vjjj/95bAOMFfmj/+QPAAAop/7oP/UHMA3kj/6TPxhlLs4zNu64445br1y58v786Xdu7SkxU89mv/W2bP47vinLZt0YotT6Rnb5oU9n6x/9bJZtNGJnqQ/Pzc39yGOPPfbl2AYYS/JHn8gfAACwI/VHn6g/gCkjf/SJ/MEY8O5lbHz5y1/+2lvf+tbfef7551/KN78tH3ObB4qazazxpa9k648/ldXS/24+ktV8H8umZvqemr9+Mrv0Bw9njSfPbv6surhYq9X+7Rvf+Mb/xW1cgEkgf+yP/AEAAL1Tf+yP+gOYVvLH/sgfjBP/cp6xdPLkyddsbGz8erPZ/Jexq1Tt+vls9s1vyGa/5fVZ7br52Dtdmi9fztbzpLT+sc9lzZcux95yeVL6TzMzMz99+vTpL8YugIkif/RO/gAAgP1Rf/RO/QFwjfzRO/mDceTiPGPt+PHj9+QJ6tfzp6/b2lOudmgum33T67PZu96Q1Q4fir2TrXnxUrb+yOey9Y8/mTUvXYm9XT2VJ6afPnPmzJ/GNsBEkz+6kz8AAKC/1B/dqT8AupM/upM/GGcuzjP27r777usvXrz4b/Ik9e58s/LjYbW52ax+26uy2eOvzWZed3O+Y8LeAs1mtvHUs9n6maezjc/8w+b3q+zgUp6U3nf48OFffvjhh9PtcgCmhvxRIH8AAMBAqT8K1B8APZM/CuQPJoSL80yMEydOvKHRaPxSnqR+KN+c2drbXW3x+mz26KuzmWOvyeo3H4m946nx7IvZxie+mK1/8ktZ80JPOWYjT0ofqNfrv/j4449/LvYBTCX5Q/4AAIBhUX+oPwD2Qv6QP5gcLs4zcU6ePPn69fX19+ZPfzwfc5s7d1C/ZTmbPZ4nqW9czeo3LsXe0db4yvms8fmz2fqZL2aNZ74ae3eU7u/yW7Ozs79y+vTpJ7d2AZDIH5XkDwAA6CP1RyX1B0AX8kcl+YOx4OI8E+tNb3rTN1y6dCnd6uUn83Hd5s4e1G64Lpt57c1ZfXPclNVXFuLIwWqc+1rWePq5fDybbeSj+fWX40hP0n/8m4cOHfrVj3/843+3tQuAMvLHNvIHAAAMkPpjG/UHQI/kj23kD8aKi/NMvLvuuuuWl1566Z3NZvMn8s1Xbu3tXW3p8Ob3s9RXV7LaKxezej5qRw7H0cFovngxazx/IWvmo3H23Ob3qDTPX4yju/J8rVb7j9dff/2vPfLII8/EPgB6IH/IHwAAMCzqD/UHwF7IH/IH48fFeabGnXfeObe+vv69jUbjx/LNe/Ixv3lgL2ZnstorFjYTVboNTG35hqw2P5tlh+ay2qH8cW52+3aueWk9yy5dyZqX88cr69u2m1/9+tZtWlJCeuFrWba+sRmzR5fz8af1ev23Z2dn/+zRRx9Nt3IBYI/kDwAAYFjUHwDshfwB48PFeabS3Xff/YqLFy/+cP70x5vN5t1be8dbrVZ7OH/4rcOHD//eww8//MLWXgD6Sf4AAACGRf0BwF7IHzDaXJxn6p04ceINjUbjB/Kn/zxPVN+WP16/eWD0vZQnpL/KHz9Ur9d///HHH//c1m4AhkH+AAAAhkX9AcBeyB8welych4K3ve1th86ePXv3xsbGd+WbadyVj7l0bASk27M8ko+/mJmZ+YvV1dWHP/jBD17aPALAgZI/AACAYVF/ALAX8geMBhfnocLx48dvqNVq395sNu/IN2/LH29Lj/l4RTo+QOm2LJ/Nf+/PxuNj+e/9kTNnznx98ygAI03+AAAAhkX9AcBeyB9wMFychz248847b1xfXy8mq5vz54v54+bIk8lCcTsfyYU08mMX8mNfK27nj8/mYzMZzc7OfvbRRx/9Sr4NwISRPwAAgGFRfwCwF/IHAAAAAAAAAAAAAAAAAAAAAAAAAAAAAAAAAAAAAAAAAAAAAAAAAAAAAAAAAAAAAAAAAAAAAAAAAAAAAAAAAAAAAAAAAAAAAAAAAAAAAAAAAAAAAAAAAAAAAAAAAAAAAAAAAAAAAAAAAAAAAAAAAAAAAAAAAAAAAAAAAAAAAAAAAAAAAAAAAAAAAAAAAAAAAAAAAAAAAAAAAAAAAAAAAAAAAAAAAAAAAAAAAAAAAAAAAAAAAAAAAAAAAAAAAAAAAAAAAAAAAAAAAAAAAAAAAAAAAAAAAAAAAAAAAAAAAAAAAAAAAAAAAAAAAAAAAAAAAAAAAAAAAAAAAAAAAAAAAAAAAAAAAAAAAAAAAAAAAAAAAAAAAAAAAAAAAAAAAAAAAAAAAAAAAAAAAAAAAAAAAAAAAAAAAAAAAAAAAAAAAAAAAAAAAAAAAAAAAAAAAAAAAAAAAAAAAAAAAAAAAAAAAAAAAAAAAAAAAAAAAAAAAAAAAAAAAAAAAAAAAAAAAAAAAAAAAAAAAAAAAAAAAAAAAAAAAAAAAAAAAAAAAAAAAAAAAAAAAAAAAAAAAAAAAAAAAAAAAAAAAAAAAAAAAAAAAAAAAAAAAAAAAAAAAAAAAAAAAAAAAAAAAAAAAAAAAAAAAAAAAAAAAAAAAAAAAAAAAAAAAAAAAAAAAAAAAAAAAAAAAAAAAAAAAAAAAAAAAAAAAAAAAAAAAAAAAAAAAAAAAAAAAAAAAAAAAAAAAAAAAAAAAAAAAAAAAAAAAAAAAAAAAAAAAAAAAAAAAAAAAAAAAAAAAAAAAAAAAAAAAAAAAAAAAAAAAAAAAAAAAAAAAAAAAAAAAAAAAAAAAAAAAAAAAAAAAAAAAAAAAAAAAAAAAAAAAAAAAAAAAAAAAAAAAAAAAAAAAAAAAAAAAAAAAAAAAAAAAAAAAAAAAAAAAAAAAAAAAAAAAAAAAAAAAAAAAAAAAAAAAAAAAAAAAAAAAAAAAAAAAAAAAAAAAAAAAAAAAAAAAAAAAAAAAAAAAAAAAAAAAAAAAAAAAAAAAAAAAAAAAAAAAAAAAAAAAAAAAAAAAAAAAAAAAAAAAAAAAAAAAAAAAAAAAAAAAAAAAAAAAAAAAAAAAAAAAAAAAAAAAAAAAAAAAAAAAAAAAAAAAAAAAAAAAAAAAAAAAAAAAAAAAAAAAAAAAAAAAAAAAAAAAAAAAAAAAAAAAAAAAAAAAAAAAAAAAAAAAAAAAAAAAAAAAAAAAAAAAAAAAAAAAAAAAAAAAAAAAAAAAAAAAAAAAAAAAAAAAAAAAAAAAAAAAAAAAAAAAAAAAAAAAAAAAAAAAAAAAAAAAAAAAAAAAAAAAAAAAAAAAAAAAAAAAAAAAAAAAAAAAAAAAAAAAAAAAAAAAAAAAAAAAAAAAAAAAAAAAAAAAAAAAAAAAAAAAAAAAAAAAAAAAAAAAAAAAAAAAAAAAAAAAAAAAAAAAAAAAAAAAAAAAAAAAAAAAAAAAAAAAAAAAAAAAAAAAAAAAAAAAAAAAAAAAAAAAAAAAAAAAAAAAAAAAAAAAAAAAAAAAAAAAAAAAAAAAAAAAAAAAAAAAAAAAAAAAAAAAAAAAAAAAAAAAAAAAAAAAAAAAAAAAAAAAAAAAAAAAAAAAAAAAAAAAAAAAAAAAAAAAAAAAAAAAAAAAAAAAAAAAAAAAAAAAAAAAAAAAAAAAAAAAAAAAAAAAAAAAAAAAAAAAAAAAAAAAAAAAAAAAAAAAAAAAAAAAAAAAAAAAAAAAAAAAAAAAAAAAAAAAAAAAAAAAAAAAAAAAAAAAAAAAAAAAAAAAAAAAAAAAAAAAAAAAAAAAAAAAAAAAAAAAAAAAAAAAAAAAAAAAAAAAAAAAAAAAAAAAAAAAAAAAAAAAAAAAAAAAAAAAAAAAAAAAAAAAAAAAAAAAAAAAAAAAAAAAAAAAAAAAAAAAAAAAAAAAAAAAAAAAAAAAAAAAAAAAAAAAAAAAAAAAAAAAAAAAAAAAAAAAAAAAAAAAAAAAAAAAAAAAAAAAAAAAAAAAAAAAAAAAAAAAAAAAADw/28PDmgAAAAQBr1/ans4AAAAAAAAAAAAAAAAAAAAAAAAAAAAAAAAAAAAAAAAAAAAAAAAAAAAAAAAAAAAAAAAAAAAAAAAAAAAAAAAAAAAAAAAAAAAAAAAAAAAAAAAAAAAAAAAAAAAAAAAAAAAAAAAAAAAAAAAAAAAAAAAAAAAAAAAAAAAAAAAAAAAAAAAAAAAAAAAAAAAAAAAAAAAAAAAAAAAAAAAAAAAAAAAAAAAAAAAAAAAAAAAAAAAAAAAAAAAAAAAAAAAAAAAAAAAAAAAAAAAAAAAAAAAAAAAAAAAAAAAAAAAAAAAAAAAAAAAAAAAAAAAAAAAAAAAAAAAAAAAAAAAAAAAAAAAAAAAAAAAAAAAAAAAAAAAAAAAAAAAAAAAAAAAAAAAAAAAAAAAAAAAAAAAAAAAAAAAAAAAAAAAAAAAAAAAAAAAAAAAAAAAAAAAAAAAAAAAAAAAAAAAAAAAAAAAAAAAAAAAAAAAAAAAAAAAAAAAAAAAAAAAAAAAAAAAAAAAAAAAAAAAAAAAAAAAAAAAAAAAAAAAAAAAAAAAAAAAAAAAAAAAAAAAAAAAAAAAAAAAAAAAAAAAAAAAAAAAAAAAAAAAAAAAAAAAAOBGDXDDN5vz51gHAAAAAElFTkSuQmCC;" vertex="1" parent="1">
          <mxGeometry x="710" y="143.5" width="95.88" height="91" as="geometry" />
        </mxCell>
        <mxCell id="k1NWHWB7fnP7Gy-s8BHT-25" value="Model&amp;nbsp;&lt;div&gt;Training&lt;/div&gt;" style="text;html=1;align=center;verticalAlign=middle;resizable=0;points=[];autosize=1;strokeColor=none;fillColor=none;" vertex="1" parent="1">
          <mxGeometry x="722.94" y="230" width="70" height="40" as="geometry" />
        </mxCell>
        <mxCell id="k1NWHWB7fnP7Gy-s8BHT-26" style="edgeStyle=orthogonalEdgeStyle;rounded=0;orthogonalLoop=1;jettySize=auto;html=1;entryX=0;entryY=0.5;entryDx=0;entryDy=0;entryPerimeter=0;" edge="1" parent="1" source="k1NWHWB7fnP7Gy-s8BHT-13" target="k1NWHWB7fnP7Gy-s8BHT-22">
          <mxGeometry relative="1" as="geometry" />
        </mxCell>
        <mxCell id="k1NWHWB7fnP7Gy-s8BHT-36" style="edgeStyle=orthogonalEdgeStyle;rounded=0;orthogonalLoop=1;jettySize=auto;html=1;entryX=1;entryY=0.5;entryDx=0;entryDy=0;" edge="1" parent="1" source="k1NWHWB7fnP7Gy-s8BHT-28" target="k1NWHWB7fnP7Gy-s8BHT-34">
          <mxGeometry relative="1" as="geometry">
            <Array as="points">
              <mxPoint x="920" y="195" />
              <mxPoint x="920" y="380" />
            </Array>
          </mxGeometry>
        </mxCell>
        <mxCell id="k1NWHWB7fnP7Gy-s8BHT-28" value="" style="sketch=0;aspect=fixed;pointerEvents=1;shadow=0;dashed=0;html=1;labelPosition=center;verticalLabelPosition=bottom;verticalAlign=top;align=center;shape=mxgraph.mscae.enterprise.document" vertex="1" parent="1">
          <mxGeometry x="840" y="160" width="56.4" height="70.5" as="geometry" />
        </mxCell>
        <mxCell id="k1NWHWB7fnP7Gy-s8BHT-31" style="edgeStyle=orthogonalEdgeStyle;rounded=0;orthogonalLoop=1;jettySize=auto;html=1;entryX=0.022;entryY=0.41;entryDx=0;entryDy=0;entryPerimeter=0;" edge="1" parent="1" source="k1NWHWB7fnP7Gy-s8BHT-24" target="k1NWHWB7fnP7Gy-s8BHT-28">
          <mxGeometry relative="1" as="geometry" />
        </mxCell>
        <mxCell id="k1NWHWB7fnP7Gy-s8BHT-33" value="Export&amp;nbsp;&lt;div&gt;Model&lt;/div&gt;" style="text;html=1;align=center;verticalAlign=middle;resizable=0;points=[];autosize=1;strokeColor=none;fillColor=none;" vertex="1" parent="1">
          <mxGeometry x="836.4" y="230.5" width="60" height="40" as="geometry" />
        </mxCell>
        <mxCell id="k1NWHWB7fnP7Gy-s8BHT-34" value="" style="shape=image;verticalLabelPosition=bottom;labelBackgroundColor=default;verticalAlign=top;aspect=fixed;imageAspect=0;image=data:image/png,iVBORw0KGgoAAAANSUhEUgAAAEoAAABwCAYAAAC5Mea6AAAAAXNSR0IArs4c6QAAAARnQU1BAACxjwv8YQUAAAAJcEhZcwAADsMAAA7DAcdvqGQAABPQSURBVHhe7Z13rBXFF8cHFEXs2Dv2mtg19g4YI8TeW1BjQxFEjRqNLURj7xjlDxXsDf7QqKjYK7Zg712sWBHQ/c1n3j3ruXNnZ+bue+Gnyfsmh3vv7vnOOXNm5uzuzOyjR2FhupFEU6BCMevRo0fjWxh1OGB22eoyjj3ojvLx119/uYOCOeaYI1no33//7UTQs2dPJzH4trABJ2YLDnYa7jqkbKErPEGOf2JHbDn/3DcL7QBIOQ58J9Cvw0nZEqe1jzkVrrIVQ6UtvvgFphwHVU7k8LQT6Ne1FUPITp0giX89rAPFjBkz3FBAQQrkMwZ0cV44wotBnECA8FK2sCOBEhtVtjhOygA6uByP+ad90/5JWT1mzZpVfPjhh+bjjz82f/75Z7bjGjkc7YAg5rjA56U4Cy20kFl11VVN3759S15ukHS9dJBAD9uTiquuuspce+215quvvmocTkMCoyuRwuzgrLLKKmbo0KFmn332MXPOOWcySIAASbCAHyQHAjVq1KhiqaWWQus/LzY4xcCBA4tJkx4vfvnlF1v3atgAOWFUzZw5sxSO+XCh7tWrVzLq/wXQE2ylzYMPPmhGjDjJPPbYY+53FWz9y9wM4NMLpRdrBKND0CAQwP+CtAwTiylTppi7777bfPbZZ40jzSA4EiBBrLO4q94ll1xiLr30UvPFF1+4g8stt5xZfvnlTe/evd3vfzvw+7333mu5YV5xxRXNsGHDzBFHHGHmmWeextGOIEleEgTzkoK7M7/44oubAnXssceao48+2ti85X4LQl0yBN+BHGgOaId38803m9NOO838/vvvjaMdoIwtttjCnHrqqWbrrbc2888/v9NHCJQgFSTnm/2nuOiii4plllkGT50MHz68sF22JcmR+FOow0FHcygjlFA1OI8ecv311xfzzTdf6b8v66yzTjFu3LjC3v602Mr1LzuD51xmbZkd0W+Alkr1jCpOjCcc4fllSH4VMCzJV3xqPWzk1imo5RtOOQ7Q97szTqQqHMoVOc5rWz7IsbYXlba5kX722WfNvffea3777Td3PNeOSGWgNKTgKojjmpfDERHU4YSw7rrrmv33398lc3oX+PLLL819991nHn74YWPvr9q2FQ0pESfJxSJPQTpIGE9xABzdK8RWynmbL1ps+Vh44YXdxYgL1GqrrdY4aszLL79sTjnlFHPrrbcm76/8ekVrk4o6kEIFs4sDYhzObbTRRmaPPfYw8847b+OoMTzX3nXXXea1115rKU8Q8i/e7BFIYbpX5FbY59CbYjyxhQjgpHottze77rqrGTBggLFXRXeMMgjS2LFjzeeff97Us7SdFluN701IOQAoiGEggFNn6MBLcULDNOYjHLG1wQYbmAsuuMAcfPDB5ZXw+++/N9dcc417eKaHiT9iS37jlzzSOGtyQiPHeQG6MX2BtuOMZwRJRJAKEtD+8Z2kvueee5qNN964tGfvocwLL7zghiFXxSpbgp76RA7Q10ECOYHyncjl+A2SCpKGlM8nV0Ly1YILLuiOAaaVuBI+9dRTTT0J+P61FSiprObktvDPP/9spk6d6h4zfCd8hOyAGKcK4h8TeeSqwYMHl/kKvPXWW+aWW24xn376adko2PGvptnNg9MUpFs4J0hg2rRp5sorrzQDBw40N954YxmsKmArdBuQYwugJxWVspA11ljDnHfeeebEE080ffr0ced//fVXF6hjjjnGfPTRRy4nhW45nOWclsKgOA5yg8RVZdKkSeb+++83r7/+unuUeOaZZ5zjIfh2AP7l+Cj47rvvzCuvvOKubr58++23ZoUVVnAiwBca88cff2wcCcAqVT4UC2wvanqQ5EGUY1pC4PiUKVOKfffdt5h77rld2ba1iiFDhhT2uauh9Q/Qp2xtC/9SGD16dGHvlUr/sWVvOgs73FpkkUUWcefmmmsup2sbwH1uttlmxXPPPdcosRU9Uy1ldZqGG4BDK9By5J3p06e39ALO03r0oCeeeMJdWQC98IMPPnCLGRrwRQSpnuTrC7BF7/jhhx9ahFsDzrHyRNkhfgjRQFEIFZbC0GX88vnGG2+YAw880N39MsYZ6wL0eVInF5x//vnuOQsQpP79+5tRo0aZHXfc0R0D6NMYukEkz+QESqRd5HLQiyaZUE9CfvrpJ/e8xLMTd7e33367G/+iz0Mnl11yk/Qk0K9fP7c6wk2ghl9RsRODcESwDUdyZ0pS5WtQft5lxEIMgIceesg88MADrhuDxx9/3Nx5553uEksPJED33HNPOWMKmIrdbbfdzHbbbWdsfmgcrQ5SO4GyecdNq3BVi8maa67pZK211nKNpqeHq1D6Z/9pSeZ2yBS20mVileQtsLf/hX0qL2zgSo69ihQ33HBD8dJLLzUlb4TEOWjQoJZkSZl+8ra3DoW9AkXljz/+aOLZYV/YRitszqwUmy+bZMKECcWGG25Y+hhK5vjHxQQbwUANGzasDBSKIUycOLHYfPPNy6sGQuB08JDevXsXI0eOLOwQbTA74AcJO1To5JNPdlemmJxwwglOF06VfxpSWRHs2gtMsemmm5Z++oHy/YsOPYZa1RDYZpttjO05brVGYAt3IoC77bbbmt13393Yhmgc7QB61p/Grw7wmxlIhnRM0AGUL+mgCpSp7bTD0bwog0KrAsUViQDssMMOTfM9ApxZeeWVzUEHHWRsF28cDTsRs1OFHE4dW1WcYKBSEQcUtPTSS5vrrrvOnHPOOWbZZZdtnOkAtwEsIzElqyf66Ul2KDR+ddhK3Qb4gJMTJN3D0cdOTm/Svb3kuV81QEFUGMM8lXM1kwVThuN+++1n1l9/ffdbAEccADihK4xDPN3DX2mllZzQKxE2X/DJowdTvehWQezEbOVAggRcoHSBglih6EtL8Z1Vj0MOOcTdH/FQKYGzVz6nAzQHUL7fMwgSi5X2ymmef/55JzbBOmEVhc8XX3zRnH766U0zAD6qbKXgx0FzumQ+CpDcyVn0JD4JnkA42hbO+42BY6zmLrbYYu7eyJdFF13UnUMnVHHKF9Hw7eTA96/t+SiGm3AoSMY9PWnEiBHmpptuMltuuaU7D9DVQdKcKqArtkSEH4NwtC38itnyIf75Qzu/BIscZ33Aqcv7N8EFSnexKvgVhkNLpbh+hdHP4fi26nDa6UmCKlvZJeXkGB8+JyewITspHvp1bPmI6WfNR4XyUooHB+cF4niMh76uMLrtBgndHP/aRTJQfkuhL1IFn9NOkATo5gRJBORw6iI69PyrDQ6knAhVGKEcP4ACv7JyVUzZAqKfy/H9ywG+ZeconEg54jshHB5imdVkbe3yyy9vmg1FnwYBTAieeeaZ5eQ/d+gxYU5JdEMcZl95xBKIf6HGqgK6+BcMlF8YwRGpgjgh0JxHH33UzXiyAZWVWVZhxIbYQY/vBIsNqjnCRGHouBbmyYHvXw60f8keRQVyurQUKJAgERzm1JkqRofHkNtuu828//77TY4A4XQV8JsbTt9OLuBIcKOBEsernGchE5GhI5DAMuToSazCzJw5051Dl9VZFhvrOA9ygym++4HK4esggaxAhTB58mQ3cUfeGTNmjAuK5CQ4b7/9tjnqqKNcbmJJS7DzzjubCy+80D0bivPC4ZOH3SWWWMJN22jh2VHEPxeSJZdc0j0b+g/PObcOBEg3Pn517NvzIAVVFci62Lhx48zTTz/tvjOUmLRnqzIgaOyXnDhxYjkbCZgqYX5qk002cQ4DbIgssMACZvjw4ebwww+vtJ0LGoEKMiNRDp9Gg8Tg9yTgOPZEcKWYOfMqjB071m1JtgU4/V69ehVDhw7lLS13fvz48YUNRtN8ep8+fYqTTjqpZVu2bTnHAdbBckK/q0Rs8UnZgqo5czjiGyIcN/TsJx/ZYGcKuUl4tkAzYcIEl4tI2qz5SfIWyNw5w0qO+y3Md4TjIvxGn1ZGgD4fEs2pspUDzamcZqkqFH3mwdmdYlukcdS4S/Xxxx9vtt9+e7emJwuf7BphxZj7J2Y8S8MNJ2LOU1HbwmVlU/rADxD6OXkJ6Fj4nLYn7nCCKV8CwiQdN3lynJ7GfYteHaYn7bXXXk6PSzXICRJ+ad/QTfUK9HWQQGd6kuYl76M0xAmE1V6GEgGTvUY+mOOWuXMxKg5oJ3yEKpziAPFNkMPxUcVxgcopzHcCsArDVWy99dZrHPkH9Dp2t/Gyjl6F6UrnNUJBome0iypbWSXRuqFcwTjeaqut3C468pas5bN6csUVV7g3niR5i37ICQE2WOD85JNP3OYP9i6wz/Lrr792O2L4HRIeVciRPgchHXQF5ow5DqpaSnistPCyM1uA2OrDTjc2Y7BfUm8sRT9la9q0ae7dZu7LUro5YCGCBjzssMMaR+KI2aw9H6VBT2FBgWWqAw44wAwaNMjdGQtyE6q913G9gUecN998s9NCOfSqrkB06PnDLTZ0GHZHHnmk2/zO9Ibkh9AVxAeNgQDsye/OCsBnAWVTJ6QdUFZ2tpPKVlWY4zxX8XcHZP9Tu0HqalCuDgqB0qMjB9JwwUBxQheYqizwKyycGM93nNYn2OQW3mMJCVdahN0x8j2kt/jii7tyJE/6/uVA+xd8p5gXlnk4xQmQk2P0MAVwZPhVQTtP+ZTB1Y1NslX2Qse1XQHHuC3hqku+xI7oUQaThyNHjnTL9sA+67kY6KeNpuBacuVGMqvU9CAZAuf1Q648fKZ4moPYILWU5cuMGTOK6dOnl8LvkJ4IZYnoY9iJbSTjPP7osqJNTuSrWlZgC21qUeHEeD5H5zKGH486vnAcPT6rdHyRHh2yFQP6+CiAEwxUqiBBVYVjgKOdkADFeOJ4nQrX4Wj/AJzagfKdgCMSAjeT5ECmZzRiHEGVrRjqcIDmAHovPBco/2QKRFwnb1dQpLW4Y2dPE5vwzzrrLPcyoQyhmPOUjx3dwnCwFUO7/gmqggRqzUdpDg7EnGBzPi8MjR8/3s2js1zFH5mhh8GJOe/bEv12OTlB8uE3Yq35KJ8Tc4KXBgmUvObB8CNQPGLEELKR6kkSJOHWDVKIE7fsQQeJgughr776qusdIbB2x+sfvArCUAB8MgWT89YANmSI5la4DkcD/RAnuAoTgh7zgPW60aNHuykOZjCHDBlSznaCRx55xFx99dXubzjx9hVgmzUvQfNMqP8egYCAs5OYHtgVYDsjk4t7771340gcVUFysAFIvq+Hjr5hmzx5cjF48ODyNY5+/foVY8aMKf8CmO1JxaGHHupWXqRMZMCAAcWkSZNcOSFMnTq1OO6449xfFesKsU8W7q+thZB6c8FH1v4oRIA+O3RZZZG5cXrVHXfc4V5Nk9Vh9hvoWwF6EAumbM63lWgcbQXD2zZGlwhlpeqXi2igGG56yKGLMN/EZBg7RgA6JG3bG8wuu+xiLrvssjJ5g5122slNvzA1HJpfl8bwG6WzIFCIRuhYCviUncwJkCRHntyZK+e+iK3MgK08JPYnn3yy6S9U0JPQJVhspA81jASI8gkkuYWH2ZjwoKvFP89yOuWIf0DsIO0A/exkLr1JvpO4SeLMIjIUgd9SJG/+5EdspUa3MDo2t7mgErTOgDKZptYXGAlSqLGqgL7zz36JvoYmCdwqo9oEe5VyXOtMydXSv3//wl71KpM3ZYoNscOnzX1uZqAzImVQJvAvSDnJHP+EF202Ik/LVt2P0K2ZIz/33HOb3qCiZ/AH+M4++2w3LRxK3rSSn/+wgy4zpMwl+cI58UckpIdIGdxPYQsR5PQo/MI/4SUDJRICx8kPJGneFZbkzq4WAkjwqt5ZkQAJYnYEcLTkwNdtx45GVqBiIOoEQxY7ebeXGzxeIKJFQ6CVtCP0jHadRx9eDOjXtaV7oOu9je9NSBUkECf4JGlyn8SGDN6squpJ6GonsCVShc5UuA5H+wfguEDpwkDKcaDHL6D3sGrM4ie74kJ8P0iupRLOi+PiI7rknRTH9y/FEehY4Jvw4n23AtpxQEEIO+a4V5LlKg0/SMJBquAHCdTpSTm2gOYAzWl7miXkRK7zGtqJKoRs1eHgX7vwe2BbgaJ1Q5f0mPMhTp2hg51Uhev456PKP2c5pyCMiwMg14kQT6QKXcVpN0igyk52n/RzRVWBGj4nx/GQnRQP/Tq2fMT0swJVN0iIQDgxHjZEBDm26nDaRda2H6kwurRUqrXqcKgoHKkwujm5rMpWVyMYKBwUaONS2ZjzoA4HaE4uz7clvBzk6tEgwU0a/GE8hB0hXEWAOJSC3ytEYvA5IGULfRGQ45/oo8ffVjjjjDPcqyogtElDgH/BQK2++upm7bXXdvM50q1BTqDEGSCVTgWqLkd/op/LQY+9ogRLXlOrChQcOkswUAREHmil8ByIo3U4IJdXhwO0f8isWbNKfihQ0tOdjv2nZeKurlhHgsf/C+JP3NkglRN95cSdvpvtDLqijP8X8F3SDN/9urihx3/JxGLlN998U17xfMUqdHbogNllq4pDgJhk5N1CZmT5LUEDpCIXqHfffde88847bkVXEvbsch7MLltVHI737dvXvYHB7EdLkGwZ7j/Q0Sc4mHN1gyOGXUENiaEOB30RgH7KvzocgH86FnCE11Ocl0JzIAX6DsVQh4OOz0sFFghPOEgKwtHQtsowS9RTjogDAN0cnuaAHI7veDsc7R8cJAY4KVvu/9dzX+zBmBMCnNCO6M8qaA7IsVWXoz9zOCDHlkvmje/diCCd4brh0B2oTHQHKhPdgcpEd6Ay0R2oTHQHKgvG/A+FBRwiq7cl2gAAAABJRU5ErkJggg==;" vertex="1" parent="1">
          <mxGeometry x="774" y="340" width="52.86" height="80" as="geometry" />
        </mxCell>
        <mxCell id="k1NWHWB7fnP7Gy-s8BHT-38" value="Model&amp;nbsp;&lt;div&gt;Validation&lt;/div&gt;" style="text;html=1;align=center;verticalAlign=middle;resizable=0;points=[];autosize=1;strokeColor=none;fillColor=none;" vertex="1" parent="1">
          <mxGeometry x="759" y="407" width="80" height="40" as="geometry" />
        </mxCell>
        <mxCell id="k1NWHWB7fnP7Gy-s8BHT-40" value="&lt;font style=&quot;font-size: 19px;&quot;&gt;Deployment&lt;/font&gt;" style="text;html=1;align=center;verticalAlign=middle;resizable=0;points=[];autosize=1;strokeColor=none;fillColor=none;" vertex="1" parent="1">
          <mxGeometry x="1375" y="202.5" width="119" height="35" as="geometry" />
        </mxCell>
        <mxCell id="k1NWHWB7fnP7Gy-s8BHT-41" value="" style="shape=image;verticalLabelPosition=bottom;labelBackgroundColor=default;verticalAlign=top;aspect=fixed;imageAspect=0;image=https://gluonhq.com/wp-content/uploads/2018/05/heroku-logotype-vertical-purple-253x300@2x.png;" vertex="1" parent="1">
          <mxGeometry x="1376" y="253" width="103" height="122.14" as="geometry" />
        </mxCell>
        <mxCell id="k1NWHWB7fnP7Gy-s8BHT-43" value="XGBoost / Arima" style="text;html=1;align=center;verticalAlign=middle;resizable=0;points=[];autosize=1;strokeColor=none;fillColor=none;" vertex="1" parent="1">
          <mxGeometry x="702.94" y="120" width="110" height="30" as="geometry" />
        </mxCell>
        <mxCell id="k1NWHWB7fnP7Gy-s8BHT-44" value="" style="sketch=0;outlineConnect=0;fontColor=#232F3E;gradientColor=none;fillColor=#232F3D;strokeColor=none;dashed=0;verticalLabelPosition=bottom;verticalAlign=top;align=center;html=1;fontSize=12;fontStyle=0;aspect=fixed;pointerEvents=1;shape=mxgraph.aws4.data_table;" vertex="1" parent="1">
          <mxGeometry x="1071" y="113" width="105.76" height="80" as="geometry" />
        </mxCell>
        <mxCell id="k1NWHWB7fnP7Gy-s8BHT-48" style="edgeStyle=orthogonalEdgeStyle;rounded=0;orthogonalLoop=1;jettySize=auto;html=1;" edge="1" parent="1" source="k1NWHWB7fnP7Gy-s8BHT-45" target="k1NWHWB7fnP7Gy-s8BHT-46">
          <mxGeometry relative="1" as="geometry" />
        </mxCell>
        <mxCell id="k1NWHWB7fnP7Gy-s8BHT-45" value="" style="sketch=0;aspect=fixed;pointerEvents=1;shadow=0;dashed=0;html=1;labelPosition=center;verticalLabelPosition=bottom;verticalAlign=top;align=center;shape=mxgraph.mscae.enterprise.document" vertex="1" parent="1">
          <mxGeometry x="1095.68" y="253" width="56.4" height="70.5" as="geometry" />
        </mxCell>
        <mxCell id="k1NWHWB7fnP7Gy-s8BHT-46" value="" style="shape=image;verticalLabelPosition=bottom;labelBackgroundColor=default;verticalAlign=top;aspect=fixed;imageAspect=0;image=data:image/png,iVBORw0KGgoAAAANSUhEUgAAAEoAAABwCAYAAAC5Mea6AAAAAXNSR0IArs4c6QAAAARnQU1BAACxjwv8YQUAAAAJcEhZcwAADsMAAA7DAcdvqGQAABPQSURBVHhe7Z13rBXFF8cHFEXs2Dv2mtg19g4YI8TeW1BjQxFEjRqNLURj7xjlDxXsDf7QqKjYK7Zg712sWBHQ/c1n3j3ruXNnZ+bue+Gnyfsmh3vv7vnOOXNm5uzuzOyjR2FhupFEU6BCMevRo0fjWxh1OGB22eoyjj3ojvLx119/uYOCOeaYI1no33//7UTQs2dPJzH4trABJ2YLDnYa7jqkbKErPEGOf2JHbDn/3DcL7QBIOQ58J9Cvw0nZEqe1jzkVrrIVQ6UtvvgFphwHVU7k8LQT6Ne1FUPITp0giX89rAPFjBkz3FBAQQrkMwZ0cV44wotBnECA8FK2sCOBEhtVtjhOygA6uByP+ad90/5JWT1mzZpVfPjhh+bjjz82f/75Z7bjGjkc7YAg5rjA56U4Cy20kFl11VVN3759S15ukHS9dJBAD9uTiquuuspce+215quvvmocTkMCoyuRwuzgrLLKKmbo0KFmn332MXPOOWcySIAASbCAHyQHAjVq1KhiqaWWQus/LzY4xcCBA4tJkx4vfvnlF1v3atgAOWFUzZw5sxSO+XCh7tWrVzLq/wXQE2ylzYMPPmhGjDjJPPbYY+53FWz9y9wM4NMLpRdrBKND0CAQwP+CtAwTiylTppi7777bfPbZZ40jzSA4EiBBrLO4q94ll1xiLr30UvPFF1+4g8stt5xZfvnlTe/evd3vfzvw+7333mu5YV5xxRXNsGHDzBFHHGHmmWeextGOIEleEgTzkoK7M7/44oubAnXssceao48+2ti85X4LQl0yBN+BHGgOaId38803m9NOO838/vvvjaMdoIwtttjCnHrqqWbrrbc2888/v9NHCJQgFSTnm/2nuOiii4plllkGT50MHz68sF22JcmR+FOow0FHcygjlFA1OI8ecv311xfzzTdf6b8v66yzTjFu3LjC3v602Mr1LzuD51xmbZkd0W+Alkr1jCpOjCcc4fllSH4VMCzJV3xqPWzk1imo5RtOOQ7Q97szTqQqHMoVOc5rWz7IsbYXlba5kX722WfNvffea3777Td3PNeOSGWgNKTgKojjmpfDERHU4YSw7rrrmv33398lc3oX+PLLL819991nHn74YWPvr9q2FQ0pESfJxSJPQTpIGE9xABzdK8RWynmbL1ps+Vh44YXdxYgL1GqrrdY4aszLL79sTjnlFHPrrbcm76/8ekVrk4o6kEIFs4sDYhzObbTRRmaPPfYw8847b+OoMTzX3nXXXea1115rKU8Q8i/e7BFIYbpX5FbY59CbYjyxhQjgpHottze77rqrGTBggLFXRXeMMgjS2LFjzeeff97Us7SdFluN701IOQAoiGEggFNn6MBLcULDNOYjHLG1wQYbmAsuuMAcfPDB5ZXw+++/N9dcc417eKaHiT9iS37jlzzSOGtyQiPHeQG6MX2BtuOMZwRJRJAKEtD+8Z2kvueee5qNN964tGfvocwLL7zghiFXxSpbgp76RA7Q10ECOYHyncjl+A2SCpKGlM8nV0Ly1YILLuiOAaaVuBI+9dRTTT0J+P61FSiprObktvDPP/9spk6d6h4zfCd8hOyAGKcK4h8TeeSqwYMHl/kKvPXWW+aWW24xn376adko2PGvptnNg9MUpFs4J0hg2rRp5sorrzQDBw40N954YxmsKmArdBuQYwugJxWVspA11ljDnHfeeebEE080ffr0ced//fVXF6hjjjnGfPTRRy4nhW45nOWclsKgOA5yg8RVZdKkSeb+++83r7/+unuUeOaZZ5zjIfh2AP7l+Cj47rvvzCuvvOKubr58++23ZoUVVnAiwBca88cff2wcCcAqVT4UC2wvanqQ5EGUY1pC4PiUKVOKfffdt5h77rld2ba1iiFDhhT2uauh9Q/Qp2xtC/9SGD16dGHvlUr/sWVvOgs73FpkkUUWcefmmmsup2sbwH1uttlmxXPPPdcosRU9Uy1ldZqGG4BDK9By5J3p06e39ALO03r0oCeeeMJdWQC98IMPPnCLGRrwRQSpnuTrC7BF7/jhhx9ahFsDzrHyRNkhfgjRQFEIFZbC0GX88vnGG2+YAw880N39MsYZ6wL0eVInF5x//vnuOQsQpP79+5tRo0aZHXfc0R0D6NMYukEkz+QESqRd5HLQiyaZUE9CfvrpJ/e8xLMTd7e33367G/+iz0Mnl11yk/Qk0K9fP7c6wk2ghl9RsRODcESwDUdyZ0pS5WtQft5lxEIMgIceesg88MADrhuDxx9/3Nx5553uEksPJED33HNPOWMKmIrdbbfdzHbbbWdsfmgcrQ5SO4GyecdNq3BVi8maa67pZK211nKNpqeHq1D6Z/9pSeZ2yBS20mVileQtsLf/hX0qL2zgSo69ihQ33HBD8dJLLzUlb4TEOWjQoJZkSZl+8ra3DoW9AkXljz/+aOLZYV/YRitszqwUmy+bZMKECcWGG25Y+hhK5vjHxQQbwUANGzasDBSKIUycOLHYfPPNy6sGQuB08JDevXsXI0eOLOwQbTA74AcJO1To5JNPdlemmJxwwglOF06VfxpSWRHs2gtMsemmm5Z++oHy/YsOPYZa1RDYZpttjO05brVGYAt3IoC77bbbmt13393Yhmgc7QB61p/Grw7wmxlIhnRM0AGUL+mgCpSp7bTD0bwog0KrAsUViQDssMMOTfM9ApxZeeWVzUEHHWRsF28cDTsRs1OFHE4dW1WcYKBSEQcUtPTSS5vrrrvOnHPOOWbZZZdtnOkAtwEsIzElqyf66Ul2KDR+ddhK3Qb4gJMTJN3D0cdOTm/Svb3kuV81QEFUGMM8lXM1kwVThuN+++1n1l9/ffdbAEccADihK4xDPN3DX2mllZzQKxE2X/DJowdTvehWQezEbOVAggRcoHSBglih6EtL8Z1Vj0MOOcTdH/FQKYGzVz6nAzQHUL7fMwgSi5X2ymmef/55JzbBOmEVhc8XX3zRnH766U0zAD6qbKXgx0FzumQ+CpDcyVn0JD4JnkA42hbO+42BY6zmLrbYYu7eyJdFF13UnUMnVHHKF9Hw7eTA96/t+SiGm3AoSMY9PWnEiBHmpptuMltuuaU7D9DVQdKcKqArtkSEH4NwtC38itnyIf75Qzu/BIscZ33Aqcv7N8EFSnexKvgVhkNLpbh+hdHP4fi26nDa6UmCKlvZJeXkGB8+JyewITspHvp1bPmI6WfNR4XyUooHB+cF4niMh76uMLrtBgndHP/aRTJQfkuhL1IFn9NOkATo5gRJBORw6iI69PyrDQ6knAhVGKEcP4ACv7JyVUzZAqKfy/H9ywG+ZeconEg54jshHB5imdVkbe3yyy9vmg1FnwYBTAieeeaZ5eQ/d+gxYU5JdEMcZl95xBKIf6HGqgK6+BcMlF8YwRGpgjgh0JxHH33UzXiyAZWVWVZhxIbYQY/vBIsNqjnCRGHouBbmyYHvXw60f8keRQVyurQUKJAgERzm1JkqRofHkNtuu828//77TY4A4XQV8JsbTt9OLuBIcKOBEsernGchE5GhI5DAMuToSazCzJw5051Dl9VZFhvrOA9ygym++4HK4esggaxAhTB58mQ3cUfeGTNmjAuK5CQ4b7/9tjnqqKNcbmJJS7DzzjubCy+80D0bivPC4ZOH3SWWWMJN22jh2VHEPxeSJZdc0j0b+g/PObcOBEg3Pn517NvzIAVVFci62Lhx48zTTz/tvjOUmLRnqzIgaOyXnDhxYjkbCZgqYX5qk002cQ4DbIgssMACZvjw4ebwww+vtJ0LGoEKMiNRDp9Gg8Tg9yTgOPZEcKWYOfMqjB071m1JtgU4/V69ehVDhw7lLS13fvz48YUNRtN8ep8+fYqTTjqpZVu2bTnHAdbBckK/q0Rs8UnZgqo5czjiGyIcN/TsJx/ZYGcKuUl4tkAzYcIEl4tI2qz5SfIWyNw5w0qO+y3Md4TjIvxGn1ZGgD4fEs2pspUDzamcZqkqFH3mwdmdYlukcdS4S/Xxxx9vtt9+e7emJwuf7BphxZj7J2Y8S8MNJ2LOU1HbwmVlU/rADxD6OXkJ6Fj4nLYn7nCCKV8CwiQdN3lynJ7GfYteHaYn7bXXXk6PSzXICRJ+ad/QTfUK9HWQQGd6kuYl76M0xAmE1V6GEgGTvUY+mOOWuXMxKg5oJ3yEKpziAPFNkMPxUcVxgcopzHcCsArDVWy99dZrHPkH9Dp2t/Gyjl6F6UrnNUJBome0iypbWSXRuqFcwTjeaqut3C468pas5bN6csUVV7g3niR5i37ICQE2WOD85JNP3OYP9i6wz/Lrr792O2L4HRIeVciRPgchHXQF5ow5DqpaSnistPCyM1uA2OrDTjc2Y7BfUm8sRT9la9q0ae7dZu7LUro5YCGCBjzssMMaR+KI2aw9H6VBT2FBgWWqAw44wAwaNMjdGQtyE6q913G9gUecN998s9NCOfSqrkB06PnDLTZ0GHZHHnmk2/zO9Ibkh9AVxAeNgQDsye/OCsBnAWVTJ6QdUFZ2tpPKVlWY4zxX8XcHZP9Tu0HqalCuDgqB0qMjB9JwwUBxQheYqizwKyycGM93nNYn2OQW3mMJCVdahN0x8j2kt/jii7tyJE/6/uVA+xd8p5gXlnk4xQmQk2P0MAVwZPhVQTtP+ZTB1Y1NslX2Qse1XQHHuC3hqku+xI7oUQaThyNHjnTL9sA+67kY6KeNpuBacuVGMqvU9CAZAuf1Q648fKZ4moPYILWU5cuMGTOK6dOnl8LvkJ4IZYnoY9iJbSTjPP7osqJNTuSrWlZgC21qUeHEeD5H5zKGH486vnAcPT6rdHyRHh2yFQP6+CiAEwxUqiBBVYVjgKOdkADFeOJ4nQrX4Wj/AJzagfKdgCMSAjeT5ECmZzRiHEGVrRjqcIDmAHovPBco/2QKRFwnb1dQpLW4Y2dPE5vwzzrrLPcyoQyhmPOUjx3dwnCwFUO7/gmqggRqzUdpDg7EnGBzPi8MjR8/3s2js1zFH5mhh8GJOe/bEv12OTlB8uE3Yq35KJ8Tc4KXBgmUvObB8CNQPGLEELKR6kkSJOHWDVKIE7fsQQeJgughr776qusdIbB2x+sfvArCUAB8MgWT89YANmSI5la4DkcD/RAnuAoTgh7zgPW60aNHuykOZjCHDBlSznaCRx55xFx99dXubzjx9hVgmzUvQfNMqP8egYCAs5OYHtgVYDsjk4t7771340gcVUFysAFIvq+Hjr5hmzx5cjF48ODyNY5+/foVY8aMKf8CmO1JxaGHHupWXqRMZMCAAcWkSZNcOSFMnTq1OO6449xfFesKsU8W7q+thZB6c8FH1v4oRIA+O3RZZZG5cXrVHXfc4V5Nk9Vh9hvoWwF6EAumbM63lWgcbQXD2zZGlwhlpeqXi2igGG56yKGLMN/EZBg7RgA6JG3bG8wuu+xiLrvssjJ5g5122slNvzA1HJpfl8bwG6WzIFCIRuhYCviUncwJkCRHntyZK+e+iK3MgK08JPYnn3yy6S9U0JPQJVhspA81jASI8gkkuYWH2ZjwoKvFP89yOuWIf0DsIO0A/exkLr1JvpO4SeLMIjIUgd9SJG/+5EdspUa3MDo2t7mgErTOgDKZptYXGAlSqLGqgL7zz36JvoYmCdwqo9oEe5VyXOtMydXSv3//wl71KpM3ZYoNscOnzX1uZqAzImVQJvAvSDnJHP+EF202Ik/LVt2P0K2ZIz/33HOb3qCiZ/AH+M4++2w3LRxK3rSSn/+wgy4zpMwl+cI58UckpIdIGdxPYQsR5PQo/MI/4SUDJRICx8kPJGneFZbkzq4WAkjwqt5ZkQAJYnYEcLTkwNdtx45GVqBiIOoEQxY7ebeXGzxeIKJFQ6CVtCP0jHadRx9eDOjXtaV7oOu9je9NSBUkECf4JGlyn8SGDN6squpJ6GonsCVShc5UuA5H+wfguEDpwkDKcaDHL6D3sGrM4ie74kJ8P0iupRLOi+PiI7rknRTH9y/FEehY4Jvw4n23AtpxQEEIO+a4V5LlKg0/SMJBquAHCdTpSTm2gOYAzWl7miXkRK7zGtqJKoRs1eHgX7vwe2BbgaJ1Q5f0mPMhTp2hg51Uhev456PKP2c5pyCMiwMg14kQT6QKXcVpN0igyk52n/RzRVWBGj4nx/GQnRQP/Tq2fMT0swJVN0iIQDgxHjZEBDm26nDaRda2H6kwurRUqrXqcKgoHKkwujm5rMpWVyMYKBwUaONS2ZjzoA4HaE4uz7clvBzk6tEgwU0a/GE8hB0hXEWAOJSC3ytEYvA5IGULfRGQ45/oo8ffVjjjjDPcqyogtElDgH/BQK2++upm7bXXdvM50q1BTqDEGSCVTgWqLkd/op/LQY+9ogRLXlOrChQcOkswUAREHmil8ByIo3U4IJdXhwO0f8isWbNKfihQ0tOdjv2nZeKurlhHgsf/C+JP3NkglRN95cSdvpvtDLqijP8X8F3SDN/9urihx3/JxGLlN998U17xfMUqdHbogNllq4pDgJhk5N1CZmT5LUEDpCIXqHfffde88847bkVXEvbsch7MLltVHI737dvXvYHB7EdLkGwZ7j/Q0Sc4mHN1gyOGXUENiaEOB30RgH7KvzocgH86FnCE11Ocl0JzIAX6DsVQh4OOz0sFFghPOEgKwtHQtsowS9RTjogDAN0cnuaAHI7veDsc7R8cJAY4KVvu/9dzX+zBmBMCnNCO6M8qaA7IsVWXoz9zOCDHlkvmje/diCCd4brh0B2oTHQHKhPdgcpEd6Ay0R2oTHQHKgvG/A+FBRwiq7cl2gAAAABJRU5ErkJggg==;" vertex="1" parent="1">
          <mxGeometry x="1097.45" y="390" width="52.86" height="80" as="geometry" />
        </mxCell>
        <mxCell id="k1NWHWB7fnP7Gy-s8BHT-47" style="edgeStyle=orthogonalEdgeStyle;rounded=0;orthogonalLoop=1;jettySize=auto;html=1;entryX=0.5;entryY=0;entryDx=0;entryDy=0;entryPerimeter=0;" edge="1" parent="1" source="k1NWHWB7fnP7Gy-s8BHT-44" target="k1NWHWB7fnP7Gy-s8BHT-45">
          <mxGeometry relative="1" as="geometry" />
        </mxCell>
        <mxCell id="k1NWHWB7fnP7Gy-s8BHT-49" value="&lt;font style=&quot;font-size: 19px;&quot;&gt;Testing&lt;/font&gt;" style="text;html=1;align=center;verticalAlign=middle;resizable=0;points=[];autosize=1;strokeColor=none;fillColor=none;" vertex="1" parent="1">
          <mxGeometry x="1108" y="61" width="78" height="35" as="geometry" />
        </mxCell>
        <mxCell id="k1NWHWB7fnP7Gy-s8BHT-53" value="Testing&amp;nbsp;&lt;div&gt;Dataset&lt;/div&gt;" style="text;html=1;align=center;verticalAlign=middle;resizable=0;points=[];autosize=1;strokeColor=none;fillColor=none;" vertex="1" parent="1">
          <mxGeometry x="1183" y="132.5" width="59" height="41" as="geometry" />
        </mxCell>
        <mxCell id="k1NWHWB7fnP7Gy-s8BHT-54" value="&lt;span style=&quot;background-color: initial;&quot;&gt;Import&amp;nbsp;&lt;/span&gt;&lt;div&gt;&lt;span style=&quot;background-color: initial;&quot;&gt;Model&lt;/span&gt;&lt;/div&gt;" style="text;html=1;align=center;verticalAlign=middle;resizable=0;points=[];autosize=1;strokeColor=none;fillColor=none;" vertex="1" parent="1">
          <mxGeometry x="1187" y="267.75" width="55" height="41" as="geometry" />
        </mxCell>
        <mxCell id="k1NWHWB7fnP7Gy-s8BHT-55" value="Model&lt;div&gt;Test&lt;/div&gt;" style="text;html=1;align=center;verticalAlign=middle;resizable=0;points=[];autosize=1;strokeColor=none;fillColor=none;" vertex="1" parent="1">
          <mxGeometry x="1190" y="403" width="51" height="41" as="geometry" />
        </mxCell>
      </root>
    </mxGraphModel>
  </diagram>
</mxfile>
